<?xml version="1.0" encoding="UTF-8"?> <svg xmlns="http://www.w3.org/2000/svg" width="44" height="44" viewBox="0 0 44 44" fill="none"><rect width="44" height="44" rx="22" fill="white"></rect><rect width="44" height="44" rx="22" fill="url(#paint0_linear_143_19032)"></rect><g clip-path="url(#clip0_143_19032)"><path d="M22.9533 11.5059H24.3134L25.202 11.524L25.9274 11.5421L26.3082 11.5603C27.4326 11.6147 28.1943 11.796 28.8471 12.0499C29.5362 12.3219 30.1165 12.6846 30.715 13.2649C31.2953 13.8452 31.658 14.4437 31.93 15.1328C32.1658 15.7312 32.329 16.4022 32.4015 17.3271L32.4559 18.3245L32.4741 19.2675L32.4922 21.0629V24.4359L32.4741 25.4877L32.4378 26.3582C32.3834 27.4825 32.202 28.2442 31.9481 28.9152C31.6761 29.6043 31.3134 30.1846 30.7331 30.7831C30.1528 31.3634 29.5725 31.7261 28.8652 31.9981C28.2668 32.2338 27.5958 32.3971 26.6709 32.4696L25.5466 32.524L24.5492 32.5421L22.9352 32.5603H19.5621L18.5103 32.5421L17.6399 32.5059C16.5155 32.4515 15.7538 32.2701 15.101 32.0162C14.4119 31.7442 13.8316 31.3815 13.2331 30.8012C12.6528 30.2209 12.2901 29.6224 12.0181 28.9333C11.7823 28.3349 11.6191 27.6639 11.5466 26.739L11.5103 25.9955L11.4922 25.2701L11.4922 24.3271V22.6587V19.6665L11.5103 18.7779L11.5285 18.0525L11.5466 17.6717C11.601 16.5654 11.7823 15.8038 12.0362 15.1328C12.3082 14.4437 12.6709 13.8634 13.2513 13.2649C13.8316 12.6846 14.43 12.3219 15.1191 12.0499C15.7176 11.8141 16.3886 11.6509 17.3134 11.5784L18.057 11.5421L18.7823 11.524L19.6528 11.5059H21.0129C21.031 11.5059 22.9533 11.5059 22.9533 11.5059ZM24.2772 13.41H19.6891L18.8912 13.4281L17.7305 13.4644C17.4404 13.4825 17.1502 13.5007 16.8601 13.5369L16.6969 13.5551C16.588 13.5732 16.4611 13.5914 16.3523 13.6276L16.2253 13.6639C16.1891 13.682 16.1528 13.682 16.1165 13.7002L15.8808 13.7727L15.772 13.809C15.2823 14.0084 14.9378 14.2261 14.557 14.5888C14.1943 14.9515 13.9585 15.3141 13.7772 15.8038L13.7228 16.0395L13.6865 16.1483C13.5958 16.4566 13.5051 16.8919 13.4507 17.4903L13.4326 17.9437L13.3963 18.8867L13.3782 20.5007V24.2364L13.3963 25.3971L13.4326 26.2494C13.4507 26.5577 13.4689 26.866 13.5233 27.1743L13.5414 27.3193C13.5414 27.3375 13.5414 27.3737 13.5595 27.3919L13.5958 27.5188L13.6321 27.6458C13.6321 27.6639 13.6502 27.682 13.6502 27.7002L13.6865 27.809L13.7228 27.9178L13.7409 27.9722L13.8134 28.1898C13.9948 28.6794 14.2305 29.024 14.5932 29.4048C14.9559 29.7675 15.3186 30.0033 15.8082 30.1846L16.0259 30.2572L16.1165 30.2934L16.1709 30.3116L16.2798 30.3478C16.2979 30.3478 16.316 30.366 16.3342 30.366L16.4611 30.4022L16.588 30.4385L16.7331 30.4566C17.0051 30.511 17.3316 30.5473 17.7305 30.5654L19.0181 30.6198L20.7228 30.638H24.4222L25.3652 30.6198L26.2176 30.5836C26.6165 30.5654 26.943 30.5292 27.215 30.4748L27.3601 30.4566L27.487 30.4204L27.6321 30.366L27.6865 30.3478L27.7953 30.3116L27.9041 30.2753L27.9585 30.2572L28.1761 30.1846C28.6658 30.0033 29.0103 29.7675 29.3912 29.4048C29.7538 29.0421 29.9896 28.6794 30.1709 28.1898L30.2435 27.9722C30.3523 27.6458 30.4611 27.1924 30.5155 26.5033L30.5699 25.3971L30.588 24.2727V22.6587V19.739L30.5699 18.6147L30.5336 17.7623C30.5155 17.5084 30.4974 17.2364 30.4611 16.9825L30.443 16.8193C30.4248 16.7468 30.4248 16.6743 30.4067 16.6017L30.3704 16.4748C30.3523 16.4385 30.3523 16.3841 30.3342 16.3478L30.2979 16.239L30.2798 16.1846L30.1891 15.8945L30.1709 15.8401C29.9715 15.3504 29.7538 15.0059 29.3912 14.625C29.0285 14.2442 28.6658 14.0266 28.1761 13.8452L28.0673 13.809L27.8316 13.7364L27.7772 13.682L27.6321 13.6458C27.3419 13.5732 26.9792 13.5007 26.4896 13.4644L25.7098 13.4281L25.0751 13.41H24.2772Z" fill="white"></path><path d="M21.9915 16.6199C24.9656 16.6199 27.3775 19.0318 27.3775 22.0059C27.3775 24.98 24.9656 27.3919 21.9915 27.3919C19.0174 27.3919 16.6055 24.98 16.6055 22.0059C16.6055 19.0318 19.0174 16.6199 21.9915 16.6199ZM21.9915 18.5059C20.0511 18.5059 18.4915 20.0654 18.4915 22.0059C18.4915 23.9463 20.0511 25.5059 21.9915 25.5059C23.9319 25.5059 25.4915 23.9463 25.4915 22.0059C25.4915 20.0654 23.9138 18.5059 21.9915 18.5059ZM28.8464 16.4022C28.8645 17.0914 28.3205 17.6717 27.6314 17.6898C26.9423 17.7079 26.3619 17.1639 26.3438 16.4748C26.3438 16.4566 26.3438 16.4204 26.3438 16.4022C26.3619 15.7131 26.9423 15.1509 27.6314 15.1872C28.3024 15.1872 28.8283 15.7313 28.8464 16.4022Z" fill="white"></path></g><defs><linearGradient id="paint0_linear_143_19032" x1="8.88921" y1="44.1262" x2="34.7246" y2="0.189812" gradientUnits="userSpaceOnUse"><stop stop-color="#FDD074"></stop><stop offset="0.25" stop-color="#F77F34"></stop><stop offset="0.5" stop-color="#DD326E"></stop><stop offset="0.75" stop-color="#D82B7E"></stop><stop offset="1" stop-color="#A432B1"></stop></linearGradient><clipPath id="clip0_143_19032"><rect width="21" height="21" fill="white" transform="translate(11.4922 11.5059)"></rect></clipPath></defs></svg> 