<?xml version="1.0" encoding="UTF-8"?> <svg xmlns="http://www.w3.org/2000/svg" width="258" height="65" viewBox="0 0 258 65" fill="none"><path d="M78.1737 58.3636C78.1737 59.1307 78.0352 59.7936 77.7582 60.3523C77.4812 60.911 77.1012 61.3419 76.6183 61.6449C76.1353 61.9479 75.5837 62.0994 74.9635 62.0994C74.3432 62.0994 73.7916 61.9479 73.3086 61.6449C72.8257 61.3419 72.4457 60.911 72.1687 60.3523C71.8917 59.7936 71.7532 59.1307 71.7532 58.3636C71.7532 57.5966 71.8917 56.9337 72.1687 56.375C72.4457 55.8163 72.8257 55.3854 73.3086 55.0824C73.7916 54.7794 74.3432 54.6278 74.9635 54.6278C75.5837 54.6278 76.1353 54.7794 76.6183 55.0824C77.1012 55.3854 77.4812 55.8163 77.7582 56.375C78.0352 56.9337 78.1737 57.5966 78.1737 58.3636ZM77.3214 58.3636C77.3214 57.7339 77.2161 57.2024 77.0054 56.7692C76.797 56.3359 76.5141 56.008 76.1566 55.7855C75.8015 55.563 75.4038 55.4517 74.9635 55.4517C74.5231 55.4517 74.1242 55.563 73.7667 55.7855C73.4116 56.008 73.1287 56.3359 72.918 56.7692C72.7097 57.2024 72.6055 57.7339 72.6055 58.3636C72.6055 58.9934 72.7097 59.5249 72.918 59.9581C73.1287 60.3913 73.4116 60.7192 73.7667 60.9418C74.1242 61.1643 74.5231 61.2756 74.9635 61.2756C75.4038 61.2756 75.8015 61.1643 76.1566 60.9418C76.5141 60.7192 76.797 60.3913 77.0054 59.9581C77.2161 59.5249 77.3214 58.9934 77.3214 58.3636ZM79.6409 64.0455V56.5455H80.4505V57.4119H80.55C80.6115 57.3172 80.6967 57.1965 80.8056 57.0497C80.9169 56.9006 81.0755 56.768 81.2815 56.652C81.4898 56.5336 81.7716 56.4744 82.1267 56.4744C82.5859 56.4744 82.9908 56.5893 83.3412 56.8189C83.6915 57.0485 83.965 57.3741 84.1615 57.7955C84.358 58.2169 84.4562 58.714 84.4562 59.2869C84.4562 59.8646 84.358 60.3653 84.1615 60.7891C83.965 61.2105 83.6927 61.5372 83.3447 61.7692C82.9967 61.9988 82.5954 62.1136 82.1409 62.1136C81.7905 62.1136 81.51 62.0556 81.2993 61.9396C81.0886 61.8213 80.9264 61.6875 80.8127 61.5384C80.6991 61.3868 80.6115 61.2614 80.55 61.1619H80.4789V64.0455H79.6409ZM80.4647 59.2727C80.4647 59.6847 80.5251 60.0481 80.6458 60.3629C80.7666 60.6754 80.943 60.9205 81.175 61.098C81.407 61.2732 81.6911 61.3608 82.0272 61.3608C82.3776 61.3608 82.67 61.2685 82.9044 61.0838C83.1411 60.8968 83.3187 60.6458 83.437 60.331C83.5578 60.0137 83.6181 59.661 83.6181 59.2727C83.6181 58.8892 83.559 58.5436 83.4406 58.2358C83.3246 57.9257 83.1482 57.6806 82.9115 57.5007C82.6771 57.3184 82.3823 57.2273 82.0272 57.2273C81.6863 57.2273 81.3999 57.3137 81.1679 57.4865C80.9359 57.657 80.7607 57.8961 80.6423 58.2038C80.5239 58.5092 80.4647 58.8655 80.4647 59.2727ZM88.1216 62.1136C87.596 62.1136 87.1426 61.9976 86.7615 61.7656C86.3827 61.5312 86.0903 61.2045 85.8843 60.7855C85.6807 60.3641 85.5789 59.8741 85.5789 59.3153C85.5789 58.7566 85.6807 58.2642 85.8843 57.8381C86.0903 57.4096 86.3768 57.0758 86.7437 56.8366C87.113 56.5952 87.5439 56.4744 88.0363 56.4744C88.3204 56.4744 88.601 56.5218 88.8779 56.6165C89.1549 56.7112 89.4071 56.8651 89.6343 57.0781C89.8616 57.2888 90.0427 57.5682 90.1777 57.9162C90.3126 58.2642 90.3801 58.6927 90.3801 59.2017V59.5568H86.1755V58.8324H89.5278C89.5278 58.5246 89.4663 58.25 89.3431 58.0085C89.2224 57.767 89.0496 57.5765 88.8247 57.4368C88.6021 57.2971 88.3394 57.2273 88.0363 57.2273C87.7025 57.2273 87.4137 57.3101 87.1698 57.4759C86.9284 57.6392 86.7425 57.8523 86.6123 58.1151C86.4821 58.3778 86.417 58.6596 86.417 58.9602V59.4432C86.417 59.8551 86.488 60.2043 86.6301 60.4908C86.7745 60.7749 86.9745 60.9915 87.2302 61.1406C87.4859 61.2874 87.783 61.3608 88.1216 61.3608C88.3417 61.3608 88.5406 61.33 88.7181 61.2685C88.8981 61.2045 89.0531 61.1098 89.1833 60.9844C89.3136 60.8565 89.4142 60.6979 89.4852 60.5085L90.2948 60.7358C90.2096 61.0104 90.0664 61.2519 89.8652 61.4602C89.6639 61.6662 89.4154 61.8272 89.1194 61.9432C88.8235 62.0568 88.4909 62.1136 88.1216 62.1136ZM92.593 58.7188V62H91.7549V56.5455H92.5646V57.3977H92.6356C92.7635 57.1207 92.9576 56.8982 93.218 56.7301C93.4784 56.5597 93.8146 56.4744 94.2265 56.4744C94.5958 56.4744 94.919 56.5502 95.196 56.7017C95.473 56.8509 95.6884 57.0781 95.8423 57.3835C95.9962 57.6866 96.0731 58.0701 96.0731 58.5341V62H95.235V58.5909C95.235 58.1624 95.1238 57.8286 94.9012 57.5895C94.6787 57.348 94.3733 57.2273 93.985 57.2273C93.7175 57.2273 93.4784 57.2853 93.2677 57.4013C93.0594 57.5173 92.8948 57.6866 92.7741 57.9091C92.6534 58.1316 92.593 58.4015 92.593 58.7188ZM100.731 62V54.7273H105.12V55.5085H101.611V57.9659H104.893V58.7472H101.611V61.2188H105.177V62H100.731ZM108.753 62.1136C108.299 62.1136 107.897 61.9988 107.549 61.7692C107.201 61.5372 106.929 61.2105 106.733 60.7891C106.536 60.3653 106.438 59.8646 106.438 59.2869C106.438 58.714 106.536 58.2169 106.733 57.7955C106.929 57.3741 107.203 57.0485 107.553 56.8189C107.903 56.5893 108.308 56.4744 108.767 56.4744C109.123 56.4744 109.403 56.5336 109.609 56.652C109.817 56.768 109.976 56.9006 110.085 57.0497C110.196 57.1965 110.283 57.3172 110.344 57.4119H110.415V54.7273H111.253V62H110.444V61.1619H110.344C110.283 61.2614 110.195 61.3868 110.081 61.5384C109.968 61.6875 109.806 61.8213 109.595 61.9396C109.384 62.0556 109.104 62.1136 108.753 62.1136ZM108.867 61.3608C109.203 61.3608 109.487 61.2732 109.719 61.098C109.951 60.9205 110.128 60.6754 110.248 60.3629C110.369 60.0481 110.429 59.6847 110.429 59.2727C110.429 58.8655 110.37 58.5092 110.252 58.2038C110.133 57.8961 109.958 57.657 109.726 57.4865C109.494 57.3137 109.208 57.2273 108.867 57.2273C108.512 57.2273 108.216 57.3184 107.979 57.5007C107.745 57.6806 107.568 57.9257 107.45 58.2358C107.334 58.5436 107.276 58.8892 107.276 59.2727C107.276 59.661 107.335 60.0137 107.454 60.331C107.574 60.6458 107.752 60.8968 107.986 61.0838C108.223 61.2685 108.517 61.3608 108.867 61.3608ZM116.442 59.7699V56.5455H117.28V62H116.442V61.0767H116.385C116.257 61.3537 116.059 61.5893 115.789 61.7834C115.519 61.9751 115.178 62.071 114.766 62.071C114.425 62.071 114.122 61.9964 113.857 61.8473C113.592 61.6958 113.383 61.4685 113.232 61.1655C113.08 60.8601 113.005 60.4754 113.005 60.0114V56.5455H113.843V59.9545C113.843 60.3523 113.954 60.6695 114.176 60.9062C114.401 61.143 114.688 61.2614 115.036 61.2614C115.244 61.2614 115.456 61.2081 115.671 61.1016C115.889 60.995 116.072 60.8317 116.218 60.6115C116.367 60.3913 116.442 60.1108 116.442 59.7699ZM121.131 62.1136C120.62 62.1136 120.179 61.9929 119.81 61.7514C119.441 61.5099 119.157 61.1773 118.958 60.7536C118.759 60.3298 118.659 59.8456 118.659 59.3011C118.659 58.7472 118.761 58.2583 118.965 57.8345C119.171 57.4084 119.457 57.0758 119.824 56.8366C120.193 56.5952 120.624 56.4744 121.117 56.4744C121.5 56.4744 121.846 56.5455 122.154 56.6875C122.461 56.8295 122.714 57.0284 122.91 57.2841C123.107 57.5398 123.229 57.8381 123.276 58.179H122.438C122.374 57.9304 122.232 57.7102 122.012 57.5185C121.794 57.3243 121.5 57.2273 121.131 57.2273C120.804 57.2273 120.518 57.3125 120.272 57.483C120.028 57.651 119.837 57.889 119.7 58.1967C119.565 58.5021 119.497 58.8608 119.497 59.2727C119.497 59.6941 119.564 60.0611 119.696 60.3736C119.831 60.6861 120.021 60.9287 120.265 61.1016C120.511 61.2744 120.8 61.3608 121.131 61.3608C121.349 61.3608 121.546 61.3229 121.724 61.2472C121.902 61.1714 122.052 61.0625 122.175 60.9205C122.298 60.7784 122.386 60.608 122.438 60.4091H123.276C123.229 60.7311 123.111 61.0211 122.924 61.2791C122.74 61.5348 122.495 61.7384 122.189 61.8899C121.886 62.0391 121.533 62.1136 121.131 62.1136ZM126.206 62.1278C125.86 62.1278 125.547 62.0627 125.265 61.9325C124.983 61.8 124.76 61.6094 124.594 61.3608C124.428 61.1098 124.345 60.8068 124.345 60.4517C124.345 60.1392 124.407 59.8859 124.53 59.6918C124.653 59.4953 124.818 59.3414 125.024 59.2301C125.23 59.1188 125.457 59.036 125.705 58.9815C125.956 58.9247 126.209 58.8797 126.462 58.8466C126.793 58.804 127.062 58.772 127.268 58.7507C127.476 58.727 127.628 58.688 127.722 58.6335C127.82 58.5791 127.868 58.4844 127.868 58.3494V58.321C127.868 57.9706 127.772 57.6984 127.58 57.5043C127.391 57.3101 127.103 57.2131 126.718 57.2131C126.317 57.2131 126.004 57.3007 125.776 57.4759C125.549 57.651 125.389 57.8381 125.297 58.0369L124.502 57.7528C124.644 57.4214 124.833 57.1634 125.07 56.9787C125.309 56.7917 125.569 56.6615 125.851 56.5881C126.135 56.5123 126.414 56.4744 126.689 56.4744C126.864 56.4744 127.066 56.4957 127.293 56.5384C127.522 56.5786 127.744 56.6626 127.957 56.7905C128.172 56.9183 128.351 57.1113 128.493 57.3693C128.635 57.6274 128.706 57.973 128.706 58.4062V62H127.868V61.2614H127.825C127.769 61.3797 127.674 61.5064 127.541 61.6413C127.409 61.7763 127.232 61.8911 127.012 61.9858C126.792 62.0805 126.523 62.1278 126.206 62.1278ZM126.334 61.375C126.665 61.375 126.945 61.3099 127.172 61.1797C127.402 61.0495 127.575 60.8814 127.691 60.6754C127.809 60.4695 127.868 60.2528 127.868 60.0256V59.2585C127.833 59.3011 127.754 59.3402 127.634 59.3757C127.515 59.4089 127.378 59.4384 127.222 59.4645C127.068 59.4882 126.918 59.5095 126.771 59.5284C126.626 59.545 126.509 59.5592 126.419 59.571C126.201 59.5994 125.998 59.6456 125.808 59.7095C125.621 59.7711 125.47 59.8646 125.354 59.9901C125.24 60.1132 125.183 60.2812 125.183 60.4943C125.183 60.7855 125.291 61.0057 125.507 61.1548C125.724 61.3016 126 61.375 126.334 61.375ZM132.708 56.5455V57.2557H129.881V56.5455H132.708ZM130.705 55.2386H131.543V60.4375C131.543 60.6742 131.578 60.8518 131.646 60.9702C131.717 61.0862 131.807 61.1643 131.916 61.2045C132.027 61.2424 132.145 61.2614 132.268 61.2614C132.36 61.2614 132.436 61.2566 132.495 61.2472C132.554 61.2353 132.601 61.2259 132.637 61.2188L132.807 61.9716C132.751 61.9929 132.671 62.0142 132.569 62.0355C132.468 62.0592 132.339 62.071 132.182 62.071C131.946 62.071 131.714 62.0201 131.486 61.9183C131.261 61.8165 131.074 61.6615 130.925 61.4531C130.779 61.2448 130.705 60.982 130.705 60.6648V55.2386ZM134.069 62V56.5455H134.907V62H134.069ZM134.495 55.6364C134.331 55.6364 134.191 55.5807 134.072 55.4695C133.956 55.3582 133.898 55.2244 133.898 55.0682C133.898 54.9119 133.956 54.7782 134.072 54.6669C134.191 54.5556 134.331 54.5 134.495 54.5C134.658 54.5 134.798 54.5556 134.914 54.6669C135.032 54.7782 135.091 54.9119 135.091 55.0682C135.091 55.2244 135.032 55.3582 134.914 55.4695C134.798 55.5807 134.658 55.6364 134.495 55.6364ZM138.758 62.1136C138.265 62.1136 137.833 61.9964 137.461 61.7621C137.092 61.5277 136.803 61.1998 136.595 60.7784C136.389 60.357 136.286 59.8646 136.286 59.3011C136.286 58.733 136.389 58.237 136.595 57.8132C136.803 57.3894 137.092 57.0604 137.461 56.826C137.833 56.5916 138.265 56.4744 138.758 56.4744C139.25 56.4744 139.681 56.5916 140.05 56.826C140.422 57.0604 140.711 57.3894 140.917 57.8132C141.125 58.237 141.229 58.733 141.229 59.3011C141.229 59.8646 141.125 60.357 140.917 60.7784C140.711 61.1998 140.422 61.5277 140.05 61.7621C139.681 61.9964 139.25 62.1136 138.758 62.1136ZM138.758 61.3608C139.132 61.3608 139.439 61.2649 139.681 61.0732C139.922 60.8814 140.101 60.6293 140.217 60.3168C140.333 60.0043 140.391 59.6657 140.391 59.3011C140.391 58.9366 140.333 58.5968 140.217 58.282C140.101 57.9671 139.922 57.7126 139.681 57.5185C139.439 57.3243 139.132 57.2273 138.758 57.2273C138.384 57.2273 138.076 57.3243 137.834 57.5185C137.593 57.7126 137.414 57.9671 137.298 58.282C137.182 58.5968 137.124 58.9366 137.124 59.3011C137.124 59.6657 137.182 60.0043 137.298 60.3168C137.414 60.6293 137.593 60.8814 137.834 61.0732C138.076 61.2649 138.384 61.3608 138.758 61.3608ZM143.447 58.7188V62H142.608V56.5455H143.418V57.3977H143.489C143.617 57.1207 143.811 56.8982 144.072 56.7301C144.332 56.5597 144.668 56.4744 145.08 56.4744C145.449 56.4744 145.773 56.5502 146.05 56.7017C146.326 56.8509 146.542 57.0781 146.696 57.3835C146.85 57.6866 146.927 58.0701 146.927 58.5341V62H146.089V58.5909C146.089 58.1624 145.977 57.8286 145.755 57.5895C145.532 57.348 145.227 57.2273 144.839 57.2273C144.571 57.2273 144.332 57.2853 144.121 57.4013C143.913 57.5173 143.748 57.6866 143.628 57.9091C143.507 58.1316 143.447 58.4015 143.447 58.7188ZM153.53 62.0994C153.052 62.0994 152.64 62.0118 152.294 61.8366C151.949 61.6615 151.682 61.4212 151.495 61.1158C151.308 60.8104 151.215 60.4612 151.215 60.0682C151.215 59.7652 151.279 59.4964 151.407 59.2621C151.537 59.0253 151.716 58.8063 151.943 58.6051C152.173 58.4015 152.436 58.1979 152.735 57.9943L153.786 57.2131C153.992 57.0781 154.156 56.9337 154.28 56.7798C154.405 56.6259 154.468 56.4247 154.468 56.1761C154.468 55.9915 154.386 55.8127 154.223 55.6399C154.062 55.4671 153.85 55.3807 153.587 55.3807C153.402 55.3807 153.239 55.428 153.097 55.5227C152.957 55.6151 152.847 55.7334 152.767 55.8778C152.689 56.0199 152.65 56.1667 152.65 56.3182C152.65 56.4886 152.696 56.6615 152.788 56.8366C152.883 57.0095 153.002 57.187 153.147 57.3693C153.293 57.5492 153.445 57.7339 153.601 57.9233L156.939 62H155.931L153.175 58.6761C152.919 58.3684 152.687 58.089 152.479 57.8381C152.271 57.5871 152.105 57.3397 151.982 57.0959C151.859 56.852 151.797 56.5881 151.797 56.304C151.797 55.9773 151.869 55.6908 152.014 55.4446C152.161 55.196 152.365 55.0031 152.628 54.8658C152.893 54.7261 153.204 54.6562 153.559 54.6562C153.923 54.6562 154.237 54.7273 154.5 54.8693C154.762 55.009 154.965 55.1948 155.107 55.4268C155.249 55.6565 155.32 55.9062 155.32 56.1761C155.32 56.5241 155.234 56.826 155.061 57.0817C154.888 57.3374 154.652 57.5753 154.354 57.7955L152.905 58.875C152.579 59.1165 152.357 59.3509 152.241 59.5781C152.125 59.8054 152.067 59.9687 152.067 60.0682C152.067 60.2955 152.126 60.5073 152.245 60.7038C152.363 60.9003 152.53 61.0589 152.745 61.1797C152.961 61.3004 153.213 61.3608 153.502 61.3608C153.776 61.3608 154.044 61.3028 154.304 61.1868C154.565 61.0684 154.8 60.898 155.011 60.6754C155.224 60.4529 155.392 60.1854 155.515 59.8729C155.641 59.5604 155.704 59.2088 155.704 58.8182H156.513C156.513 59.3011 156.458 59.6953 156.346 60.0007C156.235 60.3061 156.11 60.5452 155.97 60.718C155.83 60.8909 155.718 61.0199 155.632 61.1051C155.604 61.1406 155.578 61.1761 155.554 61.2116C155.531 61.2472 155.505 61.2827 155.476 61.3182C155.242 61.581 154.946 61.7775 154.588 61.9077C154.231 62.0355 153.878 62.0994 153.53 62.0994ZM163.237 62H160.993V54.7273H163.337C164.042 54.7273 164.646 54.8729 165.148 55.1641C165.65 55.4529 166.035 55.8684 166.302 56.4105C166.57 56.9503 166.703 57.5966 166.703 58.3494C166.703 59.107 166.568 59.7592 166.299 60.3061C166.029 60.8506 165.636 61.2696 165.12 61.5632C164.603 61.8544 163.976 62 163.237 62ZM161.874 61.2188H163.181C163.782 61.2188 164.28 61.1027 164.676 60.8707C165.071 60.6387 165.366 60.3085 165.56 59.88C165.754 59.4515 165.851 58.9413 165.851 58.3494C165.851 57.7623 165.755 57.2569 165.563 56.8331C165.372 56.407 165.085 56.0803 164.704 55.853C164.323 55.6233 163.848 55.5085 163.28 55.5085H161.874V61.2188ZM170.454 62.1136C169.928 62.1136 169.475 61.9976 169.094 61.7656C168.715 61.5312 168.423 61.2045 168.217 60.7855C168.013 60.3641 167.911 59.8741 167.911 59.3153C167.911 58.7566 168.013 58.2642 168.217 57.8381C168.423 57.4096 168.709 57.0758 169.076 56.8366C169.445 56.5952 169.876 56.4744 170.369 56.4744C170.653 56.4744 170.933 56.5218 171.21 56.6165C171.487 56.7112 171.739 56.8651 171.967 57.0781C172.194 57.2888 172.375 57.5682 172.51 57.9162C172.645 58.2642 172.713 58.6927 172.713 59.2017V59.5568H168.508V58.8324H171.86C171.86 58.5246 171.799 58.25 171.676 58.0085C171.555 57.767 171.382 57.5765 171.157 57.4368C170.935 57.2971 170.672 57.2273 170.369 57.2273C170.035 57.2273 169.746 57.3101 169.502 57.4759C169.261 57.6392 169.075 57.8523 168.945 58.1151C168.815 58.3778 168.749 58.6596 168.749 58.9602V59.4432C168.749 59.8551 168.82 60.2043 168.963 60.4908C169.107 60.7749 169.307 60.9915 169.563 61.1406C169.818 61.2874 170.115 61.3608 170.454 61.3608C170.674 61.3608 170.873 61.33 171.051 61.2685C171.23 61.2045 171.386 61.1098 171.516 60.9844C171.646 60.8565 171.747 60.6979 171.818 60.5085L172.627 60.7358C172.542 61.0104 172.399 61.2519 172.198 61.4602C171.996 61.6662 171.748 61.8272 171.452 61.9432C171.156 62.0568 170.823 62.1136 170.454 62.1136ZM178.382 56.5455L176.365 62H175.512L173.495 56.5455H174.404L175.91 60.892H175.967L177.472 56.5455H178.382ZM181.679 62.1136C181.154 62.1136 180.7 61.9976 180.319 61.7656C179.94 61.5312 179.648 61.2045 179.442 60.7855C179.239 60.3641 179.137 59.8741 179.137 59.3153C179.137 58.7566 179.239 58.2642 179.442 57.8381C179.648 57.4096 179.935 57.0758 180.302 56.8366C180.671 56.5952 181.102 56.4744 181.594 56.4744C181.878 56.4744 182.159 56.5218 182.436 56.6165C182.713 56.7112 182.965 56.8651 183.192 57.0781C183.419 57.2888 183.601 57.5682 183.735 57.9162C183.87 58.2642 183.938 58.6927 183.938 59.2017V59.5568H179.733V58.8324H183.086C183.086 58.5246 183.024 58.25 182.901 58.0085C182.78 57.767 182.607 57.5765 182.382 57.4368C182.16 57.2971 181.897 57.2273 181.594 57.2273C181.26 57.2273 180.972 57.3101 180.728 57.4759C180.486 57.6392 180.3 57.8523 180.17 58.1151C180.04 58.3778 179.975 58.6596 179.975 58.9602V59.4432C179.975 59.8551 180.046 60.2043 180.188 60.4908C180.332 60.7749 180.532 60.9915 180.788 61.1406C181.044 61.2874 181.341 61.3608 181.679 61.3608C181.9 61.3608 182.098 61.33 182.276 61.2685C182.456 61.2045 182.611 61.1098 182.741 60.9844C182.871 60.8565 182.972 60.6979 183.043 60.5085L183.853 60.7358C183.767 61.0104 183.624 61.2519 183.423 61.4602C183.222 61.6662 182.973 61.8272 182.677 61.9432C182.381 62.0568 182.049 62.1136 181.679 62.1136ZM186.151 54.7273V62H185.313V54.7273H186.151ZM190.002 62.1136C189.509 62.1136 189.077 61.9964 188.706 61.7621C188.336 61.5277 188.047 61.1998 187.839 60.7784C187.633 60.357 187.53 59.8646 187.53 59.3011C187.53 58.733 187.633 58.237 187.839 57.8132C188.047 57.3894 188.336 57.0604 188.706 56.826C189.077 56.5916 189.509 56.4744 190.002 56.4744C190.494 56.4744 190.925 56.5916 191.294 56.826C191.666 57.0604 191.955 57.3894 192.161 57.8132C192.369 58.237 192.473 58.733 192.473 59.3011C192.473 59.8646 192.369 60.357 192.161 60.7784C191.955 61.1998 191.666 61.5277 191.294 61.7621C190.925 61.9964 190.494 62.1136 190.002 62.1136ZM190.002 61.3608C190.376 61.3608 190.684 61.2649 190.925 61.0732C191.166 60.8814 191.345 60.6293 191.461 60.3168C191.577 60.0043 191.635 59.6657 191.635 59.3011C191.635 58.9366 191.577 58.5968 191.461 58.282C191.345 57.9671 191.166 57.7126 190.925 57.5185C190.684 57.3243 190.376 57.2273 190.002 57.2273C189.628 57.2273 189.32 57.3243 189.078 57.5185C188.837 57.7126 188.658 57.9671 188.542 58.282C188.426 58.5968 188.368 58.9366 188.368 59.3011C188.368 59.6657 188.426 60.0043 188.542 60.3168C188.658 60.6293 188.837 60.8814 189.078 61.0732C189.32 61.2649 189.628 61.3608 190.002 61.3608ZM193.853 64.0455V56.5455H194.662V57.4119H194.762C194.823 57.3172 194.908 57.1965 195.017 57.0497C195.129 56.9006 195.287 56.768 195.493 56.652C195.702 56.5336 195.983 56.4744 196.338 56.4744C196.798 56.4744 197.202 56.5893 197.553 56.8189C197.903 57.0485 198.177 57.3741 198.373 57.7955C198.57 58.2169 198.668 58.714 198.668 59.2869C198.668 59.8646 198.57 60.3653 198.373 60.7891C198.177 61.2105 197.904 61.5372 197.556 61.7692C197.208 61.9988 196.807 62.1136 196.353 62.1136C196.002 62.1136 195.722 62.0556 195.511 61.9396C195.3 61.8213 195.138 61.6875 195.024 61.5384C194.911 61.3868 194.823 61.2614 194.762 61.1619H194.691V64.0455H193.853ZM194.676 59.2727C194.676 59.6847 194.737 60.0481 194.858 60.3629C194.978 60.6754 195.155 60.9205 195.387 61.098C195.619 61.2732 195.903 61.3608 196.239 61.3608C196.589 61.3608 196.882 61.2685 197.116 61.0838C197.353 60.8968 197.53 60.6458 197.649 60.331C197.769 60.0137 197.83 59.661 197.83 59.2727C197.83 58.8892 197.771 58.5436 197.652 58.2358C197.536 57.9257 197.36 57.6806 197.123 57.5007C196.889 57.3184 196.594 57.2273 196.239 57.2273C195.898 57.2273 195.612 57.3137 195.38 57.4865C195.148 57.657 194.972 57.8961 194.854 58.2038C194.736 58.5092 194.676 58.8655 194.676 59.2727ZM200.046 62V56.5455H200.856V57.3977H200.927C201.041 57.1065 201.224 56.8804 201.477 56.7195C201.731 56.5561 202.035 56.4744 202.39 56.4744C202.75 56.4744 203.049 56.5561 203.289 56.7195C203.53 56.8804 203.718 57.1065 203.853 57.3977H203.91C204.05 57.116 204.259 56.8923 204.539 56.7266C204.818 56.5585 205.153 56.4744 205.544 56.4744C206.031 56.4744 206.43 56.6271 206.74 56.9325C207.05 57.2356 207.205 57.7079 207.205 58.3494V62H206.367V58.3494C206.367 57.947 206.257 57.6593 206.037 57.4865C205.817 57.3137 205.558 57.2273 205.259 57.2273C204.876 57.2273 204.579 57.3433 204.368 57.5753C204.157 57.8049 204.052 58.0961 204.052 58.4489V62H203.2V58.2642C203.2 57.9541 203.099 57.7043 202.898 57.5149C202.697 57.3232 202.437 57.2273 202.12 57.2273C201.902 57.2273 201.699 57.2853 201.509 57.4013C201.322 57.5173 201.171 57.6783 201.055 57.8842C200.941 58.0878 200.884 58.3234 200.884 58.5909V62H200.046ZM211.125 62.1136C210.599 62.1136 210.146 61.9976 209.765 61.7656C209.386 61.5312 209.093 61.2045 208.887 60.7855C208.684 60.3641 208.582 59.8741 208.582 59.3153C208.582 58.7566 208.684 58.2642 208.887 57.8381C209.093 57.4096 209.38 57.0758 209.747 56.8366C210.116 56.5952 210.547 56.4744 211.039 56.4744C211.324 56.4744 211.604 56.5218 211.881 56.6165C212.158 56.7112 212.41 56.8651 212.637 57.0781C212.865 57.2888 213.046 57.5682 213.181 57.9162C213.316 58.2642 213.383 58.6927 213.383 59.2017V59.5568H209.179V58.8324H212.531C212.531 58.5246 212.469 58.25 212.346 58.0085C212.226 57.767 212.053 57.5765 211.828 57.4368C211.605 57.2971 211.342 57.2273 211.039 57.2273C210.706 57.2273 210.417 57.3101 210.173 57.4759C209.932 57.6392 209.746 57.8523 209.615 58.1151C209.485 58.3778 209.42 58.6596 209.42 58.9602V59.4432C209.42 59.8551 209.491 60.2043 209.633 60.4908C209.778 60.7749 209.978 60.9915 210.233 61.1406C210.489 61.2874 210.786 61.3608 211.125 61.3608C211.345 61.3608 211.544 61.33 211.721 61.2685C211.901 61.2045 212.056 61.1098 212.186 60.9844C212.317 60.8565 212.417 60.6979 212.488 60.5085L213.298 60.7358C213.213 61.0104 213.07 61.2519 212.868 61.4602C212.667 61.6662 212.418 61.8272 212.123 61.9432C211.827 62.0568 211.494 62.1136 211.125 62.1136ZM215.596 58.7188V62H214.758V56.5455H215.568V57.3977H215.639C215.767 57.1207 215.961 56.8982 216.221 56.7301C216.482 56.5597 216.818 56.4744 217.23 56.4744C217.599 56.4744 217.922 56.5502 218.199 56.7017C218.476 56.8509 218.692 57.0781 218.845 57.3835C218.999 57.6866 219.076 58.0701 219.076 58.5341V62H218.238V58.5909C218.238 58.1624 218.127 57.8286 217.904 57.5895C217.682 57.348 217.376 57.2273 216.988 57.2273C216.721 57.2273 216.482 57.2853 216.271 57.4013C216.063 57.5173 215.898 57.6866 215.777 57.9091C215.657 58.1316 215.596 58.4015 215.596 58.7188ZM223.08 56.5455V57.2557H220.253V56.5455H223.08ZM221.077 55.2386H221.915V60.4375C221.915 60.6742 221.949 60.8518 222.018 60.9702C222.089 61.0862 222.179 61.1643 222.288 61.2045C222.399 61.2424 222.516 61.2614 222.639 61.2614C222.732 61.2614 222.808 61.2566 222.867 61.2472C222.926 61.2353 222.973 61.2259 223.009 61.2188L223.179 61.9716C223.122 61.9929 223.043 62.0142 222.941 62.0355C222.84 62.0592 222.71 62.071 222.554 62.071C222.318 62.071 222.085 62.0201 221.858 61.9183C221.633 61.8165 221.446 61.6615 221.297 61.4531C221.15 61.2448 221.077 60.982 221.077 60.6648V55.2386ZM232.438 57C232.36 56.7609 232.257 56.5466 232.129 56.3572C232.004 56.1655 231.853 56.0021 231.678 55.8672C231.505 55.7322 231.309 55.6293 231.089 55.5582C230.869 55.4872 230.627 55.4517 230.364 55.4517C229.933 55.4517 229.542 55.563 229.189 55.7855C228.836 56.008 228.556 56.3359 228.347 56.7692C228.139 57.2024 228.035 57.7339 228.035 58.3636C228.035 58.9934 228.14 59.5249 228.351 59.9581C228.562 60.3913 228.847 60.7192 229.207 60.9418C229.567 61.1643 229.971 61.2756 230.421 61.2756C230.838 61.2756 231.205 61.1868 231.522 61.0092C231.842 60.8293 232.09 60.576 232.268 60.2493C232.448 59.9202 232.538 59.5331 232.538 59.0881L232.808 59.1449H230.62V58.3636H233.39V59.1449C233.39 59.7438 233.262 60.2647 233.006 60.7074C232.753 61.1501 232.403 61.4934 231.955 61.7372C231.51 61.9787 230.999 62.0994 230.421 62.0994C229.777 62.0994 229.211 61.9479 228.724 61.6449C228.238 61.3419 227.86 60.911 227.587 60.3523C227.317 59.7936 227.183 59.1307 227.183 58.3636C227.183 57.7884 227.259 57.2711 227.413 56.8118C227.57 56.3501 227.79 55.9571 228.074 55.6328C228.358 55.3085 228.694 55.0599 229.082 54.8871C229.471 54.7143 229.898 54.6278 230.364 54.6278C230.748 54.6278 231.105 54.6858 231.437 54.8018C231.771 54.9155 232.068 55.0777 232.328 55.2884C232.591 55.4967 232.81 55.7464 232.985 56.0376C233.16 56.3265 233.281 56.6473 233.347 57H232.438ZM234.885 62V56.5455H235.694V57.3693H235.751C235.851 57.0994 236.03 56.8804 236.291 56.7124C236.551 56.5443 236.845 56.4602 237.172 56.4602C237.233 56.4602 237.31 56.4614 237.402 56.4638C237.495 56.4661 237.565 56.4697 237.612 56.4744V57.3267C237.583 57.3196 237.518 57.3089 237.417 57.2947C237.317 57.2782 237.212 57.2699 237.101 57.2699C236.835 57.2699 236.599 57.3255 236.39 57.4368C236.184 57.5457 236.021 57.6972 235.9 57.8913C235.782 58.0831 235.723 58.3021 235.723 58.5483V62H234.885ZM240.755 62.1136C240.263 62.1136 239.831 61.9964 239.459 61.7621C239.09 61.5277 238.801 61.1998 238.593 60.7784C238.387 60.357 238.284 59.8646 238.284 59.3011C238.284 58.733 238.387 58.237 238.593 57.8132C238.801 57.3894 239.09 57.0604 239.459 56.826C239.831 56.5916 240.263 56.4744 240.755 56.4744C241.248 56.4744 241.679 56.5916 242.048 56.826C242.42 57.0604 242.708 57.3894 242.914 57.8132C243.123 58.237 243.227 58.733 243.227 59.3011C243.227 59.8646 243.123 60.357 242.914 60.7784C242.708 61.1998 242.42 61.5277 242.048 61.7621C241.679 61.9964 241.248 62.1136 240.755 62.1136ZM240.755 61.3608C241.129 61.3608 241.437 61.2649 241.679 61.0732C241.92 60.8814 242.099 60.6293 242.215 60.3168C242.331 60.0043 242.389 59.6657 242.389 59.3011C242.389 58.9366 242.331 58.5968 242.215 58.282C242.099 57.9671 241.92 57.7126 241.679 57.5185C241.437 57.3243 241.129 57.2273 240.755 57.2273C240.381 57.2273 240.073 57.3243 239.832 57.5185C239.59 57.7126 239.412 57.9671 239.296 58.282C239.18 58.5968 239.122 58.9366 239.122 59.3011C239.122 59.6657 239.18 60.0043 239.296 60.3168C239.412 60.6293 239.59 60.8814 239.832 61.0732C240.073 61.2649 240.381 61.3608 240.755 61.3608ZM248.044 59.7699V56.5455H248.882V62H248.044V61.0767H247.987C247.859 61.3537 247.66 61.5893 247.39 61.7834C247.12 61.9751 246.779 62.071 246.367 62.071C246.027 62.071 245.724 61.9964 245.458 61.8473C245.193 61.6958 244.985 61.4685 244.833 61.1655C244.682 60.8601 244.606 60.4754 244.606 60.0114V56.5455H245.444V59.9545C245.444 60.3523 245.555 60.6695 245.778 60.9062C246.003 61.143 246.289 61.2614 246.637 61.2614C246.846 61.2614 247.058 61.2081 247.273 61.1016C247.491 60.995 247.673 60.8317 247.82 60.6115C247.969 60.3913 248.044 60.1108 248.044 59.7699ZM250.517 64.0455V56.5455H251.326V57.4119H251.426C251.487 57.3172 251.573 57.1965 251.681 57.0497C251.793 56.9006 251.951 56.768 252.157 56.652C252.366 56.5336 252.647 56.4744 253.002 56.4744C253.462 56.4744 253.867 56.5893 254.217 56.8189C254.567 57.0485 254.841 57.3741 255.037 57.7955C255.234 58.2169 255.332 58.714 255.332 59.2869C255.332 59.8646 255.234 60.3653 255.037 60.7891C254.841 61.2105 254.568 61.5372 254.22 61.7692C253.872 61.9988 253.471 62.1136 253.017 62.1136C252.666 62.1136 252.386 62.0556 252.175 61.9396C251.964 61.8213 251.802 61.6875 251.689 61.5384C251.575 61.3868 251.487 61.2614 251.426 61.1619H251.355V64.0455H250.517ZM251.341 59.2727C251.341 59.6847 251.401 60.0481 251.522 60.3629C251.642 60.6754 251.819 60.9205 252.051 61.098C252.283 61.2732 252.567 61.3608 252.903 61.3608C253.253 61.3608 253.546 61.2685 253.78 61.0838C254.017 60.8968 254.194 60.6458 254.313 60.331C254.434 60.0137 254.494 59.661 254.494 59.2727C254.494 58.8892 254.435 58.5436 254.316 58.2358C254.2 57.9257 254.024 57.6806 253.787 57.5007C253.553 57.3184 253.258 57.2273 252.903 57.2273C252.562 57.2273 252.276 57.3137 252.044 57.4865C251.812 57.657 251.636 57.8961 251.518 58.2038C251.4 58.5092 251.341 58.8655 251.341 59.2727Z" fill="#333333"></path><path d="M71 48H257" stroke="#005E8E" stroke-linecap="round"></path><rect width="50" height="64" rx="10" fill="#005E8E"></rect><path d="M22.3297 37.9047C21.4053 39.7528 20.5441 41.6492 20.1806 43.7223C19.9278 45.1445 19.7065 46.5668 19.509 47.997C19.3984 48.7925 19.3352 49.5961 19.3036 50.3915C19.2957 50.6567 19.4221 50.9299 19.5248 51.187C19.588 51.3558 19.7223 51.5004 19.8251 51.6531C20.1095 52.087 20.1016 52.3039 19.8013 52.7057C19.5722 53.011 19.2799 53.0753 18.8453 52.9146C18.1026 52.6334 17.6443 52.0709 17.352 51.3477C17.0359 50.5603 16.8779 49.7327 16.8068 48.897C16.6014 46.5909 16.7831 44.3008 17.0912 42.0107C17.3678 39.9698 17.7549 37.9529 18.2369 35.9521C18.8848 33.2201 19.6986 30.5364 20.6389 27.9008C21.8162 24.6144 23.2621 21.4565 24.9213 18.3951C25.4981 17.3344 26.2724 16.4184 27.0389 15.5023C27.2206 15.2854 27.4655 15.189 27.7421 15.197C28.5717 15.2372 29.4013 15.2693 30.223 15.3175C30.6655 15.3416 31.1159 15.3899 31.5584 15.4381C31.7717 15.4622 31.985 15.5265 32.2695 15.5907C32.143 15.8157 32.0561 15.9764 31.9613 16.1291C31.0053 17.7121 30.0492 19.295 29.1011 20.886C28.2872 22.252 27.6393 23.6983 27.0152 25.1527C26.3198 26.7517 25.5534 28.3267 24.8818 29.9337C24.2971 31.3479 23.7836 32.7943 23.2621 34.2406C23.1357 34.5861 23.0724 34.9638 23.0329 35.3334C23.0013 35.6307 23.1199 35.7111 23.4122 35.703C23.5307 35.695 23.6492 35.687 23.7599 35.6468C25.3559 35.0281 26.9835 34.4978 28.469 33.5978C31.2107 31.9425 33.2334 29.5882 34.782 26.7839C35.7934 24.9518 36.5203 23.0073 36.8838 20.9342C37.1208 19.6084 37.184 18.2826 36.9391 16.9487C36.5677 14.9238 35.3825 13.7507 33.4467 13.2766C31.7164 12.8587 29.9702 12.8668 28.224 13.0757C24.6369 13.4935 21.2315 14.5301 18.0631 16.3219C16.3959 17.2621 14.9421 18.4433 13.8991 20.1066C13.5831 20.6048 13.1643 21.0547 12.7377 21.4645C11.9792 22.1797 11.4577 22.0109 11.268 20.9904C10.9836 19.4959 10.9125 17.9853 11.1179 16.4746C11.3234 15.0122 12.0977 13.9355 13.354 13.2043C15.8982 11.7097 18.6241 10.7374 21.5317 10.3035C23.9021 9.94997 26.2803 9.94997 28.6665 10.0785C30.2784 10.1669 31.8902 10.3517 33.4704 10.7214C35.588 11.2035 37.6186 11.9186 39.3489 13.3168C40.1707 13.9837 40.8344 14.7792 41.3559 15.7113C41.8694 16.6273 42.0512 17.6076 41.9879 18.6441C41.8062 21.3842 41.0082 23.9394 39.665 26.3178C38.4166 28.5356 36.7494 30.4078 34.8611 32.0791C32.625 34.0558 30.1677 35.695 27.4655 36.9405C25.9643 37.6315 24.384 37.9128 22.7485 37.8886C22.6458 37.8886 22.5352 37.8806 22.4325 37.8806C22.4166 37.8806 22.4087 37.8886 22.3297 37.9047Z" fill="white"></path><path d="M194.179 15.4531C192.866 15.4531 191.624 15.5595 190.417 15.4176C189.92 15.3466 189.423 14.8498 189.104 14.4239C187.01 11.6204 184.987 8.78131 182.964 5.97776C182.716 5.65836 182.503 5.33897 181.971 5.09056C181.971 8.46192 181.971 11.8333 181.971 15.3466C180.693 15.3466 179.593 15.3466 178.422 15.3466C178.422 10.4137 178.422 5.5164 178.422 0.33515C179.806 0.33515 181.119 0.228699 182.432 0.370651C182.894 0.406139 183.355 1.04491 183.674 1.47077C185.626 4.13237 187.578 6.82946 189.494 9.49106C189.778 9.91692 190.133 10.2718 190.772 10.6267C190.772 7.25532 190.772 3.88397 190.772 0.370651C192.014 0.370651 193.079 0.370651 194.214 0.370651C194.179 5.37446 194.179 10.3073 194.179 15.4531Z" fill="#333333"></path><path d="M108.192 25.6735C108.192 30.4289 108.192 35.0423 108.192 39.6558C108.192 39.9397 108.121 40.2236 108.015 40.7559C106.773 40.7559 105.566 40.8624 104.359 40.7204C103.862 40.6494 103.366 40.1526 103.046 39.7268C100.846 36.7458 98.6812 33.6938 96.5165 30.6773C96.339 30.4289 96.1616 30.2514 95.7357 29.7191C95.7357 33.5163 95.7357 36.9942 95.7357 40.614C94.4936 40.614 93.4645 40.614 92.3289 40.614C92.3289 35.6101 92.3289 30.6773 92.3289 25.5315C93.6064 25.5315 94.8485 25.3896 96.0551 25.6025C96.6939 25.709 97.3327 26.3833 97.7585 26.9511C99.8523 29.7546 101.84 32.5937 103.898 35.3972C104.111 35.6811 104.324 35.9295 104.785 36.5328C104.785 32.7001 104.785 29.2578 104.785 25.6735C105.956 25.6735 107.021 25.6735 108.192 25.6735Z" fill="#333333"></path><path d="M164.831 15.8433C163.34 15.5949 162.063 15.5239 160.892 15.2045C157.627 14.2463 155.923 11.9751 155.675 8.42629C155.462 5.23236 157.023 2.42882 159.933 1.11576C162.914 -0.232786 166.002 -0.339255 169.089 0.689898C172.354 1.79003 173.845 4.13225 173.88 7.92947C173.916 10.9814 172.106 13.7495 169.231 14.7787C167.741 15.311 166.144 15.5239 164.831 15.8433ZM164.653 13.1462C168.06 13.1462 169.941 11.3008 170.012 8.00045C170.048 4.34518 168.344 2.53528 164.866 2.53528C161.459 2.53528 159.579 4.45163 159.614 7.96495C159.614 11.4073 161.317 13.1462 164.653 13.1462Z" fill="#333333"></path><path d="M147.69 6.26165C147.69 4.23884 147.69 2.35798 147.69 0.370649C148.932 0.370649 150.032 0.370649 151.238 0.370649C151.238 5.30349 151.238 10.2363 151.238 15.3111C150.138 15.3111 149.003 15.3111 147.654 15.3111C147.654 13.1463 147.654 11.1235 147.654 8.95874C144.673 8.95874 141.941 8.95874 138.995 8.95874C138.995 11.0525 138.995 13.1108 138.995 15.3111C137.682 15.3111 136.546 15.3111 135.233 15.3111C135.233 10.3783 135.233 5.44543 135.233 0.406128C136.404 0.406128 137.505 0.406128 138.818 0.406128C138.818 2.28699 138.818 4.20335 138.818 6.26165C141.834 6.26165 144.638 6.26165 147.69 6.26165Z" fill="#333333"></path><path d="M244.43 25.6736C248.937 25.6736 253.266 25.6736 257.702 25.6736C257.738 26.3478 257.773 26.9156 257.809 27.7319C254.65 27.7319 251.527 27.7319 248.262 27.7319C248.262 29.1159 248.262 30.216 248.262 31.6001C251.243 31.6001 254.224 31.6001 257.312 31.6001C257.312 32.4518 257.312 33.0905 257.312 33.9423C254.331 33.9423 251.35 33.9423 248.227 33.9423C248.227 35.4682 248.227 36.7813 248.227 38.3073C251.421 38.3073 254.508 38.3073 257.702 38.3073C257.702 39.1945 257.702 39.8688 257.702 40.6495C253.266 40.6495 248.901 40.6495 244.43 40.6495C244.43 35.6812 244.43 30.7483 244.43 25.6736Z" fill="#333333"></path><path d="M212.277 25.6736C213.626 25.6736 214.726 25.6736 215.968 25.6736C215.968 29.2578 216.11 32.7357 215.932 36.2135C215.826 38.1299 214.407 39.3719 212.668 40.0462C209.403 41.3238 206.067 41.2883 202.802 40.1172C200.921 39.4429 199.785 37.9524 199.75 35.9651C199.643 32.5937 199.714 29.2578 199.714 25.709C200.957 25.709 202.092 25.709 203.405 25.709C203.441 26.3123 203.512 26.9511 203.512 27.5899C203.512 30.2515 203.476 32.9131 203.512 35.5747C203.547 37.2426 204.257 38.1299 205.889 38.3428C206.99 38.4847 208.125 38.5202 209.225 38.4137C211.39 38.2008 212.242 37.2426 212.277 35.0424C212.313 32.6292 212.277 30.1805 212.277 27.7673C212.277 27.1285 212.277 26.4898 212.277 25.6736Z" fill="#333333"></path><path d="M74.7617 10.2718C74.7617 12.0817 74.7617 13.6431 74.7617 15.3466C73.4132 15.3466 72.2776 15.3466 71 15.3466C71 10.4137 71 5.48091 71 0.299653C74.9037 0.441606 78.7009 -0.161691 82.4626 0.831974C82.6401 0.867462 82.782 0.973926 82.9595 1.00941C84.7694 1.68369 86.2599 2.71284 86.3663 4.84212C86.4728 6.9714 85.0888 8.1425 83.3853 9.0297C81.398 10.0589 79.1977 10.1298 76.9975 10.2363C76.3232 10.3073 75.6134 10.2718 74.7617 10.2718ZM74.7972 8.00056C76.7846 7.78763 78.6654 7.71665 80.4753 7.39726C81.8593 7.14885 82.4981 6.22616 82.4626 5.09054C82.4271 3.74199 81.4335 3.17418 80.4398 2.99674C78.6299 2.67734 76.7491 2.64187 74.7972 2.49992C74.7972 4.38078 74.7972 5.94226 74.7972 8.00056Z" fill="#333333"></path><path d="M127.993 25.7445C127.993 26.6317 127.993 27.2705 127.993 28.1222C127.177 28.0512 126.432 27.9092 125.687 27.9447C123.628 27.9447 121.57 27.9092 119.547 28.1222C118.944 28.1931 118.376 28.9384 117.808 29.3643C118.305 29.8611 118.731 30.6063 119.37 30.8193C121.428 31.5645 123.557 32.0613 125.616 32.7356C126.503 33.0195 127.39 33.4454 128.135 33.9777C129.945 35.2553 130.087 37.3845 128.384 38.7686C127.425 39.5493 126.148 40.1526 124.941 40.4365C121.286 41.2882 117.56 41.0398 113.727 40.3655C113.727 39.5848 113.727 38.8396 113.727 37.9169C114.295 37.9879 114.827 38.0588 115.395 38.0943C117.986 38.2008 120.576 38.2718 123.167 38.3072C123.557 38.3072 124.054 38.2008 124.338 37.9524C124.799 37.5975 125.403 37.1007 125.474 36.6038C125.545 36.2489 124.906 35.5747 124.409 35.3972C122.812 34.7939 121.144 34.3681 119.512 33.8358C118.447 33.4809 117.347 33.2324 116.353 32.7356C115.04 32.1323 113.834 31.2806 113.869 29.6127C113.904 27.9802 115.005 27.0575 116.318 26.4187C118.376 25.4251 120.647 25.2476 122.883 25.2831C124.586 25.3186 126.219 25.567 127.993 25.7445Z" fill="#333333"></path><path d="M80.7243 27.8383C80.7243 31.5646 80.7243 34.865 80.7243 38.3428C82.4277 38.3428 83.9892 38.3428 85.6571 38.3428C85.6571 39.1945 85.6571 39.7978 85.6571 40.614C81.0792 40.614 76.5012 40.614 71.7103 40.614C71.6748 39.9752 71.6039 39.3364 71.5684 38.4137C73.3428 38.4137 74.9397 38.4137 76.6786 38.4137C76.6786 34.8295 76.6786 31.4936 76.6786 27.8738C75.0817 27.8738 73.4492 27.8738 71.7103 27.8738C71.7103 27.0221 71.7103 26.4188 71.7103 25.6736C76.3592 25.6736 80.9372 25.6736 85.6571 25.6736C85.6926 26.0284 85.7636 26.3478 85.7991 26.7027C85.7991 26.9866 85.7636 27.2705 85.6926 27.8383C83.9892 27.8383 82.3922 27.8383 80.7243 27.8383Z" fill="#333333"></path><path d="M157.662 27.8738C157.697 26.8801 157.732 26.3123 157.768 25.638C162.452 25.638 167.03 25.638 171.715 25.638C171.786 26.0284 171.857 26.3833 171.857 26.7027C171.857 26.9866 171.786 27.2705 171.75 27.7673C170.118 27.7673 168.556 27.7673 166.853 27.7673C166.853 31.3516 166.853 34.7585 166.853 38.3073C168.521 38.3073 170.082 38.3073 171.786 38.3073C171.786 39.159 171.786 39.8333 171.786 40.6495C167.137 40.6495 162.559 40.6495 157.839 40.6495C157.839 39.8688 157.839 39.23 157.839 38.3428C159.507 38.3428 161.068 38.3428 162.772 38.3428C162.772 34.8294 162.772 31.4581 162.772 27.8383C161.104 27.8738 159.507 27.8738 157.662 27.8738Z" fill="#333333"></path><path d="M102.016 15.382C100.738 15.382 99.7093 15.382 98.3607 15.382C98.3607 14.1754 98.2897 12.9688 98.3962 11.7622C98.4672 10.6266 98.1123 9.7394 97.3671 8.88769C95.3088 6.61646 93.3214 4.27425 91.2986 1.96752C90.9437 1.54167 90.5888 1.08031 90.1275 0.441521C92.5762 0.122129 94.5635 -0.161758 96.0895 2.14496C97.2961 3.99034 98.893 5.58729 100.384 7.36169C101.981 5.44533 103.542 3.67095 104.962 1.79008C105.813 0.618978 106.771 0.0511525 108.226 0.264081C108.865 0.335057 109.504 0.264081 110.462 0.264081C110.001 0.902865 109.752 1.29325 109.468 1.61264C107.339 4.06132 105.245 6.54546 103.045 8.95865C102.264 9.81036 101.945 10.6976 102.016 11.8332C102.087 12.9333 102.016 14.0335 102.016 15.382Z" fill="#333333"></path><path d="M194.782 25.6736C194.782 26.3833 194.782 26.9511 194.782 27.8028C192.688 27.8028 190.594 27.8028 188.252 27.8028C188.252 32.2388 188.252 36.3909 188.252 40.6495C186.903 40.6495 185.803 40.6495 184.455 40.6495C184.455 36.4974 184.455 32.3453 184.455 27.9803C182.183 27.9803 180.125 27.9803 177.96 27.9803C177.96 27.0931 177.96 26.4543 177.96 25.6736C183.532 25.6736 189.068 25.6736 194.782 25.6736Z" fill="#333333"></path><path d="M141.409 27.8738C139.102 27.8738 137.008 27.8738 134.808 27.8738C134.808 27.0221 134.808 26.3833 134.808 25.6736C140.415 25.6736 145.987 25.6736 151.665 25.6736C151.736 26.0284 151.807 26.3833 151.807 26.7027C151.807 26.9866 151.736 27.2705 151.665 27.8383C149.571 27.8383 147.477 27.8383 145.241 27.8383C145.241 32.2388 145.241 36.3554 145.241 40.614C143.928 40.614 142.793 40.614 141.409 40.614C141.409 36.4264 141.409 32.2743 141.409 27.8738Z" fill="#333333"></path><path d="M227.609 27.9448C225.267 27.9448 223.173 27.9448 220.937 27.9448C220.937 27.0931 220.937 26.4898 220.937 25.7091C226.509 25.7091 232.08 25.7091 237.794 25.7091C237.794 26.3479 237.794 27.0221 237.794 27.9093C235.665 27.9093 233.571 27.9093 231.299 27.9093C231.299 32.2389 231.299 36.32 231.299 40.6141C230.022 40.6141 228.957 40.6141 227.609 40.6141C227.609 36.4974 227.609 32.3453 227.609 27.9448Z" fill="#333333"></path><path d="M119.69 15.3111C119.69 11.0525 119.69 6.97141 119.69 2.64187C117.418 2.64187 115.289 2.64187 113.053 2.64187C113.053 1.75467 113.053 1.1159 113.053 0.370649C118.66 0.370649 124.232 0.370649 129.981 0.370649C129.981 1.04492 129.981 1.71919 129.981 2.60639C127.852 2.60639 125.758 2.60639 123.451 2.60639C123.451 6.93593 123.451 11.0525 123.451 15.2756C122.103 15.3111 121.038 15.3111 119.69 15.3111Z" fill="#333333"></path></svg> 