<?xml version="1.0" encoding="UTF-8"?> <svg xmlns="http://www.w3.org/2000/svg" width="48" height="48" viewBox="0 0 48 48" fill="none"><path opacity="0.5" d="M23.2122 26.4431C23.7153 26.2275 24.2847 26.2275 24.7878 26.4431L42.8553 34.1863C43.6634 34.5327 43.6634 35.6783 42.8553 36.0246L25.1818 43.599C24.4271 43.9224 23.5729 43.9224 22.8182 43.599L5.14467 36.0246C4.33657 35.6783 4.33656 34.5327 5.14467 34.1863L23.2122 26.4431Z" fill="url(#paint0_linear_136_18473)"></path><path d="M23.2122 19.072C23.7153 18.8564 24.2847 18.8564 24.7878 19.072L42.8553 26.8152C43.6634 27.1616 43.6634 28.3072 42.8553 28.6535L25.1818 36.2279C24.4271 36.5513 23.5729 36.5513 22.8182 36.2279L5.14467 28.6535C4.33657 28.3072 4.33656 27.1616 5.14467 26.8152L23.2122 19.072Z" fill="url(#paint1_linear_136_18473)"></path><path d="M22.449 5.08553C22.741 4.4928 23.4414 4.20938 24.0493 4.46837L42.7822 12.4498C43.4163 12.72 43.6945 13.4696 43.3631 14.0739C37.8121 24.1936 28.0248 28.0052 24.9512 28.9863C24.3363 29.1826 23.6793 29.1265 23.0855 28.8735L5.15729 21.2349C4.45522 20.9358 4.5054 19.8485 5.2198 19.5801C9.33869 18.0331 18.1367 13.8393 22.449 5.08553Z" fill="url(#paint2_linear_136_18473)"></path><defs><linearGradient id="paint0_linear_136_18473" x1="45" y1="35.0522" x2="3" y2="35.0522" gradientUnits="userSpaceOnUse"><stop stop-color="#F71C2C"></stop><stop offset="1" stop-color="#FB7D80"></stop></linearGradient><linearGradient id="paint1_linear_136_18473" x1="45" y1="27.6811" x2="3" y2="27.6811" gradientUnits="userSpaceOnUse"><stop stop-color="#F71C2C"></stop><stop offset="1" stop-color="#FB7D80"></stop></linearGradient><linearGradient id="paint2_linear_136_18473" x1="43.95" y1="16.5568" x2="3" y2="16.5568" gradientUnits="userSpaceOnUse"><stop stop-color="#A21016"></stop><stop offset="1" stop-color="#E31B23"></stop></linearGradient></defs></svg> 