<?xml version="1.0" encoding="UTF-8"?> <svg xmlns="http://www.w3.org/2000/svg" width="106" height="16" viewBox="0 0 106 16" fill="none"><g clip-path="url(#clip0_306_31974)"><path d="M7.39305 12.7251H-0.0078125L3.1359 -0.000976562H6.48468L4.02648 9.92219H8.09467L7.39221 12.726L7.39305 12.7251Z" fill="white"></path><path d="M11.3253 12.7251H7.97656L11.1203 -0.000976562H14.4699L11.3262 12.7251H11.3253Z" fill="white"></path><path d="M15.7436 12.7251H12.7109L15.8547 -0.000976562H19.461L19.7263 7.66546L21.6193 -0.000976562H24.6596L21.4989 12.7251H17.9527L17.6358 5.09251L15.7428 12.7251H15.7436Z" fill="white"></path><path d="M26.2559 12.7251H22.9062L26.05 -0.000976562H29.3996L28.1658 4.97329L31.7629 -0.000976562H35.2922L30.7266 5.58038L32.628 12.726H28.8852L27.9769 8.19645L27.1117 9.25591L26.255 12.726L26.2559 12.7251Z" fill="white"></path><path d="M37.0615 12.7251H33.6094L39.957 -0.000976562H43.7599L43.8201 12.7251H40.3595L40.5391 10.5885H37.9614L37.0615 12.7251ZM39.0062 7.9986H40.762L41.1475 2.87045L39.0062 7.9986Z" fill="white"></path><path d="M53.1766 6.23715C53.1648 6.36821 53.1309 6.52548 53.0741 6.70811H50.1761L50.2447 6.33946C50.2676 6.26505 50.2905 6.15683 50.3134 6.01393C50.3473 5.75097 50.3651 5.56834 50.3651 5.46603C50.3651 5.42629 50.3532 5.34342 50.3312 5.21744C50.2964 5.0923 50.2295 4.99084 50.1295 4.91305C50.0295 4.83611 49.9109 4.79721 49.7736 4.79721C49.6363 4.79721 49.4965 4.84541 49.3364 4.94264C49.0737 5.09061 48.8559 5.35695 48.6847 5.74167C48.5136 6.12639 48.2848 6.87891 47.9992 8.00009C47.8509 8.58688 47.7552 9.02318 47.712 9.31151C47.6688 9.59899 47.6476 9.91353 47.6476 10.2551C47.6645 10.4149 47.7332 10.5485 47.8535 10.6567C47.973 10.765 48.1102 10.8191 48.2653 10.8191C48.4305 10.8191 48.5712 10.7819 48.6856 10.7083C49.0805 10.5088 49.3711 10.0387 49.5601 9.29798L49.6889 8.78474L49.7228 8.64776H52.6038C52.5411 8.95554 52.4691 9.22864 52.3894 9.46793C52.0522 10.4766 51.5904 11.2469 51.0048 11.7796C50.4193 12.3123 49.6804 12.6446 48.7881 12.7757C48.3026 12.8441 47.845 12.878 47.4162 12.878C46.4214 12.878 45.6842 12.6632 45.2046 12.2328C44.7242 11.8024 44.4844 11.126 44.4844 10.2027C44.4844 9.59899 44.5903 8.8583 44.8013 7.98064C45.036 7.08607 45.2945 6.33523 45.5775 5.72814C45.8605 5.12105 46.185 4.6095 46.5502 4.1935C46.9155 3.7775 47.3205 3.46042 47.7637 3.24059C48.2068 3.02159 48.6992 2.88039 49.2432 2.81782C49.7745 2.76117 50.2092 2.73242 50.5464 2.73242C51.5234 2.73242 52.2284 2.91675 52.6597 3.28455C53.091 3.65236 53.3071 4.24001 53.3071 5.04495C53.3071 5.29016 53.2639 5.68756 53.1783 6.23546L53.1766 6.23715Z" fill="white"></path><path d="M57.0266 5.67439C57.0096 5.68538 56.9859 5.74119 56.9579 5.84096C56.9291 5.94073 56.9063 6.02444 56.8893 6.09293H53.9939C54.1193 5.49429 54.3523 4.97006 54.6921 4.52024C55.0319 4.07042 55.47 3.70515 56.0072 3.42612C56.5436 3.14709 57.141 2.97883 57.7977 2.92218C58.1798 2.88836 58.5315 2.87061 58.851 2.87061C59.85 2.87061 60.577 3.02703 61.0304 3.34072C61.4846 3.65441 61.7116 4.1389 61.7116 4.79419C61.7116 5.11296 61.66 5.47484 61.5574 5.87985L60.2042 11.2904L60.1525 11.5212L60.1186 11.7774C60.0957 12.0226 60.0847 12.3389 60.0847 12.7261H57.1122L57.0952 12.5891V12.3583L57.1291 12.1106L57.1723 11.8375L57.1893 11.6751C57.0698 11.8578 56.9156 12.0201 56.7266 12.1622C56.2699 12.5503 55.7386 12.7828 55.1336 12.8631C54.8819 12.9028 54.6768 12.9231 54.5167 12.9231C53.8879 12.9231 53.4185 12.7523 53.1075 12.4107C52.7965 12.0691 52.6406 11.539 52.6406 10.8211C52.6576 10.5819 52.7067 10.3079 52.7864 10.001C52.9347 9.45392 53.1016 9.01931 53.2872 8.69801C53.4727 8.37586 53.7108 8.10698 54.0023 7.89053C54.2938 7.67407 54.6989 7.47199 55.2191 7.28344C55.3157 7.24962 55.4064 7.21918 55.4886 7.19381C55.5717 7.16844 55.6471 7.14646 55.7157 7.12955L57.6257 6.66789C57.957 6.59433 58.1942 6.48864 58.3366 6.35166C58.479 6.21468 58.5823 6.0126 58.645 5.74457C58.6789 5.60252 58.6967 5.47992 58.6967 5.37676C58.6967 5.0005 58.434 4.81279 57.9087 4.81279C57.4977 4.84661 57.2037 5.13494 57.0266 5.67608V5.67439ZM58.0798 8.03342L56.9232 8.48663C56.8944 8.50354 56.8698 8.51791 56.8503 8.52975C56.83 8.54074 56.8063 8.55258 56.7775 8.56357C56.486 8.72338 56.2792 8.8798 56.1563 9.03369C56.0335 9.18757 55.9377 9.40995 55.8699 9.69997C55.836 9.80228 55.8182 9.91389 55.8182 10.0331C55.8182 10.2555 55.8759 10.4364 55.9894 10.5759C56.1038 10.7155 56.2631 10.7856 56.469 10.7856C56.5834 10.7856 56.669 10.7738 56.7258 10.7518C57.2223 10.6038 57.585 10.0652 57.8138 9.136L58.079 8.03342H58.0798Z" fill="white"></path><path d="M64.4009 3.37523C64.8916 3.05055 65.3288 2.88821 65.711 2.88821C66.0931 2.88821 66.3906 2.97107 66.6532 3.13595C66.9159 3.30167 67.3557 3.61452 67.9726 4.07618L68.992 -0.000976562H72.1526L68.992 12.7251H65.9601L66.2253 11.6564C66.1507 11.7874 66.0677 11.899 65.977 11.9895C65.5262 12.4909 64.989 12.8012 64.3671 12.9213C64.1383 12.9551 63.9213 12.9729 63.7163 12.9729C63.0655 12.9729 62.5656 12.7589 62.2173 12.332C61.869 11.905 61.6953 11.2717 61.6953 10.4346C61.6953 9.92726 61.7775 9.27789 61.9436 8.48563C62.1207 7.65954 62.2961 6.96705 62.4707 6.409C62.6444 5.85095 62.8257 5.38168 63.0147 5.00288C63.2028 4.62408 63.407 4.30616 63.6265 4.04997C63.8468 3.79377 64.1052 3.56886 64.4018 3.37439L64.4009 3.37523ZM64.9746 9.95601C65.0492 10.3382 65.2203 10.5369 65.489 10.5546C65.5627 10.5546 65.6915 10.5259 65.8745 10.4692C66.0855 10.372 66.2702 10.1733 66.427 9.87061C66.5838 9.56875 66.7736 9.01578 66.9964 8.21252C67.0481 8.00706 67.1159 7.69928 67.2015 7.2892C67.2871 6.87912 67.3413 6.60263 67.3642 6.45973C67.3871 6.28302 67.3981 6.10123 67.3981 5.91267C67.3981 5.78754 67.3862 5.69622 67.3642 5.63957C67.2845 5.39436 67.0905 5.27176 66.782 5.27176C66.6168 5.27176 66.4651 5.31742 66.3278 5.40874C66.1567 5.52796 66.0177 5.67508 65.9126 5.84841C65.8067 6.02259 65.7059 6.30585 65.6084 6.69902L65.0432 9.01493C64.9975 9.32862 64.9746 9.64231 64.9746 9.95516V9.95601Z" fill="white"></path><path d="M79.4353 6.49429C79.3667 6.86464 79.287 7.23329 79.1955 7.60109C79.104 7.96806 79.0354 8.24624 78.9905 8.43394H74.3647L73.9792 9.95505C73.9563 10.1089 73.9453 10.2966 73.9453 10.519C73.9851 10.8327 74.1825 10.9891 74.5359 10.9891C74.6104 10.9891 74.7274 10.9663 74.8875 10.9207C75.2985 10.7786 75.5722 10.3939 75.7095 9.7665L75.8035 9.38178H78.7507C78.7049 9.57541 78.6049 9.86627 78.4507 10.2535C77.7253 11.8262 76.5806 12.6895 75.0155 12.8434C74.3986 12.895 74.0215 12.9203 73.8851 12.9203C73.1996 12.9203 72.6386 12.8273 72.2022 12.643C71.7658 12.4587 71.443 12.1729 71.2345 11.7882C71.0261 11.4035 70.9219 10.9088 70.9219 10.3051C70.9219 9.616 71.0507 8.76962 71.3074 7.76682C71.576 6.75303 71.9141 5.89819 72.3226 5.20232C72.731 4.50729 73.1962 3.98053 73.719 3.62118C74.2418 3.26182 74.8257 3.0403 75.4705 2.95405C75.973 2.8974 76.3865 2.86865 76.7127 2.86865C77.6948 2.86865 78.4143 3.06482 78.871 3.45799C79.3277 3.85116 79.5557 4.46671 79.5557 5.30378C79.5557 5.58873 79.5158 5.98444 79.4362 6.49176L79.4353 6.49429ZM74.7664 6.69976H76.5051L76.5738 6.40889C76.6763 5.94723 76.728 5.63692 76.728 5.47712C76.728 5.0552 76.4594 4.84466 75.923 4.84466C75.4315 4.94697 75.0697 5.47458 74.835 6.42581L74.7664 6.69891V6.69976Z" fill="white"></path><path d="M82.0975 12.7251H78.9453L81.3095 3.18666H84.3328L84.0676 4.22074C84.1363 4.12942 84.2244 4.03557 84.3328 3.93918C84.7379 3.56292 85.1412 3.29404 85.5403 3.1317C85.9403 2.96935 86.3767 2.88818 86.8512 2.88818C86.9944 2.88818 87.1054 2.8941 87.1851 2.90509C87.6537 2.97358 87.9884 3.08857 88.1917 3.25092C88.3943 3.41326 88.5502 3.69398 88.6586 4.09307C88.6874 4.21821 88.7069 4.30107 88.7188 4.34081C88.8789 4.14718 88.9705 4.04149 88.9933 4.02458C89.3128 3.68806 89.6314 3.44032 89.9483 3.28051C90.2652 3.12155 90.6321 3.0074 91.049 2.93892H91.9227C92.4192 3.02431 92.7836 3.18243 93.0149 3.41326C93.2463 3.64409 93.3615 3.97046 93.3615 4.39154C93.3615 4.65957 93.3157 4.99863 93.2242 5.40871L91.4168 12.7251H88.2561L89.8577 6.26355C89.8915 6.12657 89.9093 6.00397 89.9093 5.89574C89.8924 5.63363 89.8153 5.47128 89.678 5.40871C89.5865 5.36306 89.5035 5.34023 89.4297 5.34023C89.2526 5.34023 89.0442 5.42562 88.8044 5.59642C88.5875 5.77314 88.4273 6.00651 88.3248 6.29737C88.3078 6.34303 88.2951 6.37685 88.2866 6.39968C88.2782 6.42251 88.2739 6.4428 88.2739 6.45971L86.7148 12.7251H83.5541L85.1904 6.16124C85.2243 6.00735 85.2421 5.88475 85.2421 5.79428C85.2361 5.66914 85.1836 5.55922 85.0836 5.46537C84.9836 5.37151 84.8684 5.32416 84.737 5.32416C84.6972 5.32416 84.6311 5.336 84.5405 5.35798C84.3235 5.41463 84.1176 5.56598 83.9236 5.81119C83.8151 5.97691 83.7355 6.15025 83.6838 6.33288L82.0992 12.7259L82.0975 12.7251Z" fill="white"></path><path d="M93.0703 15.9821L91.6484 15.8967L92.1704 13.7769H92.7873C93.0728 13.7769 93.2754 13.7541 93.3957 13.7085C93.8406 13.5207 94.0812 13.3094 94.1151 13.076L94.1583 12.7429L93.927 3.1875H97.2249L96.6428 9.43514L99.1179 3.1875H102.296L97.3444 13.0591C96.9733 13.7998 96.6123 14.3823 96.2606 14.8068C95.9098 15.2313 95.5243 15.5365 95.104 15.7217C94.6845 15.9068 94.1744 15.999 93.5753 15.999C93.3525 15.999 93.1839 15.9931 93.0695 15.9821H93.0703Z" fill="white"></path><path d="M104.089 3.18701V3.43306H103.611V4.67515H103.316V3.43306H102.844V3.18701H104.089ZM105.7 4.67515L105.645 3.80002C105.639 3.68503 105.639 3.54298 105.634 3.38402H105.618C105.58 3.51508 105.53 3.6901 105.492 3.82708L105.223 4.65316H104.916L104.648 3.8051C104.621 3.69602 104.577 3.51508 104.544 3.38402H104.527C104.527 3.521 104.522 3.66305 104.516 3.80002L104.461 4.67515H104.177L104.286 3.18701H104.73L104.988 3.91501C105.027 4.03001 105.048 4.13908 105.086 4.29212H105.092C105.13 4.16106 105.163 4.02916 105.196 3.92601L105.454 3.18701H105.882L105.997 4.67515H105.701H105.7Z" fill="white"></path></g><defs><clipPath id="clip0_306_31974"><rect width="106" height="16" fill="white"></rect></clipPath></defs></svg> 