<?xml version="1.0" encoding="UTF-8"?> <svg xmlns="http://www.w3.org/2000/svg" width="189" height="42" viewBox="0 0 189 42" fill="none"><g clip-path="url(#clip0_129_17967)"><path d="M187.406 12.0091C187.298 12.3325 187.255 12.6128 187.147 12.8284C184.301 18.5851 181.455 24.3202 178.566 30.0553C177.984 31.198 177.272 32.2976 176.518 33.3325C175.461 34.734 173.974 35.4239 172.227 35.4023C170.955 35.4023 169.662 35.3161 168.282 35.273C168.627 33.9147 168.928 32.7504 169.23 31.543C169.748 31.5214 170.157 31.5214 170.589 31.4783C172.378 31.2627 172.917 30.4865 172.874 28.8695C172.702 23.9537 172.615 19.0379 172.486 14.1221C172.464 13.4752 172.486 12.8284 172.486 12.0954C174.405 12.0954 176.302 12.0954 178.329 12.0954C178.005 15.7391 177.682 19.2966 177.359 22.8541C177.423 22.8756 177.488 22.8972 177.553 22.9188C177.79 22.3366 178.027 21.7545 178.264 21.1724C179.364 18.3695 180.485 15.5666 181.563 12.7637C181.735 12.3325 181.886 12.0091 182.447 12.0091C184.064 12.0307 185.659 12.0091 187.406 12.0091ZM171.257 14.9198C171.559 13.1303 170.869 12.0954 169.101 11.6857C167.355 11.2761 165.759 11.6857 164.336 12.7422C163.84 13.1087 163.387 13.5615 162.935 13.9711C162.848 13.8849 162.827 13.8633 162.805 13.8418C162.762 13.734 162.741 13.6477 162.697 13.5399C162.439 12.4403 161.727 11.8366 160.628 11.621C158.73 11.2329 157.07 11.7073 155.582 12.85C155.259 13.0871 154.957 13.3459 154.504 13.7124C154.591 13.0225 154.655 12.5697 154.742 12.0954C152.909 12.0954 151.163 12.0954 149.416 12.0954C147.993 17.8736 146.592 23.5656 145.169 29.3654C147.131 29.3654 148.942 29.3654 150.796 29.3654C151.033 28.4383 151.249 27.5759 151.464 26.7134C152.197 23.7596 152.909 20.7843 153.642 17.8305C153.836 17.0327 154.267 16.3859 155.043 16.0194C155.863 15.6313 156.596 16.1487 156.553 17.0327C156.553 17.2052 156.488 17.3777 156.445 17.5717C155.69 20.6333 154.936 23.6949 154.159 26.7565C153.944 27.5759 153.771 28.4167 153.534 29.3438C155.539 29.3438 157.35 29.3438 159.14 29.3438C159.248 29.0204 159.312 28.7832 159.377 28.5461C160.175 25.2689 160.973 21.9917 161.813 18.736C162.008 18.0245 162.288 17.313 162.719 16.7093C163.193 16.0194 164.034 15.7822 164.509 16.0194C165.026 16.2781 165.155 16.8387 164.897 17.852C164.164 20.8058 163.431 23.7596 162.719 26.735C162.503 27.5974 162.331 28.4598 162.115 29.4301C164.077 29.4516 165.932 29.4947 167.764 29.4085C168.691 25.6354 169.575 22.0132 170.459 18.391C170.761 17.2268 171.063 16.0841 171.257 14.9198ZM79.7108 6.1662C80.0989 6.1662 80.487 6.20932 80.9398 6.23088C80.9398 13.9496 80.9398 21.6036 80.9398 29.3869C78.9778 29.4085 77.0373 29.4085 74.9028 29.3654C74.9891 28.0502 75.0753 26.8644 75.1615 25.5276C74.6656 25.506 74.2129 25.4845 73.7601 25.4845C72.9408 25.4845 72.0999 25.5276 71.2806 25.4629C70.5907 25.4198 70.2242 25.7216 70.0086 26.3253C69.7283 27.1446 69.3833 27.9208 69.0599 28.7186C68.9305 29.042 68.7796 29.3869 68.3268 29.3654C66.4726 29.3654 64.6184 29.3654 62.6133 29.3654C63.6266 27.3171 64.5537 25.4198 65.4808 23.544C68.1544 18.1323 70.8279 12.7422 73.4583 7.33047C73.8895 6.44649 74.3854 6.03684 75.3987 6.12308C76.8217 6.25244 78.2663 6.1662 79.7108 6.1662ZM76.2396 11.9876C76.1533 11.966 76.0886 11.9229 76.0024 11.9013C74.7519 14.8336 73.5014 17.7442 72.3155 20.8058C73.5014 20.8058 74.4932 20.8058 75.5496 20.8058C75.7868 17.8305 76.024 14.9198 76.2396 11.9876ZM132.642 6.23088C130.723 14.0142 128.847 21.6683 126.95 29.3654C125.117 29.3654 123.393 29.3654 121.603 29.3654C121.646 28.891 121.689 28.4814 121.754 27.8777C121.409 28.2011 121.172 28.3952 120.935 28.5892C119.727 29.6457 118.326 30.0122 116.73 29.8182C115.221 29.6457 114.359 28.7401 113.971 27.3387C113.518 25.657 113.669 23.9537 114.035 22.3151C114.488 20.2884 115.049 18.2832 115.695 16.2997C116.364 14.2514 117.636 12.6344 119.706 11.772C120.827 11.2976 121.883 11.3839 122.875 12.0522C123.587 12.5266 124.277 13.0225 125.117 13.6262C125.764 11.1036 126.368 8.68879 126.993 6.23088C128.804 6.23088 130.594 6.23088 132.642 6.23088ZM123.5 15.9116C122.961 15.6529 122.379 15.696 122.013 16.1272C121.581 16.6231 121.15 17.1837 120.935 17.8089C120.525 19.0379 120.288 20.2884 119.986 21.5605C119.813 22.2935 119.684 23.0266 119.512 23.7596C119.533 23.7596 119.555 23.7596 119.576 23.7812C119.576 23.9321 119.576 24.0615 119.576 24.2124C119.598 24.7514 119.77 25.2257 120.288 25.4414C120.848 25.6785 121.387 25.4414 121.732 25.0317C122.077 24.6436 122.358 24.1477 122.552 23.6734C122.854 22.9403 123.112 22.1857 123.263 21.4311C123.565 20.0297 123.824 18.6282 124.061 17.2268C124.169 16.6878 124.018 16.1703 123.5 15.9116ZM113.582 14.9845C113.518 16.1272 113.281 17.2483 113.022 18.3695C112.397 21.0214 111.685 23.6518 111.06 26.3038C110.823 27.274 110.736 28.2658 110.564 29.3654C108.839 29.3654 107.157 29.3654 105.411 29.3654C105.368 28.8695 105.346 28.4167 105.303 27.8993C105.044 28.0717 104.829 28.2011 104.635 28.352C103.6 29.3007 102.349 29.6888 100.991 29.775C98.2313 29.9475 97.1318 28.6108 97.1964 25.9372C97.218 24.5789 97.7139 23.2637 98.4038 22.0563C98.8997 21.1939 99.5897 20.504 100.517 20.1375C101.789 19.6416 103.082 19.2535 104.376 18.8654C105.066 18.6498 105.778 18.542 106.467 18.3695C107.395 18.1539 107.955 17.5502 108.128 16.6015C108.214 16.0409 108.235 15.5235 107.718 15.1354C107.244 14.812 106.381 14.8551 105.907 15.2863C105.67 15.5019 105.476 15.7822 105.325 16.0409C105.109 16.4075 104.958 16.8171 104.764 17.2052C103.104 17.2052 101.465 17.2052 99.7406 17.2052C99.8915 15.9547 100.431 14.9845 101.185 14.1005C101.94 13.2165 102.867 12.5481 103.966 12.1385C106.317 11.2761 108.753 11.1898 111.168 11.772C112.936 12.2032 113.669 13.1734 113.582 14.9845ZM107.136 20.9783C105.928 21.1939 104.57 21.7761 103.923 22.3151C103.19 22.9403 102.91 23.7812 102.932 24.7083C102.975 25.7648 103.88 26.2607 104.85 25.7863C105.54 25.4629 105.95 24.8592 106.187 24.1908C106.554 23.1775 106.812 22.1426 107.136 20.9783ZM136.717 21.5389C136.458 22.811 135.919 23.9321 135.962 25.2257C135.984 26.0666 136.48 26.4547 137.321 26.3038C138.183 26.1529 138.701 25.6138 139.002 24.8161C139.153 24.3849 139.304 23.9321 139.455 23.4578C141.158 23.4578 142.84 23.4578 144.651 23.4578C143.854 26.1097 142.56 28.2011 139.951 29.1713C137.881 29.9475 135.725 29.9906 133.591 29.5594C131.844 29.2145 130.788 27.9208 130.615 26.0666C130.421 24.0615 130.766 22.121 131.284 20.2237C131.823 18.2401 132.556 16.3428 133.785 14.6611C134.863 13.1734 136.264 12.16 138.054 11.772C139.929 11.3839 141.827 11.2545 143.681 11.8582C144.953 12.2678 145.729 13.1087 146.01 14.4239C146.333 15.9763 146.074 17.5071 145.794 19.0163C145.643 19.8572 145.384 20.6765 145.147 21.5605C142.301 21.5389 139.585 21.5389 136.717 21.5389ZM137.536 18.3695C138.571 18.3695 139.563 18.3695 140.684 18.3695C140.813 17.7874 140.964 17.2915 141.051 16.7524C141.202 15.8685 140.986 15.3726 140.382 15.1138C139.714 14.8336 139.132 14.9845 138.571 15.6529C137.946 16.4075 137.644 17.313 137.536 18.3695ZM91.5044 23.5009C91.2242 24.1477 90.9223 24.8161 90.5127 25.3767C90.103 25.9157 89.4778 26.196 88.7878 25.9157C88.0979 25.6354 88.0332 25.0317 88.0763 24.3849C88.2704 21.6251 89.0681 19.0379 90.0383 16.4722C90.1677 16.1487 90.4049 15.8469 90.642 15.5882C91.0948 15.0923 91.6338 14.7473 92.3669 14.9845C92.9274 15.157 93.1431 15.7175 93.0784 16.6231C93.0568 16.9034 92.9706 17.1837 92.9274 17.4639C92.9059 17.7442 92.9274 18.003 92.9274 18.3264C94.6307 18.3264 96.2693 18.3264 97.9942 18.3264C98.2529 16.8387 98.5548 15.4588 98.2314 14.0574C97.9079 12.6559 97.0886 11.6641 95.6656 11.4917C94.2211 11.3192 92.7334 11.2761 91.2673 11.3407C88.5075 11.4917 86.5024 12.9362 85.101 15.2648C84.0229 17.0759 83.3977 19.0379 82.9018 21.0646C82.5137 22.6816 82.255 24.2986 82.4706 25.9588C82.7509 27.9855 83.9151 29.236 85.9203 29.5379C87.8607 29.8182 89.7796 29.7103 91.6769 29.1498C94.5876 28.2873 96.679 24.9886 96.8946 22.0995C95.256 22.0995 93.6174 22.0995 91.9357 22.0995C91.7632 22.6169 91.6985 23.0913 91.5044 23.5009Z" fill="#E31B23"></path><path d="M37.3677 19.6419C38.4673 15.1573 39.5669 10.6943 40.6665 6.18814C42.4991 6.18814 44.2455 6.18814 46.1644 6.18814C44.2671 13.9931 42.3482 21.6902 40.4509 29.4089C38.2733 29.4089 36.2034 29.4089 34.0043 29.4089C33.8102 24.9458 33.6377 20.5259 33.4437 16.106C33.379 16.106 33.3143 16.0844 33.2496 16.0844C32.1501 20.5259 31.0505 24.9458 29.9509 29.4089C28.1182 29.4089 26.3718 29.4089 24.4529 29.4089C26.3503 21.6255 28.2476 13.9499 30.1449 6.2097C32.3225 6.2097 34.457 6.2097 36.7209 6.2097C36.8718 10.6943 37.0443 15.1573 37.1952 19.6204C37.2599 19.6419 37.303 19.6419 37.3677 19.6419ZM60.416 28.3308C59.4457 24.644 58.4971 20.9787 57.4837 17.3134C57.2897 16.5803 57.419 16.1276 57.8718 15.5886C60.1788 12.8072 62.4642 9.9828 64.7496 7.15837C64.9868 6.87808 65.1809 6.55467 65.4827 6.14502C63.4345 6.14502 61.6018 6.16658 59.7692 6.14502C59.2733 6.14502 58.993 6.33906 58.7127 6.72716C58.0443 7.69738 57.3328 8.64605 56.6429 9.61627C55.3924 11.3627 54.1418 13.1091 52.8913 14.8339C52.8266 14.8124 52.7835 14.7908 52.7188 14.7692C53.4088 11.9448 54.0772 9.12038 54.7887 6.23126C52.6757 6.23126 50.7137 6.23126 48.7301 6.23126C46.8328 13.9715 44.957 21.6686 43.0381 29.4304C45.1295 29.4304 47.0915 29.4304 49.0535 29.4304C49.1398 29.1933 49.2476 28.9992 49.2907 28.7836C49.6788 27.1881 50.11 25.5927 50.455 23.9756C50.6921 22.8545 51.4899 22.1645 52.2445 21.1943C52.8266 24.0834 53.3657 26.7569 53.9047 29.4304C56.1901 29.4304 58.3462 29.4304 60.6316 29.4304C60.5453 29.0208 60.5022 28.6758 60.416 28.3308ZM8.62747 24.3421C10.1367 18.2189 11.5813 12.2467 13.0689 6.18814C11.0207 6.18814 9.05868 6.18814 6.98887 6.18814C5.1131 13.9068 3.21577 21.6255 1.29688 29.4089C5.88928 29.4089 10.3092 29.4089 14.7507 29.4089C15.1603 27.7487 15.5484 26.1532 16.0012 24.3421C13.5217 24.3421 11.1501 24.3421 8.62747 24.3421ZM15.8503 29.4089C17.9632 29.4089 19.9036 29.4089 21.9303 29.4089C23.8277 21.6686 25.7034 13.9931 27.6223 6.2097C25.5094 6.2097 23.5689 6.2097 21.5423 6.2097C19.6234 13.9499 17.7476 21.6686 15.8503 29.4089Z" fill="white"></path><path d="M155.453 1.61623C155.13 3.40576 154.806 5.06592 154.526 6.70453C154.44 7.1573 154.332 7.48071 153.642 7.28666C153.944 4.97968 154.483 2.69426 154.892 0.40884C155.561 0.0638704 155.906 0.322597 156.121 0.947854C156.617 2.26305 157.135 3.55668 157.652 4.85032C157.782 5.17373 157.911 5.49714 158.062 5.94991C158.407 4.16038 158.73 2.52178 159.01 0.861612C159.097 0.365718 159.312 0.171673 159.894 0.365718C159.463 2.6727 159.032 4.97968 158.601 7.22198C157.889 7.54539 157.652 7.24354 157.458 6.72609C156.876 5.17373 156.272 3.64293 155.69 2.11213C155.647 1.98276 155.582 1.87496 155.453 1.61623ZM168.087 7.35134C167.678 8.60186 167.009 9.01151 165.716 8.77434C165.543 8.75278 165.328 8.60186 165.198 8.66654C165.026 8.73122 164.918 8.94683 164.746 9.14087C166.966 10.0895 168.411 9.3996 168.928 7.22198C169.209 5.99303 169.424 4.76408 169.64 3.53512C169.705 3.19015 169.726 2.84518 169.769 2.54334C167.592 1.57311 165.436 2.71582 165.069 5.00124C164.94 5.79898 164.961 6.63985 165.759 7.11418C166.535 7.58851 167.268 7.35134 167.915 6.76921C167.958 6.72609 168.044 6.70453 168.26 6.59672C168.195 6.94169 168.152 7.1573 168.087 7.35134ZM168.432 5.19529C168.066 6.25176 167.225 6.85545 166.557 6.59672C165.867 6.31644 165.716 5.23841 166.212 4.2035C166.772 3.03923 167.678 2.65114 168.885 3.12547C168.734 3.81541 168.648 4.52691 168.432 5.19529ZM184.107 8.96839C184.215 8.45093 184.323 7.93348 184.452 7.39447C184.646 7.39447 184.797 7.3729 184.926 7.39447C186.824 7.84724 188.699 6.07927 188.441 3.64293C188.311 2.37085 187.255 1.81028 186.091 2.37085C185.789 2.52178 185.508 2.73738 185.357 2.82362C185.12 2.58646 184.969 2.43553 184.797 2.26305C184.668 2.43553 184.43 2.58646 184.409 2.7805C183.999 4.915 183.611 7.07106 183.201 9.27024C183.719 9.48584 184.021 9.46428 184.107 8.96839ZM185.228 4.05258C185.379 3.66449 185.767 3.29796 186.134 3.03923C186.694 2.6727 187.32 2.90987 187.514 3.53512C187.815 4.50535 187.449 5.34621 186.824 6.10083C186.285 6.76921 185.595 6.85545 184.538 6.53204C184.797 5.66962 184.926 4.82876 185.228 4.05258ZM161.167 0.79693C160.822 2.73738 160.433 4.67783 160.067 6.61829C160.024 6.85545 160.067 7.09262 160.067 7.28666C160.584 7.48071 160.8 7.24354 160.886 6.83389C160.972 6.38112 161.08 5.92835 161.145 5.45401C161.231 4.8072 161.49 4.3113 162.18 4.03102C162.611 5.00124 163.064 5.92835 163.474 6.87701C163.689 7.41603 164.013 7.45915 164.552 7.24354C163.969 5.92835 163.409 4.65627 162.848 3.34108C163.797 2.34929 164.724 1.3575 165.694 0.344158C165.047 0.128552 164.659 0.301037 164.271 0.732248C163.452 1.65935 162.59 2.54334 161.727 3.44888C161.684 3.42732 161.641 3.40576 161.576 3.3842C161.749 2.37085 161.921 1.37907 162.094 0.365718C161.533 0.171673 161.274 0.257916 161.167 0.79693ZM137.105 0.495082C136.76 2.28461 136.372 4.07414 136.07 5.86367C135.898 6.83389 136.372 7.35134 137.342 7.45915C139.433 7.65319 141.331 5.23841 140.641 3.25484C140.339 2.39241 139.584 1.98276 138.679 2.28461C138.291 2.41397 137.946 2.65114 137.515 2.88831C137.687 1.93964 137.838 1.0341 138.01 0.106992C137.536 -0.0870536 137.213 -0.0439325 137.105 0.495082ZM138.506 6.5536C138.14 6.72609 137.579 6.72609 137.213 6.5536C137.019 6.46736 136.954 5.86367 136.976 5.49714C137.062 4.72095 137.256 3.94477 137.86 3.36264C138.226 3.01767 138.679 2.71582 139.218 2.95299C139.735 3.19015 139.843 3.68605 139.822 4.39755C139.714 5.21685 139.412 6.10083 138.506 6.5536ZM178.027 4.13882C177.962 2.75894 176.97 1.98276 175.634 2.19837C173.887 2.50022 172.701 4.85032 173.499 6.42424C173.866 7.13574 174.469 7.45915 175.246 7.43759C176.863 7.43759 178.113 5.94991 178.027 4.13882ZM176.28 6.38112C175.914 6.74765 175.483 6.85545 174.987 6.70453C174.469 6.5536 174.254 6.12239 174.189 5.64806C174.06 4.82876 174.318 4.07414 174.836 3.44888C175.267 2.93143 175.871 2.73738 176.367 2.93143C176.841 3.10391 177.143 3.66449 177.143 4.48379C177.1 5.13061 176.841 5.82054 176.28 6.38112ZM141.417 3.23327C141.611 4.22506 141.719 5.21685 142.042 6.16551C142.409 7.28666 141.913 7.93348 141.094 8.51562C140.835 8.6881 140.576 8.83902 140.274 9.03307C140.382 9.24868 140.468 9.44272 140.555 9.63677C141.676 9.24868 142.193 8.86058 142.883 7.65319C143.724 6.16551 144.457 4.61315 145.233 3.08235C145.341 2.88831 145.406 2.65114 145.47 2.43553C144.867 2.15525 144.63 2.41397 144.436 2.88831C143.983 3.94477 143.487 4.97968 142.905 6.23019C142.775 5.75586 142.711 5.54026 142.668 5.30309C142.517 4.50535 142.366 3.68605 142.236 2.86675C142.15 2.34929 141.891 2.19837 141.352 2.43553C141.352 2.69426 141.374 2.95299 141.417 3.23327ZM182.361 2.80206C182.274 3.36264 182.21 3.94477 182.037 4.48379C181.843 5.08748 181.584 5.69118 181.261 6.23019C181.002 6.63985 180.528 6.85545 180.032 6.68297C179.471 6.48892 179.515 5.97147 179.558 5.49714C179.622 5.00124 179.709 4.50535 179.795 4.00946C179.881 3.492 179.989 2.97455 180.097 2.43553C179.622 2.24149 179.299 2.26305 179.213 2.73738C179.019 3.79385 178.76 4.85032 178.674 5.90679C178.566 7.20042 179.536 7.82568 180.722 7.28666C181.024 7.1573 181.304 6.94169 181.498 6.81233C181.692 7.02794 181.843 7.32978 181.994 7.32978C182.167 7.32978 182.447 7.09262 182.468 6.92013C182.749 5.45401 183.007 3.96633 183.266 2.41397C182.706 2.21993 182.425 2.32773 182.361 2.80206ZM147.023 7.37291C148.187 7.37291 149.222 7.37291 150.257 7.37291C150.667 7.37291 150.839 7.1573 150.71 6.61829C149.847 6.61829 148.985 6.61829 148.036 6.61829C148.424 4.44067 148.812 2.41397 149.2 0.322597C148.877 0.322597 148.661 0.322597 148.381 0.322597C147.928 2.62958 147.497 4.93656 147.023 7.37291ZM152.348 6.89857C152.736 4.72095 153.146 2.54334 153.556 0.322597C153.232 0.322597 153.017 0.322597 152.715 0.322597C152.284 2.62958 151.852 4.89344 151.4 7.28666C151.939 7.39447 152.262 7.41603 152.348 6.89857ZM171.451 2.30617C171.3 2.50022 171.041 2.6727 170.977 2.88831C170.739 4.11726 170.524 5.34621 170.33 6.57516C170.287 6.81233 170.308 7.0495 170.287 7.2651C170.783 7.43759 171.041 7.30822 171.106 6.83389C171.192 6.27332 171.3 5.71274 171.429 5.15217C171.667 4.2035 171.925 3.2764 173.068 2.97455C173.262 2.93143 173.348 2.54334 173.521 2.24149C172.68 2.069 172.292 2.52178 171.882 2.93143C171.753 2.71582 171.602 2.50022 171.451 2.30617Z" fill="white"></path><path d="M114.683 39.6064C114.941 38.2265 115.178 36.8251 115.437 35.3374C114.834 35.3374 114.273 35.3374 113.583 35.3374C113.303 36.7389 113.001 38.205 112.699 39.6927C112.44 39.6927 112.203 39.6927 111.88 39.6927C112.138 38.2481 112.397 36.8467 112.656 35.4237C112.44 35.2943 112.246 35.1649 112.031 35.014C112.138 34.8415 112.203 34.6475 112.289 34.6475C112.699 34.5828 112.871 34.3456 113.001 33.9576C113.605 32.2111 114.575 31.7368 116.472 32.2758C116.407 32.4699 116.364 32.6639 116.3 32.8364C114.424 32.6855 114.1 32.8795 113.777 34.4966C114.618 34.4966 115.459 34.4966 116.429 34.4966C116.364 35.014 116.321 35.3805 116.257 35.7686C116.062 36.8898 115.847 38.0325 115.631 39.1537C115.545 39.6711 115.286 39.9298 114.683 39.6064ZM29.0008 39.7789C31.2431 40.1886 33.2052 38.2697 32.8386 36.0058C32.6015 34.6044 31.4156 34.0654 30.1867 34.7984C29.9711 34.9278 29.777 35.1003 29.6692 35.1865C29.4321 34.9493 29.2811 34.6691 29.1087 34.6259C28.7421 34.5397 28.6774 34.8847 28.6343 35.1865C28.354 36.8035 28.0522 38.4422 27.7719 40.0592C27.6641 40.6413 27.5994 41.245 27.5132 41.8487C28.2894 41.8487 28.2893 41.8487 28.3972 41.4606C28.5265 40.9432 28.6128 40.4257 28.7421 39.8436C28.8499 39.7789 28.9362 39.7573 29.0008 39.7789ZM29.5183 36.3077C29.8848 35.4237 30.6826 35.0356 31.2863 35.2512C31.8684 35.4668 32.1271 36.2861 31.8037 37.2348C31.6528 37.6875 31.4156 38.1619 31.0922 38.5284C30.4885 39.2399 29.8633 39.3046 28.7852 38.8087C29.0224 37.9894 29.1733 37.127 29.5183 36.3077ZM126.951 32.2111C126.606 32.2111 126.368 32.2111 126.11 32.2111C125.722 34.1516 125.312 36.0489 124.989 37.9678C124.73 39.4555 125.614 40.1886 127.101 39.8436C128.805 39.4339 129.969 37.6444 129.689 35.898C129.495 34.7337 128.589 34.1947 127.468 34.6044C127.145 34.7337 126.864 34.9278 126.433 35.1649C126.627 34.13 126.778 33.1814 126.951 32.2111ZM127.533 38.938C127.101 39.2183 126.541 39.4124 126.153 39.0027C125.916 38.744 125.851 38.2265 125.894 37.8385C126.002 37.0407 126.196 36.2214 126.864 35.6177C127.274 35.2727 127.748 34.9925 128.223 35.2943C128.568 35.5099 128.719 35.9842 128.869 36.2214C128.719 37.4719 128.417 38.3775 127.533 38.938ZM100.948 39.822C102.501 39.4771 103.557 37.8169 103.406 36.1136C103.277 34.6906 102.156 34.0654 100.862 34.7337C100.582 34.8847 100.345 35.0787 100.151 35.2081C99.9783 34.9709 99.8705 34.6475 99.698 34.5828C99.2883 34.4534 99.2883 34.8415 99.2236 35.1218C99.1374 35.6177 99.0512 36.1136 98.9649 36.6095C98.6415 38.3344 98.3397 40.0376 97.9947 41.8056C98.3397 41.8056 98.5984 41.8056 98.8356 41.8056C98.9865 41.0725 99.1158 40.4257 99.2452 39.822C99.9136 39.822 100.453 39.9298 100.948 39.822ZM100.108 36.3077C100.237 35.9627 100.539 35.6393 100.862 35.4237C101.574 34.9278 102.307 35.2296 102.501 36.0705C102.716 37.0192 101.983 38.5931 101.121 39.0027C100.604 39.2399 100.086 39.2615 99.3746 38.8302C99.6117 37.9894 99.8058 37.127 100.108 36.3077ZM14.0163 37.7522C13.8869 38.6146 14.2103 39.3693 14.814 39.7142C15.5686 40.1239 16.1939 39.822 16.7976 39.3908C16.9054 39.3046 16.9916 39.1752 17.0994 39.089C17.1641 39.0243 17.2719 39.0027 17.3797 38.938C17.4228 39.1968 17.4659 39.4339 17.4875 39.6711C17.7678 39.6711 17.9834 39.6711 18.1559 39.6711C18.4146 37.9894 18.6733 36.3723 18.9321 34.7122C16.6035 33.9791 14.4043 35.1218 14.0163 37.7522ZM17.3581 37.666C17.1641 38.1403 16.8191 38.6146 16.4095 38.9165C15.8058 39.3908 15.0943 39.089 14.9434 38.3559C14.5553 36.6526 16.1076 35.014 17.9834 35.2943C17.7894 36.1136 17.66 36.9329 17.3581 37.666ZM124.083 37.2132C124.212 36.3723 124.385 35.553 124.536 34.7337C122.099 34.0438 120.288 35.0571 119.685 37.2994C119.404 38.399 119.663 39.283 120.375 39.6927C121.108 40.1239 121.884 39.8867 122.746 39.0027C122.811 38.938 122.897 38.8949 122.983 38.8302C123.027 39.1537 123.048 39.4124 123.091 39.7358C123.35 39.7142 123.566 39.6927 123.781 39.6927C123.867 38.8302 123.954 38.0109 124.083 37.2132ZM122.962 37.7307C122.789 38.1834 122.444 38.6146 122.078 38.8949C121.388 39.4339 120.633 39.0674 120.525 38.1834C120.31 36.5448 121.711 35.1218 123.609 35.2727C123.371 36.1567 123.242 36.976 122.962 37.7307ZM134.109 37.321C133.85 38.4422 134.109 39.3477 134.799 39.7358C135.381 40.0592 136.286 40.0161 137.17 39.0243C137.235 38.9596 137.321 38.938 137.407 38.8734C137.451 39.1752 137.472 39.4555 137.515 39.7789C137.774 39.7358 137.968 39.7142 138.119 39.6927C138.399 37.9894 138.658 36.3723 138.938 34.7553C136.631 33.9791 134.626 35.0787 134.109 37.321ZM137.494 37.4504C137.386 37.8169 137.17 38.1619 136.933 38.4637C136.48 39.0674 135.941 39.2615 135.467 39.0458C135.014 38.8518 134.82 38.2697 134.95 37.5582C135.251 35.9196 136.308 35.0787 137.99 35.2943C137.817 36.0705 137.709 36.782 137.494 37.4504ZM69.6425 34.4966C67.6158 34.5181 66.085 36.1352 66.1066 38.1619C66.1066 38.8518 66.3438 39.4124 66.969 39.7573C67.6374 40.1023 68.2195 39.8867 68.7585 39.4771C69.0173 39.3046 69.1898 39.0243 69.4701 38.744C69.5347 39.1321 69.5563 39.4339 69.621 39.7573C69.9013 39.7142 70.0953 39.6927 70.2462 39.6711C70.505 37.9894 70.7637 36.3723 71.044 34.6044C70.4834 34.5612 70.0737 34.4966 69.6425 34.4966ZM69.2329 38.205C68.7586 38.9596 68.1117 39.283 67.5727 39.0674C67.0553 38.8734 66.8612 38.1403 67.0984 37.2779C67.508 35.7686 68.6507 35.014 69.9875 35.359C69.9444 36.3508 69.7719 37.3426 69.2329 38.205ZM86.2873 34.5828C84.5625 34.8847 83.2904 36.782 83.5707 38.5284C83.7647 39.6927 84.7565 40.2532 85.7914 39.7142C86.1364 39.5417 86.3951 39.2183 86.6969 38.9812C86.7616 38.938 86.8479 38.9165 86.9557 38.8734C86.9988 39.1752 87.0204 39.4555 87.0419 39.7573C87.3006 39.7358 87.4516 39.7358 87.6456 39.7358C87.775 38.8734 87.8828 38.0541 88.0121 37.2563C88.1415 36.437 88.314 35.6393 88.508 34.5828C87.7103 34.5612 86.9772 34.4534 86.2873 34.5828ZM86.6969 38.1403C86.4598 38.5068 86.0933 38.8518 85.7052 39.0458C85.1446 39.3261 84.6487 39.0027 84.4978 38.399C84.0881 36.7173 85.662 35.0356 87.4516 35.2943C87.3653 36.3077 87.236 37.2779 86.6969 38.1403ZM24.6241 34.4966C22.5542 34.5612 20.9588 36.4155 21.2175 38.4853C21.3468 39.6495 22.3386 40.2317 23.3951 39.7142C23.8263 39.4986 24.1928 39.1321 24.5809 38.8518C24.6887 39.6711 24.6887 39.6711 25.2924 39.628C25.5512 38.0109 25.8314 36.3939 26.1117 34.6044C25.5512 34.5612 25.0768 34.475 24.6241 34.4966ZM24.6672 37.4504C24.4516 37.9894 24.085 38.5284 23.6323 38.8949C22.9639 39.4555 22.2093 39.0458 22.1446 38.1834C21.9937 36.4155 23.352 35.0571 25.2062 35.3159C25.0121 36.0921 24.9259 36.8035 24.6672 37.4504ZM2.3951 32.5777C1.61892 32.8148 1.07991 33.3107 0.928982 34.13C0.756497 34.9709 1.07991 35.5962 1.76984 36.0705C2.07169 36.2645 2.37354 36.437 2.67539 36.6526C3.25752 37.0623 3.47313 37.6013 3.32221 38.1187C3.14972 38.6793 2.63227 39.089 1.92077 39.089C1.468 39.089 1.01522 38.938 0.562452 38.8518C0.454649 38.8302 0.368407 38.8302 0.217483 38.8087C0.152801 39.0243 0.0881192 39.2183 0.0234375 39.4339C0.972103 40.0376 1.94233 40.0808 2.93412 39.6711C3.68874 39.3693 4.14151 38.8087 4.24931 37.9894C4.35711 37.1701 4.07683 36.5017 3.38689 36.0489C3.04192 35.8118 2.65383 35.5962 2.30886 35.3374C1.87765 35.0356 1.6836 34.5612 1.89921 34.1085C2.07169 33.7635 2.43822 33.397 2.78319 33.3107C3.19284 33.2029 3.68874 33.3539 4.14151 33.397C4.24931 33.397 4.33555 33.4185 4.46492 33.4401C4.55116 33.2461 4.6374 33.052 4.7452 32.7933C3.9259 32.4052 3.17128 32.319 2.3951 32.5777ZM58.3017 39.7573C59.6384 39.3261 60.5655 37.8385 60.393 36.3723C60.2421 35.0356 59.3797 34.3456 58.0429 34.4966C56.5984 34.6691 55.5204 36.0705 55.5419 37.7522C55.5419 39.3693 56.7924 40.2532 58.3017 39.7573ZM58.6466 38.7224C58.2801 39.089 57.8273 39.283 57.2883 39.1105C56.7278 38.938 56.5121 38.4853 56.4475 37.9678C56.3397 37.1916 56.5768 36.4801 57.0512 35.8549C57.5039 35.2512 58.1723 34.9925 58.7329 35.2512C59.3581 35.5315 59.4659 36.092 59.4875 36.6957C59.4444 37.4719 59.2072 38.1619 58.6466 38.7224ZM11.8386 39.6927C13.3048 39.1105 14.1672 37.1485 13.585 35.6608C13.3048 34.9062 12.7442 34.5397 11.9464 34.475C10.2647 34.3456 8.92796 35.704 8.88483 37.6013C8.84171 39.3693 10.2 40.3395 11.8386 39.6927ZM10.7175 35.5315C11.5799 34.7984 12.6364 35.1865 12.8089 36.2861C12.9382 37.1054 12.6795 37.8385 12.2052 38.5068C11.7524 39.1105 11.1703 39.3046 10.6312 39.1105C10.0707 38.8949 9.79038 38.4206 9.81194 37.6444C9.8335 36.8035 10.0707 36.0705 10.7175 35.5315ZM110.478 34.7122C109.637 34.3025 108.775 34.3888 108.042 34.9278C107.007 35.6608 106.554 36.7389 106.64 38.0109C106.748 39.4124 107.977 40.2101 109.336 39.8005C110.586 39.4339 111.448 38.2265 111.513 36.8035C111.513 35.9196 111.319 35.1218 110.478 34.7122ZM109.724 38.7656C109.336 39.1321 108.883 39.3046 108.344 39.1105C107.805 38.9165 107.589 38.4637 107.546 37.9463C107.481 37.1701 107.697 36.4586 108.171 35.8333C108.602 35.2727 109.228 35.0571 109.788 35.2512C110.284 35.4237 110.565 35.898 110.565 36.5879C110.565 37.4504 110.349 38.1834 109.724 38.7656ZM50.1733 34.4966C49.9793 34.6259 49.7421 34.7553 49.5696 34.9062C49.505 34.9709 49.505 35.1003 49.4834 35.2081C49.3109 36.2214 49.0306 37.2563 48.9659 38.2697C48.8581 39.6064 49.9146 40.2532 51.1004 39.6711C51.4238 39.5202 51.7041 39.3046 51.8982 39.1752C52.1138 39.3908 52.2863 39.5417 52.4588 39.7142C52.5881 39.5417 52.8037 39.3908 52.8684 39.1968C52.9978 38.744 53.0625 38.2912 53.1487 37.8385C53.3212 36.8035 53.4937 35.7471 53.6877 34.6906C52.8684 34.6691 52.8468 34.6691 52.7606 35.1434C52.6097 35.9196 52.5234 36.7173 52.2863 37.4504C52.1138 37.9678 51.7688 38.4853 51.3807 38.8518C51.1436 39.0674 50.6045 39.1105 50.3027 38.9812C50.0871 38.8949 49.9362 38.4206 49.9146 38.0972C49.8715 37.7091 50.0008 37.321 50.0655 36.9329C50.1949 36.1999 50.3243 35.4668 50.4536 34.7337C50.3458 34.6475 50.2596 34.5828 50.1733 34.4966ZM35.9218 37.321C37.0861 37.0838 37.6682 36.2645 37.3879 35.3806C37.1292 34.5828 36.159 34.2378 35.1025 34.6475C33.9598 35.1003 33.4208 36.0274 33.2052 37.1916C33.0327 38.0756 33.0758 38.938 33.8735 39.5202C34.7144 40.1454 35.6415 39.973 36.5255 39.5849C36.6549 39.5202 36.698 39.2399 36.8058 38.9812C34.4557 39.3046 34.1107 39.1105 34.046 37.5366C34.7144 37.4719 35.3397 37.4504 35.9218 37.321ZM35.8356 35.2081C36.0943 35.2296 36.4824 35.4668 36.5255 35.6824C36.5902 35.898 36.3746 36.3723 36.1805 36.437C35.5768 36.6526 34.93 36.7389 34.1969 36.8898C34.5204 35.6824 35.0809 35.1218 35.8356 35.2081ZM79.1292 37.321C80.2719 37.0838 80.854 36.2645 80.5522 35.3374C80.315 34.5828 79.3664 34.2378 78.3746 34.6044C77.1456 35.0571 76.5635 36.0705 76.3694 37.2994C76.2401 38.1403 76.3263 38.9812 77.0809 39.5202C77.9002 40.1023 78.7842 39.973 79.6466 39.6064C80.0132 39.4555 80.0132 39.2183 79.7976 38.938C77.7924 39.3693 77.2965 39.1105 77.2534 37.5582C77.8571 37.4935 78.5039 37.4504 79.1292 37.321ZM78.6549 35.2296C79.0861 35.1218 79.5604 35.1003 79.7329 35.6393C79.9054 36.1567 79.5604 36.4586 79.1076 36.5879C78.5686 36.7389 78.008 36.782 77.2319 36.9114C77.6199 35.9842 77.9218 35.4021 78.6549 35.2296ZM38.8325 34.5828C38.6815 34.7769 38.4228 34.9493 38.3797 35.1865C38.0994 36.437 37.8838 37.7091 37.6466 38.9812C37.6035 39.2183 37.6466 39.4555 37.6466 39.6927C38.4013 39.6495 38.4228 39.6495 38.5091 39.1537C38.66 38.4206 38.7247 37.6444 38.9618 36.9545C39.1559 36.4155 39.5224 35.8764 39.9536 35.4884C40.1692 35.2727 40.7298 35.2296 41.0101 35.359C41.2473 35.4668 41.3982 35.9411 41.3982 36.2645C41.3982 36.7604 41.2473 37.2563 41.1826 37.7522C41.0748 38.399 40.967 39.0458 40.8592 39.7142C40.9238 39.7573 41.0101 39.822 41.0748 39.8651C41.2904 39.7142 41.6569 39.5849 41.7 39.3908C41.9588 38.2697 42.2175 37.1485 42.3253 36.0274C42.4331 34.9709 41.6569 34.3241 40.6004 34.5828C40.1261 34.6906 39.7165 34.9925 39.2637 35.2081C39.1343 34.9709 38.9834 34.7769 38.8325 34.5828ZM96.9813 33.2892C97.391 33.2892 97.8869 33.3539 97.736 32.5561C96.2267 32.5561 94.739 32.5561 93.2298 32.5561C92.7986 32.5561 92.6692 32.7717 92.777 33.2461C93.4023 33.2892 94.0275 33.3107 94.7175 33.3539C94.3294 35.5099 93.9413 37.6013 93.5748 39.6711C94.4156 39.9298 94.4803 39.4771 94.5666 38.9812C94.9115 37.127 95.2565 35.2512 95.623 33.3107C96.1405 33.2892 96.5717 33.2892 96.9813 33.2892ZM64.5974 39.1105C63.6056 39.1752 63.1312 38.7009 63.1097 37.7307C63.0881 36.2861 64.123 35.2296 65.5891 35.2296C65.697 35.2296 65.8263 35.2943 65.9126 35.2512C66.0635 35.1865 66.2575 35.1003 66.2791 34.9709C66.3006 34.8631 66.1497 34.6691 66.0204 34.6044C65.9126 34.5397 65.7401 34.5397 65.6107 34.5181C63.8859 34.3456 62.3766 35.704 62.2041 37.515C62.1395 38.3128 62.2688 39.0458 62.9588 39.5202C63.7349 40.0592 64.5974 39.9945 65.4167 39.6495C65.546 39.5849 65.5891 39.3261 65.7616 38.9812C65.2226 39.0458 64.9208 39.1105 64.5974 39.1105ZM8.17334 39.0027C7.95773 39.0243 7.76368 39.0674 7.54808 39.089C6.14664 39.2399 5.54294 38.55 5.84479 37.1701C6.14664 35.8549 6.94438 35.2727 8.38894 35.2296C8.58299 35.2296 8.77703 35.0356 8.97108 34.9493C8.79859 34.7984 8.64767 34.6475 8.47518 34.5397C8.38894 34.4966 8.25958 34.5181 8.15177 34.5181C6.47005 34.4534 5.06861 35.704 4.87457 37.4504C4.78832 38.2697 4.89613 39.0458 5.65075 39.5633C6.40537 40.0808 7.22467 40.0161 8.02241 39.6927C8.1949 39.628 8.25958 39.3693 8.38894 39.1968C8.3027 39.1105 8.23802 39.0458 8.17334 39.0027ZM117.895 34.0222C117.83 34.3888 117.68 34.6044 117.291 34.6259C117.14 34.6259 116.968 34.7553 116.666 34.9062C117.184 35.2081 117.399 35.3374 117.636 35.4668C117.464 36.4586 117.27 37.3857 117.14 38.3559C117.097 38.6578 117.097 39.0027 117.184 39.283C117.356 39.8005 117.809 39.9298 118.305 39.9083C118.714 39.9083 118.887 39.6927 118.822 39.2615C118.563 39.0243 117.874 39.1968 117.981 38.55C118.154 37.4719 118.348 36.3939 118.542 35.359C119.706 35.2296 119.706 35.2296 119.728 34.6475C119.426 34.6044 119.124 34.5612 118.758 34.5181C118.779 34.1516 118.801 33.8497 118.822 33.5048C118.305 33.397 117.981 33.5479 117.895 34.0222ZM44.0717 34.0007C44.0286 34.1947 43.9208 34.4534 43.7914 34.5181C43.5327 34.6259 43.1446 34.5828 43.2308 34.9709C43.2739 35.1649 43.5974 35.3159 43.813 35.4884C43.6189 36.437 43.4249 37.3857 43.2739 38.3344C43.1446 39.1537 43.3386 39.5633 43.8776 39.7789C44.3735 39.9945 44.9341 39.8867 44.9988 39.5417C45.1282 38.938 44.5245 39.1537 44.3089 38.9596C44.2873 38.938 44.2657 38.8949 44.1148 38.7224C44.3089 37.666 44.5029 36.5017 44.6754 35.5099C45.1282 34.9925 45.9906 35.5962 46.0121 34.6691C45.6456 34.5828 45.3222 34.5181 44.9772 34.4319C44.9772 34.0869 44.9772 33.8066 44.9772 33.4617C44.4598 33.4401 44.1579 33.5263 44.0717 34.0007ZM132.988 39.1752C133.376 36.9114 133.828 34.6691 134.238 32.4268C134.238 32.3621 134.195 32.2974 134.152 32.1896C133.936 32.1896 133.699 32.1896 133.419 32.1896C132.944 34.6691 132.492 37.127 132.017 39.6495C132.621 39.8005 132.88 39.7358 132.988 39.1752ZM21.4331 32.2543C20.4844 31.9524 20.506 32.5561 20.3982 33.0304C19.9885 35.1865 19.6004 37.321 19.1908 39.4771C19.1908 39.5417 19.2123 39.6064 19.2339 39.6927C19.4711 39.6927 19.7082 39.6927 20.0101 39.6927C20.506 37.1916 20.9588 34.7122 21.4331 32.2543ZM90.2329 39.6711C90.5779 39.6711 90.8366 39.6711 91.0953 39.6711C91.5481 37.2994 91.9793 34.9925 92.4321 32.5992C92.1302 32.5777 91.893 32.5561 91.5696 32.5561C91.1169 34.9925 90.6857 37.2994 90.2329 39.6711ZM46.7452 39.1321C46.8314 38.4637 46.9824 37.7953 47.1549 37.127C47.3705 36.3077 47.7154 35.5746 48.6425 35.3159C49.0953 35.1865 49.1384 34.8847 48.9659 34.3241C48.3838 34.6475 47.9095 34.9278 47.4998 35.1434C47.3273 34.9493 47.1764 34.7553 47.0039 34.5828C46.8746 34.7553 46.659 34.9062 46.5943 35.1003C46.4649 35.6177 46.4002 36.1567 46.314 36.6742C46.1415 37.6444 45.9906 38.6362 45.8181 39.628C46.3787 39.822 46.659 39.7573 46.7452 39.1321ZM103.665 39.7142C103.945 39.7142 104.183 39.7142 104.484 39.7142C104.635 38.9596 104.765 38.2265 104.937 37.4935C105.174 36.5448 105.455 35.6393 106.576 35.3159C106.77 35.2512 106.878 34.8847 107.05 34.6044C106.101 34.3456 105.735 34.9925 105.196 35.4668C105.196 35.1434 105.196 34.8847 105.196 34.6044C104.959 34.6044 104.786 34.6044 104.571 34.6044C104.269 36.3723 103.967 38.0109 103.665 39.7142ZM81.9105 34.5828C81.7811 34.7984 81.5655 35.014 81.5224 35.2512C81.2637 36.5879 81.0265 37.9247 80.7894 39.2615C80.7678 39.3908 80.8109 39.5202 80.8109 39.6711C81.0912 39.6711 81.3284 39.6711 81.5655 39.6711C81.738 38.8518 81.9105 38.0756 82.0614 37.321C82.2555 36.3939 82.622 35.6393 83.6138 35.2943C83.8294 35.2296 83.9372 34.8847 84.1312 34.6044C83.2257 34.3241 82.9023 34.9709 82.5142 35.1865C82.2555 34.9709 82.083 34.7769 81.9105 34.5828ZM73.0275 35.2296C72.8119 34.9925 72.6395 34.7769 72.467 34.5828C72.3376 34.7984 72.1436 35.014 72.1004 35.2512C71.8201 36.6526 71.583 38.0541 71.3458 39.4555C71.3458 39.5202 71.3889 39.5849 71.4105 39.6927C71.6261 39.6927 71.8633 39.6927 72.1436 39.6927C72.316 38.8949 72.467 38.1403 72.6179 37.3857C72.8335 36.437 73.1569 35.6177 74.2134 35.2943C74.4074 35.2296 74.5152 34.9062 74.7308 34.6044C73.739 34.3888 73.3941 34.9925 73.0275 35.2296ZM74.2349 39.7358C74.6446 39.7142 74.8602 39.6927 75.1189 39.6927C75.4423 37.9894 75.7442 36.3508 76.0676 34.6259C75.7657 34.6044 75.5501 34.6044 75.2267 34.5828C74.8818 36.3292 74.5799 37.9894 74.2349 39.7358ZM130.767 35.3159C130.53 36.7173 130.249 38.1187 129.991 39.5202C129.991 39.5633 130.034 39.628 130.098 39.7358C130.314 39.7142 130.551 39.7142 130.831 39.6927C131.155 38.0109 131.457 36.3723 131.78 34.6691C130.982 34.4966 130.853 34.82 130.767 35.3159ZM23.6107 33.4401C24.0204 33.7851 24.5378 33.8066 25.0121 33.5695C25.4649 33.3539 25.7883 33.0304 25.659 32.4268C24.1066 33.5048 24.3438 33.2676 23.5676 32.3621C23.1795 32.8148 23.3089 33.1598 23.6107 33.4401ZM136.61 33.5479C137.084 33.8066 137.601 33.7635 138.033 33.4401C138.335 33.2029 138.744 32.9442 138.442 32.4052C137.084 33.397 137.386 33.3539 136.308 32.3621C136.049 32.9442 136.178 33.3107 136.61 33.5479ZM86.1364 33.5695C86.6107 33.8282 87.1282 33.7635 87.5594 33.4617C87.8612 33.2461 88.2493 32.9658 87.969 32.4268C86.6107 33.397 86.891 33.397 85.813 32.4052C85.5758 32.9658 85.7052 33.3323 86.1364 33.5695ZM0.734937 41.9996C1.72672 42.0212 2.2873 41.6547 2.30886 40.9647C2.33042 40.4688 2.13637 40.2101 1.42487 40.4257C2.05013 41.2881 0.993663 41.4391 0.734937 41.9996ZM75.8951 32.5992C75.7011 32.6639 75.4423 32.9658 75.4423 33.1598C75.4423 33.3107 75.7873 33.591 75.9813 33.591C76.1754 33.591 76.3694 33.3107 76.7144 32.9873C76.3263 32.7933 76.0676 32.5561 75.8951 32.5992ZM132.125 33.1598C132.211 32.8795 132.104 32.5992 131.715 32.5561C131.37 32.5346 131.133 32.6855 131.155 33.0304C131.155 33.2676 131.327 33.4832 131.5 33.936C131.823 33.5479 132.06 33.3754 132.125 33.1598Z" fill="white"></path></g><defs><clipPath id="clip0_129_17967"><rect width="188.483" height="42" fill="white" transform="translate(0 0.000488281)"></rect></clipPath></defs></svg> 