<?xml version="1.0" encoding="UTF-8"?> <svg xmlns="http://www.w3.org/2000/svg" width="20" height="20" viewBox="0 0 20 20" fill="none"><path d="M13.9154 15.8161H6.08203C5.73203 15.8161 5.34037 15.5411 5.2237 15.2077L1.7737 5.55773C1.28203 4.1744 1.85703 3.7494 3.04037 4.5994L6.29037 6.9244C6.83203 7.2994 7.4487 7.10773 7.68203 6.4994L9.1487 2.59106C9.61537 1.34106 10.3904 1.34106 10.857 2.59106L12.3237 6.4994C12.557 7.10773 13.1737 7.2994 13.707 6.9244L16.757 4.7494C18.057 3.81606 18.682 4.29106 18.1487 5.7994L14.782 15.2244C14.657 15.5411 14.2654 15.8161 13.9154 15.8161Z" fill="#F4F5F6" stroke="#CB171F" stroke-width="1.5" stroke-linecap="round" stroke-linejoin="round"></path><path d="M5.41797 18.3325H14.5846" stroke="#CB171F" stroke-width="1.5" stroke-linecap="round" stroke-linejoin="round"></path><path d="M7.91797 11.6654H12.0846" stroke="#CB171F" stroke-width="1.5" stroke-linecap="round" stroke-linejoin="round"></path></svg> 