<?xml version="1.0" encoding="UTF-8"?> <svg xmlns="http://www.w3.org/2000/svg" width="44" height="44" viewBox="0 0 44 44" fill="none"><rect width="44" height="44" rx="22" fill="#0766FF"></rect><g clip-path="url(#clip0_143_19028)"><path d="M35.125 20.6904C35.125 13.4417 29.2487 7.56543 22 7.56543C14.7513 7.56543 8.875 13.4417 8.875 20.6904C8.875 26.8459 13.1125 32.0105 18.8293 33.4289V24.7011H16.1229V20.6904H18.8293V18.9622C18.8293 14.4948 20.8509 12.4243 25.2367 12.4243C26.0683 12.4243 27.5031 12.5872 28.09 12.7504V16.3863C27.7803 16.3536 27.2422 16.3372 26.5737 16.3372C24.4216 16.3372 23.59 17.1524 23.59 19.2719V20.6904H27.8771L27.1407 24.7011H23.59V33.7192C30.0889 32.9344 35.125 27.4008 35.125 20.6904Z" fill="#0766FF"></path><path d="M27.1389 24.7013L27.8754 20.6906H23.5884V19.2721C23.5884 17.1526 24.4198 16.3374 26.5719 16.3374C27.2404 16.3374 27.7786 16.3536 28.0882 16.3862V12.7506C27.5013 12.5874 26.0666 12.4243 25.235 12.4243C20.8492 12.4243 18.8275 14.495 18.8275 18.9624V20.6906H16.1211V24.7013H18.8275V33.429C19.8431 33.6811 20.9047 33.8156 21.9982 33.8156C22.5366 33.8156 23.0669 33.7824 23.5884 33.7194V24.7013" fill="white"></path></g><defs><clipPath id="clip0_143_19028"><rect width="26.25" height="26.25" fill="white" transform="translate(8.875 7.56543)"></rect></clipPath></defs></svg> 