<?xml version="1.0" encoding="UTF-8"?> <svg xmlns="http://www.w3.org/2000/svg" width="48" height="48" viewBox="0 0 48 48" fill="none"><path fill-rule="evenodd" clip-rule="evenodd" d="M4.6254 24.9978C4.19085 25.9694 4.89883 27.0631 5.96323 27.0631H5.96811H7.78443C8.59493 27.0631 9.2492 27.7174 9.2492 28.5279V36.3107C9.2492 37.1212 9.90346 37.7755 10.714 37.7755H14.6298C15.4403 37.7755 16.0946 38.4297 16.0946 39.2402V41.8329C16.0946 42.6434 16.7488 43.2976 17.5593 43.2976H30.6934C31.504 43.2976 32.1582 42.6434 32.1582 41.8329V39.8798C32.1582 35.5759 32.7078 34.8056 36.376 29.6651C36.6194 29.3239 36.8766 28.9635 37.1482 28.5816C38.862 26.0817 39.8776 23.0643 39.902 19.8125C39.9606 11.2436 32.9687 4.10525 24.3998 4.00272C17.8083 3.92459 12.1397 7.90877 9.73746 13.6067L4.6254 24.9978ZM19.4818 13.3497C19.4818 12.8803 19.1012 12.4997 18.6318 12.4997C18.1624 12.4997 17.7818 12.8803 17.7818 13.3497V27.1536C17.7818 27.6231 18.1624 28.0036 18.6318 28.0036C19.1012 28.0036 19.4818 27.6231 19.4818 27.1536V13.3497ZM29.7353 14.7194C30.2048 14.7194 30.5853 15.0999 30.5853 15.5694V24.9436C30.5853 25.413 30.2048 25.7936 29.7353 25.7936C29.2659 25.7936 28.8853 25.413 28.8853 24.9436V15.5694C28.8853 15.0999 29.2659 14.7194 29.7353 14.7194ZM33.4332 18.0326C33.9027 18.0326 34.2832 18.4131 34.2832 18.8826V21.6122C34.2832 22.0817 33.9027 22.4622 33.4332 22.4622C32.9638 22.4622 32.5832 22.0817 32.5832 21.6122V18.8826C32.5832 18.4131 32.9638 18.0326 33.4332 18.0326ZM26.8842 18.8823C26.8842 18.4129 26.5036 18.0323 26.0342 18.0323C25.5647 18.0323 25.1842 18.4129 25.1842 18.8823V21.612C25.1842 22.0815 25.5647 22.462 26.0342 22.462C26.5036 22.462 26.8842 22.0815 26.8842 21.612V18.8823ZM22.333 15.8253C22.8024 15.8253 23.183 16.2059 23.183 16.6753V23.8347C23.183 24.3041 22.8024 24.6847 22.333 24.6847C21.8635 24.6847 21.483 24.3041 21.483 23.8347V16.6753C21.483 16.2059 21.8635 15.8253 22.333 15.8253ZM14.9339 16.9264C15.4033 16.9264 15.7839 17.3069 15.7839 17.7764V22.7209C15.7839 23.1904 15.4033 23.5709 14.9339 23.5709C14.4644 23.5709 14.0839 23.1904 14.0839 22.7209V17.7764C14.0839 17.3069 14.4644 16.9264 14.9339 16.9264Z" fill="url(#paint0_linear_136_18463)"></path><defs><linearGradient id="paint0_linear_136_18463" x1="4.49543" y1="23.5334" x2="39.9023" y2="23.5334" gradientUnits="userSpaceOnUse"><stop stop-color="#E31B23"></stop><stop offset="1" stop-color="#A21016"></stop></linearGradient></defs></svg> 