<?xml version="1.0" encoding="UTF-8"?> <svg xmlns="http://www.w3.org/2000/svg" width="48" height="48" viewBox="0 0 48 48" fill="none"><path d="M5.50391 32.4842H10.5039V40.9985C10.5039 41.5508 10.0562 41.9985 9.50391 41.9985H6.50391C5.95162 41.9985 5.50391 41.5508 5.50391 40.9985V32.4842Z" fill="url(#paint0_linear_136_18487)"></path><path d="M5.50391 23.9652C5.50391 23.4129 5.95162 22.9652 6.50391 22.9652H9.50391C10.0562 22.9652 10.5039 23.4129 10.5039 23.9652V32.4795H5.50391V23.9652Z" fill="url(#paint1_linear_136_18487)"></path><path d="M13.5039 31.427H18.5039V40.9984C18.5039 41.5507 18.0562 41.9984 17.5039 41.9984H14.5039C13.9516 41.9984 13.5039 41.5507 13.5039 40.9984V31.427Z" fill="url(#paint2_linear_136_18487)"></path><path d="M13.5039 21.8541C13.5039 21.3018 13.9516 20.8541 14.5039 20.8541H17.5039C18.0562 20.8541 18.5039 21.3018 18.5039 21.8541V31.4255H13.5039V21.8541Z" fill="url(#paint3_linear_136_18487)"></path><path d="M21.5039 28.7842H26.5039V40.9985C26.5039 41.5508 26.0562 41.9985 25.5039 41.9985H22.5039C21.9516 41.9985 21.5039 41.5508 21.5039 40.9985V28.7842Z" fill="url(#paint4_linear_136_18487)"></path><path d="M21.5039 16.5752C21.5039 16.0229 21.9516 15.5752 22.5039 15.5752H25.5039C26.0562 15.5752 26.5039 16.0229 26.5039 16.5752V28.7895H21.5039V16.5752Z" fill="url(#paint5_linear_136_18487)"></path><path d="M29.5039 27.1984H34.5039V40.9984C34.5039 41.5507 34.0562 41.9984 33.5039 41.9984H30.5039C29.9516 41.9984 29.5039 41.5507 29.5039 40.9984V27.1984Z" fill="url(#paint6_linear_136_18487)"></path><path d="M29.5039 13.4006C29.5039 12.8483 29.9516 12.4006 30.5039 12.4006H33.5039C34.0562 12.4006 34.5039 12.8483 34.5039 13.4006V27.2006H29.5039V13.4006Z" fill="url(#paint7_linear_136_18487)"></path><path d="M37.5039 23.4985H42.5039V40.9985C42.5039 41.5507 42.0562 41.9985 41.5039 41.9985H38.5039C37.9516 41.9985 37.5039 41.5507 37.5039 40.9985V23.4985Z" fill="url(#paint8_linear_136_18487)"></path><path d="M37.5039 5.99748C37.5039 5.44519 37.9516 4.99748 38.5039 4.99748H41.5039C42.0562 4.99748 42.5039 5.44519 42.5039 5.99748V23.4975H37.5039V5.99748Z" fill="url(#paint9_linear_136_18487)"></path><defs><linearGradient id="paint0_linear_136_18487" x1="10.5039" y1="37.2132" x2="5.50391" y2="37.2132" gradientUnits="userSpaceOnUse"><stop stop-color="#F71C2C"></stop><stop offset="1" stop-color="#FB7D80"></stop></linearGradient><linearGradient id="paint1_linear_136_18487" x1="10.5039" y1="27.6942" x2="5.50391" y2="27.6942" gradientUnits="userSpaceOnUse"><stop stop-color="#A21016"></stop><stop offset="1" stop-color="#E31B23"></stop></linearGradient><linearGradient id="paint2_linear_136_18487" x1="18.5039" y1="36.6814" x2="13.5039" y2="36.6814" gradientUnits="userSpaceOnUse"><stop stop-color="#F71C2C"></stop><stop offset="1" stop-color="#FB7D80"></stop></linearGradient><linearGradient id="paint3_linear_136_18487" x1="18.5039" y1="26.1085" x2="13.5039" y2="26.1085" gradientUnits="userSpaceOnUse"><stop stop-color="#A21016"></stop><stop offset="1" stop-color="#E31B23"></stop></linearGradient><linearGradient id="paint4_linear_136_18487" x1="26.5039" y1="35.3523" x2="21.5039" y2="35.3523" gradientUnits="userSpaceOnUse"><stop stop-color="#F71C2C"></stop><stop offset="1" stop-color="#FB7D80"></stop></linearGradient><linearGradient id="paint5_linear_136_18487" x1="26.5039" y1="22.1433" x2="21.5039" y2="22.1433" gradientUnits="userSpaceOnUse"><stop stop-color="#A21016"></stop><stop offset="1" stop-color="#E31B23"></stop></linearGradient><linearGradient id="paint6_linear_136_18487" x1="34.5039" y1="34.5546" x2="29.5039" y2="34.5546" gradientUnits="userSpaceOnUse"><stop stop-color="#F71C2C"></stop><stop offset="1" stop-color="#FB7D80"></stop></linearGradient><linearGradient id="paint7_linear_136_18487" x1="34.5039" y1="19.7568" x2="29.5039" y2="19.7568" gradientUnits="userSpaceOnUse"><stop stop-color="#A21016"></stop><stop offset="1" stop-color="#E31B23"></stop></linearGradient><linearGradient id="paint8_linear_136_18487" x1="42.5039" y1="32.6937" x2="37.5039" y2="32.6937" gradientUnits="userSpaceOnUse"><stop stop-color="#F71C2C"></stop><stop offset="1" stop-color="#FB7D80"></stop></linearGradient><linearGradient id="paint9_linear_136_18487" x1="42.5039" y1="14.1927" x2="37.5039" y2="14.1927" gradientUnits="userSpaceOnUse"><stop stop-color="#A21016"></stop><stop offset="1" stop-color="#E31B23"></stop></linearGradient></defs></svg> 