<?xml version="1.0" encoding="UTF-8"?> <svg xmlns="http://www.w3.org/2000/svg" width="44" height="44" viewBox="0 0 44 44" fill="none"><rect width="44" height="44" rx="22" fill="#FF0000"></rect><g clip-path="url(#clip0_143_19034)"><path d="M32.0804 16.9174C31.9617 16.4707 31.7277 16.0629 31.4019 15.735C31.0761 15.4071 30.6698 15.1705 30.2238 15.0489C28.582 14.6074 22.0195 14.6074 22.0195 14.6074C22.0195 14.6074 15.457 14.6074 13.8152 15.0489C13.3692 15.1705 12.963 15.4071 12.6372 15.735C12.3113 16.0629 12.0773 16.4707 11.9586 16.9174C11.5195 18.5664 11.5195 22.0051 11.5195 22.0051C11.5195 22.0051 11.5195 25.4439 11.9586 27.0929C12.0773 27.5396 12.3113 27.9474 12.6372 28.2753C12.963 28.6032 13.3692 28.8398 13.8152 28.9614C15.457 29.4029 22.0195 29.4029 22.0195 29.4029C22.0195 29.4029 28.582 29.4029 30.2238 28.9614C30.6698 28.8398 31.0761 28.6032 31.4019 28.2753C31.7277 27.9474 31.9617 27.5396 32.0804 27.0929C32.5195 25.4439 32.5195 22.0051 32.5195 22.0051C32.5195 22.0051 32.5195 18.5664 32.0804 16.9174Z" fill="#FEFEFE"></path><path d="M19.8711 25.1289V18.8838L25.3597 22.0063L19.8711 25.1289Z" fill="#FF0000"></path></g><defs><clipPath id="clip0_143_19034"><rect width="21" height="21" fill="white" transform="translate(11.5 11.5059)"></rect></clipPath></defs></svg> 