<?xml version="1.0" encoding="UTF-8"?> <svg xmlns="http://www.w3.org/2000/svg" width="48" height="48" viewBox="0 0 48 48" fill="none"><path fill-rule="evenodd" clip-rule="evenodd" d="M23.9968 19.1525L36.452 10.5206C37.1273 10.053 37.9498 10.8713 37.4772 11.548L28.8156 23.9822L37.4158 36.4533C37.8823 37.1301 37.0659 37.9545 36.3906 37.4808L23.9968 28.8058L11.6029 37.4808C10.9338 37.9484 10.1112 37.1301 10.5777 36.4533L19.1779 23.9822L10.5163 11.548C10.0498 10.8774 10.8662 10.053 11.5415 10.5206L23.9968 19.1525ZM26.8646 24.0055C26.8646 25.5878 25.5819 26.8704 23.9997 26.8704C22.4174 26.8704 21.1348 25.5878 21.1348 24.0055C21.1348 22.4233 22.4174 21.1406 23.9997 21.1406C25.5819 21.1406 26.8646 22.4233 26.8646 24.0055Z" fill="url(#paint0_linear_136_18506)"></path><path fill-rule="evenodd" clip-rule="evenodd" d="M27.9457 20.0633L45.3221 23.2316L45.3111 23.2206C46.2297 23.3857 46.2297 24.7003 45.3111 24.8653L27.9346 27.9512L24.7663 45.3111C24.6013 46.2297 23.2866 46.2297 23.1216 45.3111L20.0413 27.9567L2.68689 24.8763C1.77379 24.7113 1.76829 23.3967 2.68689 23.2316L20.0468 20.0633L23.1326 2.68689C23.2976 1.77379 24.6123 1.76829 24.7773 2.68689L27.9457 20.0633ZM26.8665 24.0016C26.8665 25.5839 25.5839 26.8665 24.0016 26.8665C22.4194 26.8665 21.1367 25.5839 21.1367 24.0016C21.1367 22.4194 22.4194 21.1367 24.0016 21.1367C25.5839 21.1367 26.8665 22.4194 26.8665 24.0016Z" fill="url(#paint1_linear_136_18506)"></path><defs><linearGradient id="paint0_linear_136_18506" x1="37.617" y1="23.9213" x2="10.3789" y2="23.9213" gradientUnits="userSpaceOnUse"><stop stop-color="#F71C2C"></stop><stop offset="1" stop-color="#FB7D80"></stop></linearGradient><linearGradient id="paint1_linear_136_18506" x1="46" y1="23.8698" x2="2" y2="23.8698" gradientUnits="userSpaceOnUse"><stop stop-color="#A21016"></stop><stop offset="1" stop-color="#E31B23"></stop></linearGradient></defs></svg> 