<?xml version="1.0" encoding="UTF-8"?> <svg xmlns="http://www.w3.org/2000/svg" width="288" height="64" viewBox="0 0 288 64" fill="none"><g clip-path="url(#clip0_136_18590)"><path d="M285.145 18.2969C284.98 18.7897 284.915 19.2168 284.75 19.5454C280.414 28.3174 276.077 37.0567 271.674 45.7959C270.787 47.5372 269.703 49.2127 268.553 50.7897C266.943 52.9252 264.676 53.9766 262.015 53.9437C260.077 53.9437 258.106 53.8123 256.003 53.7466C256.529 51.6768 256.988 49.9027 257.448 48.0628C258.237 48.03 258.861 48.03 259.518 47.9643C262.245 47.6357 263.067 46.453 263.001 43.9889C262.738 36.4981 262.607 29.0074 262.409 21.5166C262.377 20.531 262.409 19.5454 262.409 18.4283C265.333 18.4283 268.225 18.4283 271.313 18.4283C270.82 23.9807 270.327 29.4016 269.834 34.8226C269.933 34.8554 270.032 34.8883 270.13 34.9211C270.492 34.0341 270.853 33.147 271.214 32.2599C272.89 27.9889 274.598 23.7179 276.241 19.4468C276.504 18.7897 276.734 18.2969 277.588 18.2969C280.052 18.3298 282.483 18.2969 285.145 18.2969ZM260.537 22.7322C260.997 20.0053 259.945 18.4283 257.251 17.8041C254.59 17.1799 252.159 17.8041 249.991 19.414C249.235 19.9725 248.545 20.6624 247.855 21.2866C247.724 21.1552 247.691 21.1224 247.658 21.0895C247.592 20.9252 247.559 20.7938 247.494 20.6296C247.099 18.954 246.015 18.0341 244.34 17.7055C241.448 17.1142 238.919 17.8369 236.652 19.5782C236.159 19.9396 235.699 20.3339 235.009 20.8924C235.14 19.8411 235.239 19.1511 235.37 18.4283C232.578 18.4283 229.917 18.4283 227.255 18.4283C225.087 27.2333 222.952 35.9068 220.783 44.7445C223.773 44.7445 226.533 44.7445 229.358 44.7445C229.719 43.3318 230.048 42.0176 230.377 40.7035C231.494 36.2025 232.578 31.6686 233.695 27.1675C233.991 25.9519 234.648 24.9663 235.83 24.4078C237.079 23.8164 238.196 24.6049 238.13 25.9519C238.13 26.2148 238.032 26.4776 237.966 26.7733C236.816 31.4386 235.666 36.1039 234.483 40.7692C234.155 42.0176 233.892 43.299 233.531 44.7117C236.586 44.7117 239.346 44.7117 242.073 44.7117C242.237 44.2189 242.336 43.8575 242.434 43.4961C243.65 38.5022 244.865 33.5084 246.147 28.5474C246.442 27.4632 246.869 26.379 247.526 25.4591C248.249 24.4078 249.531 24.0464 250.253 24.4078C251.042 24.802 251.239 25.6563 250.845 27.2004C249.728 31.7014 248.611 36.2025 247.526 40.7363C247.198 42.0505 246.935 43.3647 246.607 44.8431C249.596 44.876 252.422 44.9417 255.214 44.8103C256.627 39.0608 257.974 33.5413 259.321 28.0218C259.781 26.2476 260.241 24.5064 260.537 22.7322ZM121.038 9.39342C121.629 9.39342 122.221 9.45913 122.91 9.49198C122.91 21.2538 122.91 32.917 122.91 44.7774C119.921 44.8103 116.964 44.8103 113.711 44.7445C113.843 42.7404 113.974 40.9335 114.106 38.8965C113.35 38.8636 112.66 38.8308 111.97 38.8308C110.722 38.8308 109.44 38.8965 108.192 38.7979C107.14 38.7322 106.582 39.1922 106.253 40.1121C105.826 41.3606 105.301 42.5433 104.808 43.7589C104.611 44.2517 104.381 44.7774 103.691 44.7445C100.865 44.7445 98.0398 44.7445 94.9844 44.7445C96.5285 41.6234 97.9413 38.7322 99.354 35.8739C103.428 27.6275 107.502 19.414 111.51 11.1675C112.167 9.82052 112.923 9.19629 114.467 9.32771C116.635 9.52484 118.837 9.39342 121.038 9.39342ZM115.748 18.2641C115.617 18.2312 115.518 18.1655 115.387 18.1326C113.481 22.6008 111.576 27.0361 109.769 31.7014C111.576 31.7014 113.087 31.7014 114.697 31.7014C115.058 27.1675 115.42 22.7322 115.748 18.2641ZM201.695 9.49198C198.771 21.3523 195.913 33.0156 193.021 44.7445C190.229 44.7445 187.6 44.7445 184.873 44.7445C184.939 44.0218 185.005 43.3975 185.103 42.4776C184.578 42.9704 184.216 43.2661 183.855 43.5618C182.015 45.1717 179.88 45.7302 177.448 45.4345C175.149 45.1717 173.834 43.7918 173.243 41.6563C172.553 39.0936 172.783 36.4981 173.342 34.0012C174.032 30.9129 174.886 27.8575 175.871 24.8349C176.89 21.7137 178.828 19.2497 181.982 17.9355C183.691 17.2127 185.301 17.3441 186.812 18.3626C187.896 19.0854 188.947 19.8411 190.229 20.761C191.214 16.917 192.134 13.2374 193.087 9.49198C195.847 9.49198 198.574 9.49198 201.695 9.49198ZM187.765 24.2435C186.943 23.8493 186.056 23.915 185.498 24.5721C184.841 25.3277 184.184 26.1819 183.855 27.1347C183.231 29.0074 182.869 30.9129 182.409 32.8513C182.147 33.9684 181.949 35.0854 181.687 36.2025C181.719 36.2025 181.752 36.2025 181.785 36.2353C181.785 36.4653 181.785 36.6624 181.785 36.8924C181.818 37.7137 182.081 38.4365 182.869 38.7651C183.724 39.1265 184.545 38.7651 185.071 38.1408C185.596 37.5495 186.023 36.7938 186.319 36.071C186.779 34.954 187.173 33.8041 187.403 32.6542C187.863 30.5187 188.257 28.3832 188.619 26.2476C188.783 25.4263 188.553 24.6378 187.765 24.2435ZM172.652 22.8308C172.553 24.5721 172.192 26.2805 171.798 27.9889C170.845 32.03 169.761 36.0382 168.808 40.0792C168.446 41.5577 168.315 43.069 168.052 44.7445C165.424 44.7445 162.861 44.7445 160.2 44.7445C160.134 43.9889 160.101 43.299 160.036 42.5105C159.641 42.7733 159.313 42.9704 159.017 43.2004C157.44 44.646 155.535 45.2374 153.465 45.3688C149.26 45.6316 147.584 43.5946 147.683 39.5207C147.715 37.4509 148.471 35.4468 149.522 33.607C150.278 32.2928 151.329 31.2415 152.742 30.6829C154.68 29.9273 156.652 29.3359 158.623 28.7445C159.674 28.416 160.758 28.2517 161.81 27.9889C163.223 27.6604 164.077 26.7404 164.34 25.2949C164.471 24.4406 164.504 23.6521 163.715 23.0608C162.993 22.568 161.678 22.6337 160.956 23.2907C160.594 23.6193 160.299 24.0464 160.069 24.4406C159.74 24.9992 159.51 25.6234 159.214 26.2148C156.685 26.2148 154.188 26.2148 151.559 26.2148C151.789 24.3092 152.611 22.8308 153.761 21.4838C154.91 20.1367 156.323 19.1183 157.999 18.494C161.58 17.1799 165.292 17.0484 168.972 17.9355C171.666 18.5926 172.783 20.071 172.652 22.8308ZM162.828 31.9643C160.988 32.2928 158.919 33.1799 157.933 34.0012C156.816 34.954 156.389 36.2353 156.422 37.648C156.487 39.2579 157.867 40.0135 159.346 39.2907C160.397 38.7979 161.021 37.878 161.383 36.8595C161.941 35.3154 162.336 33.7384 162.828 31.9643ZM207.904 32.8185C207.51 34.7569 206.689 36.4653 206.754 38.4365C206.787 39.7179 207.543 40.3092 208.824 40.0792C210.138 39.8493 210.927 39.0279 211.387 37.8123C211.617 37.1552 211.847 36.4653 212.077 35.7425C214.672 35.7425 217.235 35.7425 219.995 35.7425C218.779 39.7836 216.808 42.9704 212.832 44.4489C209.678 45.6316 206.393 45.6973 203.14 45.0402C200.479 44.5146 198.869 42.5433 198.607 39.7179C198.311 36.6624 198.837 33.7055 199.625 30.8144C200.446 27.7918 201.563 24.9006 203.436 22.338C205.079 20.071 207.214 18.5269 209.941 17.9355C212.8 17.3441 215.691 17.147 218.516 18.0669C220.455 18.6912 221.637 19.9725 222.064 21.9766C222.557 24.3421 222.163 26.6747 221.736 28.9745C221.506 30.2558 221.112 31.5043 220.75 32.8513C216.414 32.8185 212.274 32.8185 207.904 32.8185ZM209.153 27.9889C210.73 27.9889 212.241 27.9889 213.949 27.9889C214.147 27.1018 214.377 26.3462 214.508 25.5248C214.738 24.1778 214.409 23.4222 213.489 23.0279C212.471 22.6008 211.584 22.8308 210.73 23.8493C209.777 24.9992 209.317 26.379 209.153 27.9889ZM139.009 35.8082C138.582 36.7938 138.122 37.8123 137.498 38.6665C136.873 39.4879 135.921 39.915 134.869 39.4879C133.818 39.0608 133.719 38.1408 133.785 37.1552C134.081 32.9499 135.296 29.0074 136.775 25.0977C136.972 24.6049 137.333 24.145 137.695 23.7507C138.385 22.9951 139.206 22.4694 140.323 22.8308C141.177 23.0936 141.506 23.9478 141.407 25.3277C141.375 25.7548 141.243 26.1819 141.177 26.609C141.145 27.0361 141.177 27.4304 141.177 27.9232C143.773 27.9232 146.27 27.9232 148.898 27.9232C149.292 25.6563 149.752 23.5536 149.26 21.4181C148.767 19.2825 147.518 17.7712 145.35 17.5084C143.149 17.2456 140.882 17.1799 138.648 17.2784C134.442 17.5084 131.387 19.7096 129.251 23.2579C127.609 26.0176 126.656 29.0074 125.9 32.0957C125.309 34.5597 124.915 37.0238 125.243 39.5536C125.67 42.6419 127.444 44.5474 130.5 45.0074C133.457 45.4345 136.381 45.2702 139.272 44.416C143.707 43.1018 146.894 38.0751 147.223 33.6727C144.726 33.6727 142.229 33.6727 139.666 33.6727C139.403 34.4612 139.305 35.184 139.009 35.8082Z" fill="#DF1E2B"></path><path d="M56.5081 29.9163C58.1836 23.0827 59.8592 16.2818 61.5348 9.41532C64.3274 9.41532 66.9886 9.41532 69.9126 9.41532C67.0214 21.3085 64.0974 33.0375 61.2062 44.7993C57.8879 44.7993 54.7339 44.7993 51.3828 44.7993C51.0871 37.9985 50.8243 31.2634 50.5286 24.5283C50.43 24.5283 50.3315 24.4954 50.2329 24.4954C48.5573 31.2634 46.8818 37.9985 45.2062 44.7993C42.4136 44.7993 39.7524 44.7993 36.8284 44.7993C39.7196 32.9389 42.6107 21.2428 45.5019 9.44817C48.8202 9.44817 52.0727 9.44817 55.5224 9.44817C55.7524 16.2818 56.0152 23.0827 56.2452 29.8835C56.3438 29.9163 56.4095 29.9163 56.5081 29.9163ZM91.6292 43.1566C90.1508 37.5385 88.7052 31.9533 87.161 26.3681C86.8653 25.251 87.0625 24.5611 87.7524 23.7398C91.2678 19.5016 94.7504 15.1977 98.2329 10.8938C98.5943 10.4667 98.89 9.97384 99.35 9.34961C96.2288 9.34961 93.4362 9.38246 90.6436 9.34961C89.8879 9.34961 89.4608 9.6453 89.0337 10.2367C88.0152 11.7151 86.9311 13.1607 85.8797 14.6391C83.9742 17.3003 82.0686 19.9615 80.1631 22.5899C80.0645 22.557 79.9988 22.5241 79.9003 22.4913C80.9516 18.1874 81.9701 13.8835 83.0543 9.48103C79.8345 9.48103 76.8448 9.48103 73.8222 9.48103C70.9311 21.2757 68.0727 33.0046 65.1487 44.8322C68.3356 44.8322 71.3253 44.8322 74.315 44.8322C74.4465 44.4708 74.6107 44.1751 74.6764 43.8465C75.2678 41.4153 75.9249 38.9841 76.4506 36.52C76.812 34.8116 78.0276 33.7603 79.1775 32.2818C80.0645 36.6843 80.8859 40.7582 81.7072 44.8322C85.1898 44.8322 88.4752 44.8322 91.9578 44.8322C91.8263 44.2079 91.7606 43.6823 91.6292 43.1566ZM12.7134 37.0786C15.0132 27.748 17.2144 18.6474 19.4814 9.41532C16.3602 9.41532 13.3705 9.41532 10.2165 9.41532C7.35816 21.1771 4.46699 32.9389 1.54297 44.7993C8.54091 44.7993 15.276 44.7993 22.044 44.7993C22.6682 42.2695 23.2596 39.8383 23.9495 37.0786C20.1713 37.0786 16.5573 37.0786 12.7134 37.0786ZM23.7196 44.7993C26.9393 44.7993 29.8961 44.7993 32.9844 44.7993C35.8756 33.0046 38.7339 21.3085 41.658 9.44817C38.4382 9.44817 35.4814 9.44817 32.3931 9.44817C29.469 21.2428 26.6107 33.0046 23.7196 44.7993Z" fill="#1D1D1B"></path><path d="M236.452 2.46157C235.96 5.18847 235.467 7.71825 235.04 10.2152C234.908 10.9051 234.744 11.3979 233.693 11.1022C234.153 7.58683 234.974 4.10428 235.598 0.621738C236.617 0.0960707 237.142 0.490321 237.471 1.44309C238.226 3.4472 239.015 5.41845 239.803 7.3897C240.001 7.88252 240.198 8.37533 240.428 9.06527C240.953 6.33837 241.446 3.84145 241.873 1.31168C242.005 0.55603 242.333 0.260342 243.22 0.55603C242.563 4.07143 241.906 7.58683 241.249 11.0037C240.165 11.4965 239.803 11.0365 239.508 10.248C238.621 7.88252 237.701 5.54987 236.814 3.21722C236.748 3.0201 236.649 2.85582 236.452 2.46157ZM255.705 11.2008C255.081 13.1063 254.062 13.7306 252.091 13.3692C251.828 13.3363 251.5 13.1063 251.302 13.2049C251.04 13.3035 250.875 13.632 250.613 13.9277C253.996 15.3733 256.198 14.3219 256.986 11.0037C257.413 9.13098 257.742 7.25829 258.07 5.3856C258.169 4.85993 258.202 4.33426 258.268 3.8743C254.949 2.39587 251.664 4.13714 251.105 7.61968C250.908 8.83529 250.941 10.1166 252.157 10.8394C253.339 11.5622 254.456 11.2008 255.442 10.3137C255.508 10.248 255.639 10.2152 255.968 10.0509C255.869 10.5766 255.803 10.9051 255.705 11.2008ZM256.231 7.91537C255.672 9.52523 254.391 10.4451 253.372 10.0509C252.321 9.62379 252.091 7.98108 252.847 6.40408C253.701 4.62995 255.081 4.03858 256.921 4.76137C256.691 5.8127 256.559 6.89689 256.231 7.91537ZM280.116 13.6649C280.28 12.8764 280.444 12.0879 280.641 11.2665C280.937 11.2665 281.167 11.2336 281.364 11.2665C284.255 11.9564 287.114 9.26239 286.719 5.54987C286.522 3.61147 284.912 2.75726 283.138 3.61147C282.678 3.84145 282.251 4.16999 282.021 4.30141C281.66 3.94001 281.43 3.71003 281.167 3.4472C280.97 3.71003 280.608 3.94001 280.576 4.2357C279.951 7.48827 279.36 10.7737 278.736 14.1248C279.524 14.4534 279.984 14.4205 280.116 13.6649ZM281.824 6.1741C282.054 5.58272 282.645 5.0242 283.204 4.62995C284.058 4.07143 285.011 4.43283 285.307 5.3856C285.767 6.86404 285.208 8.14535 284.255 9.29525C283.434 10.3137 282.383 10.4451 280.773 9.95233C281.167 8.63816 281.364 7.35685 281.824 6.1741ZM245.159 1.21311C244.633 4.16999 244.042 7.12687 243.483 10.0838C243.417 10.4451 243.483 10.8065 243.483 11.1022C244.272 11.3979 244.6 11.0365 244.732 10.4123C244.863 9.72235 245.027 9.03242 245.126 8.30962C245.257 7.324 245.652 6.56835 246.703 6.14125C247.36 7.61968 248.05 9.03242 248.674 10.478C249.003 11.2994 249.495 11.3651 250.317 11.0365C249.43 9.03241 248.576 7.09402 247.721 5.08991C249.167 3.57862 250.58 2.06732 252.058 0.523175C251.072 0.194633 250.481 0.457467 249.89 1.11455C248.641 2.52728 247.327 3.8743 246.013 5.25418C245.947 5.22133 245.882 5.18847 245.783 5.15562C246.046 3.61147 246.309 2.10018 246.571 0.55603C245.717 0.260342 245.323 0.391759 245.159 1.21311ZM208.493 0.753155C207.968 3.48005 207.376 6.20695 206.916 8.93385C206.654 10.4123 207.376 11.2008 208.855 11.3651C212.042 11.6608 214.933 7.98108 213.882 4.95849C213.422 3.64433 212.272 3.0201 210.892 3.48005C210.3 3.67718 209.775 4.03858 209.118 4.39997C209.38 2.95439 209.61 1.57451 209.873 0.161779C209.15 -0.133909 208.658 -0.0682003 208.493 0.753155ZM210.629 9.98519C210.07 10.248 209.216 10.248 208.658 9.98519C208.362 9.85377 208.263 8.93385 208.296 8.37533C208.428 7.19258 208.723 6.00983 209.643 5.12276C210.202 4.5971 210.892 4.13714 211.713 4.49853C212.502 4.85993 212.666 5.61558 212.633 6.69977C212.469 7.94823 212.009 9.29525 210.629 9.98519ZM270.851 6.30552C270.752 4.20285 269.241 3.0201 267.204 3.34864C264.543 3.8086 262.736 7.3897 263.951 9.78806C264.51 10.8723 265.43 11.3651 266.613 11.3322C269.077 11.3322 270.982 9.06527 270.851 6.30552ZM268.19 9.72235C267.631 10.2809 266.974 10.4451 266.218 10.2152C265.43 9.98519 265.101 9.3281 265.003 8.60531C264.806 7.35685 265.2 6.20695 265.988 5.25418C266.645 4.46568 267.565 4.16999 268.321 4.46568C269.044 4.72851 269.504 5.58272 269.504 6.83118C269.438 7.81681 269.044 8.86814 268.19 9.72235ZM215.064 4.92564C215.36 6.43693 215.524 7.94823 216.017 9.39381C216.576 11.1022 215.82 12.0879 214.571 12.9749C214.177 13.2378 213.783 13.4677 213.323 13.7634C213.487 14.092 213.619 14.3877 213.75 14.6833C215.459 14.092 216.247 13.5006 217.298 11.6608C218.58 9.39381 219.697 7.02831 220.879 4.69566C221.044 4.39997 221.142 4.03858 221.241 3.71003C220.321 3.28293 219.96 3.67718 219.664 4.39997C218.974 6.00983 218.218 7.58683 217.331 9.49237C217.134 8.76958 217.036 8.44104 216.97 8.07964C216.74 6.86404 216.51 5.61558 216.313 4.36712C216.181 3.57862 215.787 3.34864 214.966 3.71003C214.966 4.10428 214.999 4.49853 215.064 4.92564ZM277.454 4.26856C277.323 5.12276 277.224 6.00983 276.962 6.83118C276.666 7.7511 276.272 8.67102 275.779 9.49237C275.385 10.1166 274.662 10.4451 273.906 10.1823C273.052 9.88662 273.118 9.09812 273.183 8.37533C273.282 7.61968 273.413 6.86404 273.545 6.10839C273.676 5.31989 273.84 4.53139 274.005 3.71003C273.282 3.41435 272.789 3.4472 272.658 4.16999C272.362 5.77985 271.968 7.3897 271.836 8.99956C271.672 10.9708 273.151 11.9236 274.957 11.1022C275.417 10.9051 275.845 10.5766 276.14 10.3794C276.436 10.708 276.666 11.1679 276.896 11.1679C277.159 11.1679 277.586 10.8065 277.619 10.5437C278.046 8.30962 278.44 6.04268 278.834 3.67718C277.98 3.38149 277.553 3.54576 277.454 4.26856ZM223.606 11.2336C225.38 11.2336 226.957 11.2336 228.534 11.2336C229.159 11.2336 229.422 10.9051 229.224 10.0838C227.91 10.0838 226.596 10.0838 225.15 10.0838C225.742 6.76548 226.333 3.67718 226.925 0.490321C226.432 0.490321 226.103 0.490321 225.676 0.490321C224.986 4.00572 224.329 7.52112 223.606 11.2336ZM231.721 10.5109C232.313 7.19258 232.937 3.8743 233.561 0.490321C233.068 0.490321 232.74 0.490321 232.28 0.490321C231.623 4.00572 230.966 7.45541 230.276 11.1022C231.097 11.2665 231.59 11.2994 231.721 10.5109ZM260.83 3.51291C260.6 3.8086 260.206 4.07143 260.107 4.39997C259.746 6.27266 259.417 8.14535 259.122 10.018C259.056 10.3794 259.089 10.7408 259.056 11.0694C259.812 11.3322 260.206 11.1351 260.304 10.4123C260.436 9.55808 260.6 8.70387 260.797 7.84966C261.159 6.40408 261.553 4.99135 263.294 4.53139C263.59 4.46568 263.721 3.8743 263.984 3.41435C262.703 3.15151 262.111 3.84145 261.487 4.46568C261.29 4.13714 261.06 3.8086 260.83 3.51291Z" fill="#1E1E1E"></path><path d="M174.324 60.3463C174.718 58.2436 175.08 56.1081 175.474 53.8411C174.554 53.8411 173.7 53.8411 172.649 53.8411C172.221 55.9766 171.762 58.2107 171.302 60.4777C170.907 60.4777 170.546 60.4777 170.053 60.4777C170.447 58.2764 170.842 56.1409 171.236 53.9725C170.907 53.7754 170.612 53.5783 170.283 53.3483C170.447 53.0855 170.546 52.7898 170.677 52.7898C171.302 52.6912 171.564 52.3298 171.762 51.7385C172.681 49.0773 174.16 48.3545 177.051 49.1758C176.952 49.4715 176.887 49.7672 176.788 50.03C173.93 49.8001 173.437 50.0957 172.944 52.5598C174.226 52.5598 175.507 52.5598 176.985 52.5598C176.887 53.3483 176.821 53.9068 176.723 54.4982C176.427 56.2066 176.098 57.9479 175.77 59.6563C175.638 60.4448 175.244 60.8391 174.324 60.3463ZM43.7615 60.6091C47.1784 61.2333 50.1681 58.3093 49.6096 54.8596C49.2482 52.7241 47.4412 51.9027 45.5685 53.0198C45.24 53.2169 44.9443 53.4797 44.78 53.6111C44.4186 53.2498 44.1886 52.8226 43.9258 52.7569C43.3673 52.6255 43.2687 53.1512 43.203 53.6111C42.7759 56.0752 42.3159 58.5721 41.8888 61.0362C41.7246 61.9233 41.626 62.8432 41.4946 63.7631C42.6773 63.7631 42.6773 63.7631 42.8416 63.1717C43.0387 62.3832 43.1701 61.5947 43.3673 60.7077C43.5315 60.6091 43.663 60.5762 43.7615 60.6091ZM44.55 55.3196C45.1085 53.9725 46.3242 53.3812 47.2441 53.7097C48.1311 54.0383 48.5254 55.2867 48.0326 56.7323C47.8026 57.4222 47.4412 58.145 46.9484 58.7035C46.0285 59.7877 45.0757 59.8863 43.433 59.1307C43.7944 57.8822 44.0244 56.568 44.55 55.3196ZM193.018 49.0773C192.493 49.0773 192.131 49.0773 191.737 49.0773C191.146 52.0341 190.521 54.9253 190.028 57.8493C189.634 60.1163 190.981 61.2333 193.248 60.7077C195.844 60.0834 197.618 57.3565 197.191 54.6953C196.895 52.9212 195.515 52.0999 193.807 52.7241C193.314 52.9212 192.887 53.2169 192.23 53.5783C192.525 52.0013 192.755 50.5557 193.018 49.0773ZM193.905 59.3278C193.248 59.7549 192.394 60.0506 191.803 59.4263C191.441 59.0321 191.343 58.2436 191.408 57.6522C191.573 56.4366 191.868 55.1881 192.887 54.2682C193.511 53.7426 194.234 53.3155 194.957 53.7754C195.482 54.104 195.712 54.8268 195.942 55.1882C195.712 57.0937 195.252 58.4736 193.905 59.3278ZM153.396 60.6748C155.762 60.1491 157.371 57.6194 157.141 55.0239C156.944 52.8555 155.236 51.9027 153.265 52.9212C152.837 53.1512 152.476 53.4469 152.18 53.644C151.918 53.2826 151.753 52.7898 151.49 52.6912C150.866 52.4941 150.866 53.0855 150.768 53.5126C150.636 54.2682 150.505 55.0239 150.373 55.7795C149.881 58.4079 149.421 61.0033 148.895 63.6974C149.421 63.6974 149.815 63.6974 150.176 63.6974C150.406 62.5803 150.603 61.5947 150.801 60.6748C151.819 60.6748 152.64 60.8391 153.396 60.6748ZM152.115 55.3196C152.312 54.7939 152.772 54.3011 153.265 53.9725C154.349 53.2169 155.466 53.6769 155.762 54.9582C156.09 56.4038 154.973 58.8021 153.659 59.4263C152.87 59.7877 152.082 59.8206 150.998 59.1635C151.359 57.8822 151.655 56.568 152.115 55.3196ZM20.9279 57.5208C20.7307 58.835 21.2235 59.9849 22.1435 60.5105C23.2934 61.1348 24.2461 60.6748 25.166 60.0177C25.3303 59.8863 25.4617 59.6892 25.626 59.5578C25.7246 59.4592 25.8888 59.4263 26.0531 59.3278C26.1188 59.722 26.1845 60.0834 26.2174 60.4448C26.6445 60.4448 26.973 60.4448 27.2359 60.4448C27.6301 57.8822 28.0244 55.4181 28.4186 52.8884C24.8704 51.7713 21.5192 53.5126 20.9279 57.5208ZM26.0203 57.3894C25.7246 58.1122 25.1989 58.835 24.5747 59.2949C23.6547 60.0177 22.5706 59.5578 22.3406 58.4407C21.7492 55.8452 24.1147 53.3483 26.973 53.7754C26.6773 55.0239 26.4802 56.2723 26.0203 57.3894ZM188.649 56.6994C188.846 55.4181 189.109 54.1697 189.339 52.9212C185.626 51.8699 182.866 53.414 181.946 56.8309C181.519 58.5064 181.913 59.8534 182.998 60.4777C184.115 61.1348 185.297 60.7734 186.612 59.4263C186.71 59.3278 186.842 59.2621 186.973 59.1635C187.039 59.6563 187.072 60.0506 187.137 60.5434C187.532 60.5105 187.86 60.4777 188.189 60.4777C188.32 59.1635 188.451 57.9151 188.649 56.6994ZM186.94 57.4879C186.677 58.1779 186.152 58.835 185.593 59.2621C184.542 60.0834 183.392 59.5249 183.228 58.1779C182.899 55.681 185.035 53.5126 187.926 53.7426C187.564 55.0896 187.367 56.338 186.94 57.4879ZM203.926 56.8637C203.532 58.5721 203.926 59.952 204.977 60.5434C205.864 61.0362 207.244 60.9705 208.591 59.4592C208.69 59.3606 208.821 59.3278 208.952 59.2292C209.018 59.6892 209.051 60.1163 209.117 60.6091C209.511 60.5434 209.807 60.5105 210.037 60.4777C210.464 57.8822 210.858 55.4181 211.285 52.9541C207.77 51.7713 204.714 53.4469 203.926 56.8637ZM209.084 57.0608C208.92 57.6194 208.591 58.145 208.23 58.605C207.54 59.5249 206.718 59.8206 205.996 59.4921C205.306 59.1964 205.01 58.3093 205.207 57.2251C205.667 54.7282 207.277 53.4469 209.84 53.7754C209.577 54.9582 209.412 56.0424 209.084 57.0608ZM105.692 52.5598C102.603 52.5927 100.271 55.0567 100.304 58.145C100.304 59.1964 100.665 60.0506 101.618 60.5762C102.636 61.1019 103.523 60.7734 104.345 60.1491C104.739 59.8863 105.002 59.4592 105.429 59.0321C105.527 59.6235 105.56 60.0834 105.659 60.5762C106.086 60.5105 106.382 60.4777 106.612 60.4448C107.006 57.8822 107.4 55.4181 107.827 52.7241C106.973 52.6584 106.349 52.5598 105.692 52.5598ZM105.067 58.2107C104.345 59.3606 103.359 59.8534 102.538 59.5249C101.749 59.2292 101.454 58.1122 101.815 56.798C102.439 54.4982 104.18 53.3483 106.217 53.874C106.152 55.3853 105.889 56.8966 105.067 58.2107ZM131.055 52.6912C128.427 53.1512 126.488 56.0424 126.916 58.7035C127.211 60.4777 128.723 61.3319 130.3 60.5105C130.825 60.2477 131.219 59.7549 131.679 59.3935C131.778 59.3278 131.909 59.2949 132.074 59.2292C132.139 59.6892 132.172 60.1163 132.205 60.5762C132.599 60.5434 132.829 60.5434 133.125 60.5434C133.322 59.2292 133.486 57.9808 133.683 56.7652C133.881 55.5167 134.143 54.3011 134.439 52.6912C133.224 52.6584 132.106 52.4941 131.055 52.6912ZM131.679 58.1122C131.318 58.6707 130.759 59.1964 130.168 59.4921C129.314 59.9192 128.558 59.4263 128.328 58.5064C127.704 55.9438 130.102 53.3812 132.829 53.7754C132.698 55.3196 132.501 56.798 131.679 58.1122ZM37.0921 52.5598C33.9381 52.6584 31.5069 55.4838 31.9012 58.6378C32.0983 60.412 33.6096 61.299 35.2194 60.5105C35.8765 60.182 36.435 59.6235 37.0264 59.1964C37.1907 60.4448 37.1907 60.4448 38.1106 60.3791C38.5049 57.9151 38.932 55.451 39.3591 52.7241C38.5049 52.6584 37.7821 52.527 37.0921 52.5598ZM37.1578 57.0608C36.8293 57.8822 36.2708 58.7035 35.5808 59.2621C34.5623 60.1163 33.4124 59.4921 33.3139 58.1779C33.0839 55.4838 35.1537 53.414 37.9792 53.8083C37.6835 54.991 37.5521 56.0752 37.1578 57.0608ZM3.21943 49.6358C2.03668 49.9972 1.21533 50.7528 0.985346 52.0013C0.722512 53.2826 1.21532 54.2354 2.26666 54.9582C2.72662 55.2539 3.18658 55.5167 3.64654 55.8452C4.5336 56.4695 4.86214 57.2908 4.63216 58.0793C4.36933 58.9335 3.58083 59.5578 2.49664 59.5578C1.8067 59.5578 1.11676 59.3278 0.426824 59.1964C0.262553 59.1635 0.131136 59.1635 -0.0988434 59.1307C-0.197406 59.4592 -0.295969 59.7549 -0.394531 60.0834C1.05105 61.0033 2.52949 61.0691 4.04079 60.4448C5.19068 59.9849 5.88062 59.1307 6.04489 57.8822C6.20916 56.6337 5.78206 55.6153 4.73073 54.9253C4.20506 54.5639 3.61368 54.2354 3.08801 53.8411C2.43093 53.3812 2.13524 52.6584 2.46378 51.9684C2.72662 51.4428 3.28514 50.8842 3.81081 50.7528C4.43504 50.5886 5.19068 50.8185 5.88062 50.8842C6.04489 50.8842 6.17631 50.9171 6.37344 50.95C6.50485 50.6543 6.63627 50.3586 6.80054 49.9643C5.55208 49.373 4.40218 49.2415 3.21943 49.6358ZM88.4104 60.5762C90.4474 59.9192 91.8601 57.6522 91.5973 55.4181C91.3673 53.3812 90.0531 52.3298 88.0161 52.5598C85.8149 52.8226 84.1722 54.9582 84.2051 57.5208C84.2051 59.9849 86.1106 61.3319 88.4104 60.5762ZM88.9361 58.9992C88.3775 59.5578 87.6876 59.8534 86.8662 59.5906C86.012 59.3278 85.6835 58.6378 85.5849 57.8493C85.4207 56.6666 85.7821 55.5824 86.5048 54.6296C87.1948 53.7097 88.2133 53.3155 89.0675 53.7097C90.0202 54.1368 90.1845 54.991 90.2174 55.9109C90.1517 57.0937 89.7903 58.145 88.9361 58.9992ZM17.6096 60.4777C19.8437 59.5906 21.1578 56.6009 20.2708 54.3339C19.8437 53.184 18.9895 52.6255 17.7738 52.527C15.2112 52.3298 13.1743 54.3996 13.1085 57.2908C13.0428 59.9849 15.1127 61.4633 17.6096 60.4777ZM15.9012 54.1368C17.2153 53.0198 18.8252 53.6111 19.088 55.2867C19.2851 56.5352 18.8909 57.6522 18.1681 58.6707C17.4782 59.5906 16.5911 59.8863 15.7697 59.5906C14.9155 59.2621 14.4884 58.5393 14.5213 57.3565C14.5541 56.0752 14.9155 54.9582 15.9012 54.1368ZM167.918 52.8884C166.636 52.2641 165.322 52.3955 164.205 53.2169C162.628 54.3339 161.938 55.9767 162.07 57.9151C162.234 60.0506 164.106 61.2662 166.176 60.642C168.082 60.0834 169.396 58.2436 169.495 56.0752C169.495 54.7282 169.199 53.5126 167.918 52.8884ZM166.768 59.0649C166.176 59.6235 165.486 59.8863 164.665 59.5906C163.844 59.2949 163.515 58.605 163.449 57.8165C163.351 56.6337 163.679 55.5495 164.402 54.5968C165.059 53.7426 166.012 53.414 166.866 53.7097C167.622 53.9725 168.049 54.6953 168.049 55.7467C168.049 57.0608 167.72 58.1779 166.768 59.0649ZM76.0244 52.5598C75.7287 52.7569 75.3673 52.9541 75.1044 53.184C75.0059 53.2826 75.0059 53.4797 74.973 53.644C74.7102 55.1882 74.2831 56.7652 74.1845 58.3093C74.0203 60.3463 75.6301 61.3319 77.4371 60.4448C77.9299 60.2148 78.357 59.8863 78.6527 59.6892C78.9812 60.0177 79.2441 60.2477 79.5069 60.5105C79.704 60.2477 80.0326 60.0177 80.1311 59.722C80.3283 59.0321 80.4268 58.3422 80.5582 57.6522C80.8211 56.0752 81.0839 54.4654 81.3796 52.8555C80.1311 52.8226 80.0983 52.8226 79.9669 53.5454C79.7369 54.7282 79.6055 55.9438 79.2441 57.0608C78.9812 57.8493 78.4556 58.6378 77.8642 59.1964C77.5028 59.5249 76.6814 59.5906 76.2215 59.3935C75.8929 59.2621 75.663 58.5393 75.6301 58.0465C75.5644 57.4551 75.7615 56.8637 75.8601 56.2723C76.0572 55.1553 76.2543 54.0383 76.4515 52.9212C76.2872 52.7898 76.1558 52.6912 76.0244 52.5598ZM54.3077 56.8637C56.0819 56.5023 56.9689 55.2539 56.5418 53.9068C56.1476 52.6912 54.6691 52.1656 53.0593 52.7898C51.318 53.4797 50.4966 54.8925 50.1681 56.6666C49.9053 58.0136 49.971 59.3278 51.1866 60.2148C52.4679 61.1676 53.8806 60.9048 55.2276 60.3134C55.4248 60.2148 55.4905 59.7877 55.6547 59.3935C52.0736 59.8863 51.548 59.5906 51.4494 57.1923C52.4679 57.0937 53.4207 57.0608 54.3077 56.8637ZM54.1763 53.644C54.5706 53.6769 55.1619 54.0383 55.2276 54.3668C55.3262 54.6953 54.9977 55.4181 54.702 55.5167C53.7821 55.8452 52.7964 55.9767 51.6794 56.2066C52.1722 54.3668 53.0264 53.5126 54.1763 53.644ZM120.148 56.8637C121.889 56.5023 122.776 55.2539 122.316 53.8411C121.955 52.6912 120.509 52.1656 118.998 52.7241C117.125 53.414 116.238 54.9582 115.942 56.8309C115.745 58.1122 115.877 59.3935 117.026 60.2148C118.275 61.1019 119.622 60.9048 120.936 60.3463C121.495 60.1163 121.495 59.7549 121.166 59.3278C118.111 59.9849 117.355 59.5906 117.289 57.2251C118.209 57.1265 119.195 57.0608 120.148 56.8637ZM119.425 53.6769C120.082 53.5126 120.805 53.4797 121.067 54.3011C121.33 55.0896 120.805 55.5495 120.115 55.7467C119.293 55.9767 118.439 56.0424 117.256 56.2395C117.848 54.8268 118.308 53.9397 119.425 53.6769ZM58.743 52.6912C58.5131 52.9869 58.1188 53.2498 58.0531 53.6111C57.626 55.5167 57.2975 57.4551 56.9361 59.3935C56.8704 59.7549 56.9361 60.1163 56.9361 60.4777C58.086 60.412 58.1188 60.412 58.2502 59.6563C58.4802 58.5393 58.5788 57.3565 58.9402 56.3052C59.2359 55.4838 59.7944 54.6625 60.4515 54.0711C60.78 53.7426 61.6342 53.6769 62.0613 53.874C62.4227 54.0383 62.6527 54.761 62.6527 55.2539C62.6527 56.0095 62.4227 56.7652 62.3242 57.5208C62.1599 58.5064 61.9956 59.4921 61.8313 60.5105C61.9299 60.5762 62.0613 60.6748 62.1599 60.7405C62.4884 60.5105 63.0469 60.3134 63.1126 60.0177C63.5069 58.3093 63.9012 56.6009 64.0654 54.8925C64.2297 53.2826 63.0469 52.297 61.4371 52.6912C60.7143 52.8555 60.0901 53.3155 59.4001 53.644C59.203 53.2826 58.973 52.9869 58.743 52.6912ZM147.351 50.72C147.975 50.72 148.731 50.8185 148.501 49.6029C146.201 49.6029 143.934 49.6029 141.634 49.6029C140.977 49.6029 140.78 49.9315 140.944 50.6543C141.897 50.72 142.85 50.7528 143.901 50.8185C143.31 54.104 142.718 57.2908 142.16 60.4448C143.441 60.8391 143.54 60.1491 143.671 59.3935C144.197 56.568 144.723 53.7097 145.281 50.7528C146.07 50.72 146.727 50.72 147.351 50.72ZM98.0038 59.5906C96.4925 59.6892 95.7697 58.9664 95.7369 57.4879C95.704 55.2867 97.281 53.6769 99.5151 53.6769C99.6794 53.6769 99.8765 53.7754 100.008 53.7097C100.238 53.6111 100.534 53.4797 100.566 53.2826C100.599 53.1183 100.369 52.8226 100.172 52.7241C100.008 52.6255 99.7451 52.6255 99.548 52.5927C96.9196 52.3298 94.6198 54.3996 94.357 57.1594C94.2584 58.375 94.4556 59.4921 95.5069 60.2148C96.6897 61.0362 98.0038 60.9376 99.2523 60.412C99.4494 60.3134 99.5151 59.9192 99.7779 59.3935C98.9566 59.4921 98.4966 59.5906 98.0038 59.5906ZM12.0244 59.4263C11.6958 59.4592 11.4001 59.5249 11.0716 59.5578C8.93606 59.7877 8.01615 58.7364 8.47611 56.6337C8.93606 54.6296 10.1517 53.7426 12.3529 53.6769C12.6486 53.6769 12.9443 53.3812 13.24 53.2498C12.9771 53.0198 12.7472 52.7898 12.4843 52.6255C12.3529 52.5598 12.1558 52.5927 11.9915 52.5927C9.42888 52.4941 7.29335 54.3996 6.99767 57.0608C6.86625 58.3093 7.03052 59.4921 8.18042 60.2806C9.33031 61.0691 10.5788 60.9705 11.7944 60.4777C12.0572 60.3791 12.1558 59.9849 12.3529 59.722C12.2215 59.5906 12.1229 59.492 12.0244 59.4263ZM179.219 51.837C179.121 52.3955 178.891 52.7241 178.3 52.7569C178.07 52.7569 177.807 52.9541 177.347 53.184C178.135 53.644 178.464 53.8411 178.825 54.0383C178.562 55.5495 178.267 56.9623 178.07 58.4407C178.004 58.9007 178.004 59.4263 178.135 59.8534C178.398 60.6419 179.088 60.8391 179.844 60.8062C180.468 60.8062 180.731 60.4777 180.632 59.8206C180.238 59.4592 179.187 59.722 179.351 58.7364C179.614 57.0937 179.909 55.451 180.205 53.874C181.979 53.6769 181.979 53.6769 182.012 52.7898C181.552 52.7241 181.092 52.6584 180.534 52.5927C180.566 52.0341 180.599 51.5742 180.632 51.0485C179.844 50.8842 179.351 51.1142 179.219 51.837ZM66.7266 51.8042C66.6609 52.0999 66.4966 52.4941 66.2995 52.5927C65.9053 52.7569 65.3139 52.6912 65.4453 53.2826C65.511 53.5783 66.0038 53.8083 66.3324 54.0711C66.0367 55.5167 65.741 56.9623 65.511 58.4079C65.3139 59.6563 65.6096 60.2806 66.4309 60.6091C67.1866 60.9376 68.0408 60.7734 68.1393 60.2477C68.3365 59.3278 67.4166 59.6563 67.088 59.3606C67.0552 59.3278 67.0223 59.2621 66.7923 58.9992C67.088 57.3894 67.3837 55.6153 67.6465 54.104C68.3365 53.3155 69.6506 54.2354 69.6835 52.8226C69.125 52.6912 68.6322 52.5927 68.1065 52.4613C68.1065 51.9356 68.1065 51.5085 68.1065 50.9828C67.318 50.95 66.858 51.0814 66.7266 51.8042ZM202.217 59.6892C202.809 56.2395 203.499 52.8226 204.123 49.4058C204.123 49.3072 204.057 49.2087 203.992 49.0444C203.663 49.0444 203.302 49.0444 202.874 49.0444C202.152 52.8226 201.462 56.568 200.739 60.412C201.659 60.6419 202.053 60.5434 202.217 59.6892ZM32.2297 49.143C30.7841 48.683 30.817 49.6029 30.6527 50.3257C30.0285 53.6111 29.4371 56.8637 28.8129 60.1491C28.8129 60.2477 28.8457 60.3463 28.8786 60.4777C29.24 60.4777 29.6014 60.4777 30.0613 60.4777C30.817 56.6666 31.5069 52.8884 32.2297 49.143ZM137.067 60.4448C137.593 60.4448 137.987 60.4448 138.382 60.4448C139.072 56.8309 139.729 53.3155 140.419 49.6686C139.959 49.6358 139.597 49.6029 139.104 49.6029C138.415 53.3155 137.757 56.8309 137.067 60.4448ZM70.8005 59.6235C70.932 58.605 71.1619 57.5865 71.4248 56.568C71.7533 55.3196 72.279 54.2025 73.6917 53.8083C74.3816 53.6111 74.4474 53.1512 74.1845 52.297C73.2975 52.7898 72.5747 53.2169 71.9504 53.5454C71.6876 53.2498 71.4576 52.9541 71.1948 52.6912C70.9977 52.9541 70.6691 53.184 70.5706 53.4797C70.3734 54.2682 70.2749 55.0896 70.1435 55.8781C69.8806 57.3565 69.6506 58.8678 69.3878 60.3791C70.242 60.6748 70.6691 60.5762 70.8005 59.6235ZM157.536 60.5105C157.963 60.5105 158.324 60.5105 158.784 60.5105C159.014 59.3606 159.211 58.2436 159.474 57.1265C159.835 55.681 160.263 54.3011 161.971 53.8083C162.267 53.7097 162.431 53.1512 162.694 52.7241C161.248 52.3298 160.69 53.3155 159.868 54.0383C159.868 53.5454 159.868 53.1512 159.868 52.7241C159.507 52.7241 159.244 52.7241 158.916 52.7241C158.456 55.4181 157.996 57.915 157.536 60.5105ZM124.386 52.6912C124.189 53.0198 123.86 53.3483 123.794 53.7097C123.4 55.7467 123.039 57.7836 122.677 59.8206C122.644 60.0177 122.71 60.2148 122.71 60.4448C123.137 60.4448 123.499 60.4448 123.86 60.4448C124.123 59.1964 124.386 58.0136 124.616 56.8637C124.911 55.451 125.47 54.3011 126.981 53.7754C127.31 53.6769 127.474 53.1512 127.77 52.7241C126.39 52.297 125.897 53.2826 125.306 53.6111C124.911 53.2826 124.649 52.9869 124.386 52.6912ZM110.85 53.6769C110.521 53.3155 110.258 52.9869 109.996 52.6912C109.798 53.0198 109.503 53.3483 109.437 53.7097C109.01 55.8452 108.649 57.9808 108.287 60.1163C108.287 60.2148 108.353 60.3134 108.386 60.4777C108.714 60.4777 109.076 60.4777 109.503 60.4777C109.766 59.2621 109.996 58.1122 110.226 56.9623C110.554 55.5167 111.047 54.2682 112.657 53.7754C112.952 53.6769 113.117 53.184 113.445 52.7241C111.934 52.3955 111.408 53.3155 110.85 53.6769ZM112.69 60.5434C113.314 60.5105 113.642 60.4777 114.037 60.4777C114.529 57.8822 114.989 55.3853 115.482 52.7569C115.022 52.7241 114.694 52.7241 114.201 52.6912C113.675 55.3524 113.215 57.8822 112.69 60.5434ZM198.833 53.8083C198.472 55.9438 198.045 58.0793 197.651 60.2148C197.651 60.2806 197.716 60.3791 197.815 60.5434C198.143 60.5105 198.505 60.5105 198.932 60.4777C199.425 57.9151 199.885 55.4181 200.378 52.8226C199.162 52.5598 198.965 53.0526 198.833 53.8083ZM35.548 50.95C36.1722 51.4756 36.9607 51.5085 37.6835 51.1471C38.3734 50.8185 38.8662 50.3257 38.6691 49.4058C36.3036 51.0485 36.665 50.6871 35.4823 49.3072C34.8909 49.9972 35.088 50.5229 35.548 50.95ZM207.737 51.1142C208.46 51.5085 209.248 51.4428 209.905 50.95C210.365 50.5886 210.989 50.1943 210.529 49.373C208.46 50.8843 208.92 50.8185 207.277 49.3072C206.883 50.1943 207.08 50.7528 207.737 51.1142ZM130.825 51.1471C131.548 51.5413 132.336 51.4428 132.994 50.9828C133.454 50.6543 134.045 50.2272 133.618 49.4058C131.548 50.8842 131.975 50.8843 130.332 49.373C129.971 50.2272 130.168 50.7857 130.825 51.1471ZM0.689658 63.9931C2.20095 64.0259 3.05516 63.4674 3.08801 62.4161C3.12087 61.6604 2.82518 61.2662 1.74099 61.5947C2.69376 62.9089 1.08391 63.1389 0.689658 63.9931ZM115.219 49.6686C114.924 49.7672 114.529 50.2272 114.529 50.5229C114.529 50.7528 115.055 51.1799 115.351 51.1799C115.647 51.1799 115.942 50.7528 116.468 50.26C115.877 49.9643 115.482 49.6029 115.219 49.6686ZM200.903 50.5229C201.035 50.0957 200.87 49.6686 200.279 49.6029C199.753 49.5701 199.392 49.8001 199.425 50.3257C199.425 50.6871 199.688 51.0157 199.95 51.7056C200.443 51.1142 200.805 50.8514 200.903 50.5229Z" fill="#1E1E1E"></path></g><defs><clipPath id="clip0_136_18590"><rect width="287.211" height="64" fill="white"></rect></clipPath></defs></svg> 