<?xml version="1.0" encoding="UTF-8"?> <svg xmlns="http://www.w3.org/2000/svg" width="297" height="62" viewBox="0 0 297 62" fill="none"><g clip-path="url(#clip0_136_18581)"><path d="M24.4664 12.4413C24.4405 11.925 24.3631 11.4346 24.3631 10.9184C24.3373 7.27892 24.3115 3.63946 24.2857 0C28.493 0 32.7003 0 36.9076 0C36.8818 1.88426 36.8302 3.76852 36.8302 5.65278C36.8044 7.84678 36.8302 10.0408 36.8302 12.3638C40.9343 12.3638 44.9867 12.3638 49.1166 12.3638C49.1166 16.5712 49.1166 20.6236 49.1166 24.8051C45.1158 24.8051 41.0891 24.8051 36.9076 24.8051C36.8818 25.373 36.8302 25.8118 36.8302 26.2764C36.8302 29.4512 36.8302 32.6261 36.8302 35.8268C36.8302 36.2914 36.7528 36.756 36.727 37.2206C32.6487 37.2206 28.5704 37.2206 24.4922 37.2206C24.4664 36.8334 24.3889 36.4721 24.3889 36.0849C24.3889 32.6519 24.3889 29.2448 24.3889 25.8118C24.3889 25.4762 24.4405 25.1407 24.4922 24.8051C28.5446 24.8051 32.5971 24.8051 36.6753 24.8051C36.6753 20.6236 36.6753 16.5712 36.6753 12.4413C32.5196 12.4413 28.493 12.4413 24.4664 12.4413Z" fill="#01CADF"></path><path d="M48.9617 49.6361C50.7169 49.507 52.4463 49.2489 54.0467 48.4745C58.5121 46.3063 60.8868 42.7185 61.3514 37.8143C61.3772 37.6078 61.403 37.4013 61.403 37.169C65.4813 37.169 69.5854 37.169 73.6636 37.169C73.7669 40.6794 73.0958 44.0607 71.7536 47.313C68.0108 56.4504 59.5962 62.0257 49.7619 61.9999C49.5038 61.9999 49.2457 61.9741 48.9876 61.9483C48.9876 57.8442 48.9876 53.7401 48.9617 49.6361Z" fill="#01CADF"></path><path d="M12.3348 24.8051C8.25655 24.8051 4.15248 24.8051 0.0742188 24.8051C0.0742188 20.7269 0.0742188 16.6744 0.0742188 12.4929C4.15248 12.4929 8.17912 12.4929 12.3348 12.4929C12.3348 16.6228 12.3348 20.7269 12.3348 24.8051Z" fill="#01CADF"></path><path d="M12.338 24.8053C12.3638 25.1924 12.3897 25.5796 12.3897 25.9668C12.3897 37.5563 12.3897 49.1716 12.3897 60.7611C12.3897 61.1482 12.3897 61.5096 12.3897 61.9484C8.25977 61.9484 4.23313 61.9484 0.129059 61.9484C0.103247 61.7419 0 61.5096 0 61.2773C0 49.3006 0 37.2982 0 25.3215C0 25.1408 0.0258149 24.9859 0.0516267 24.8053C4.18151 24.8053 8.25977 24.8053 12.338 24.8053Z" fill="#01355B"></path><path d="M73.6668 37.1949C69.5886 37.1949 65.4845 37.1949 61.4062 37.1949C61.2514 32.5488 62.4903 28.264 64.9425 24.3665C69.5111 17.0617 76.1706 13.1383 84.7401 12.4672C85.1273 12.4414 85.5144 12.4672 86.0049 12.4672C86.0049 16.5455 86.0049 20.5979 86.0049 24.7536C85.5144 24.8311 84.9724 24.9085 84.4304 24.9859C78.3904 25.8635 74.1056 30.5613 73.7443 36.6787C73.7185 36.8335 73.6926 37.0142 73.6668 37.1949Z" fill="#01355B"></path><path d="M48.965 49.6362C48.965 53.7403 48.9908 57.8443 48.9908 61.9226C44.6802 62.1033 40.6536 60.9676 36.9883 58.7994C28.9608 54.05 24.7793 46.9001 24.3921 37.5821C24.3921 37.453 24.4438 37.324 24.4696 37.2207C28.5478 37.2207 32.6261 37.2207 36.7044 37.2207C36.8076 38.0725 36.885 38.9243 37.0657 39.7503C38.2789 45.3772 42.7959 49.2232 48.5778 49.5846C48.7068 49.6104 48.8359 49.6362 48.965 49.6362Z" fill="#01355B"></path><path d="M24.4696 12.4414C28.4962 12.4414 32.5228 12.4414 36.6269 12.4414C36.6269 16.5713 36.6269 20.6237 36.6269 24.8053C32.5745 24.8053 28.4962 24.8053 24.4438 24.8053C24.418 21.7078 24.3921 18.6104 24.3663 15.5388C24.3921 14.4805 24.4438 13.4739 24.4696 12.4414Z" fill="#01355B"></path><path d="M257.226 10.7143C257.226 9.65714 257.226 8.57143 257.226 7.51429C257.226 5.65715 257.226 3.8 257.226 1.94286C257.226 1.42858 257.284 1.08571 258.004 1.28571C258.004 5.02857 258.004 8.82857 258.004 12.6286C257.313 12.8857 257.111 12.2857 256.794 11.9143C254.663 9.28572 252.561 6.62857 250.459 3.97143C250.171 3.6 249.854 3.25714 249.393 2.68571C249.364 3.28571 249.307 3.62857 249.307 4C249.307 6.57143 249.307 9.14286 249.307 11.7143C249.307 12.2 249.451 12.8286 248.5 12.6286C248.5 8.85714 248.5 5.11429 248.5 1.34286C249.22 0.885716 249.508 1.45714 249.854 1.88571C251.927 4.48571 254.03 7.08571 256.103 9.71428C256.391 10.0571 256.679 10.4286 256.967 10.7714C257.054 10.7714 257.14 10.7429 257.226 10.7143Z" fill="#070707"></path><path d="M161.413 12.7143C161.413 8.85714 161.413 5.11428 161.413 1.28571C163.313 1.28571 165.157 1.2 167 1.31429C168.929 1.42857 170.225 2.62858 170.369 4.22858C170.542 5.94286 169.678 7.05714 167.691 7.71428C167.547 7.77143 167.432 7.82858 167.115 7.94286C168.324 9.51429 169.476 11.0286 170.686 12.5429C169.764 12.7429 169.736 12.7714 169.275 12.2C168.353 11.0286 167.461 9.88571 166.568 8.68571C166.193 8.17143 165.79 7.94285 165.128 7.97143C164.235 8.02857 163.313 7.97143 162.421 7.97143C162.277 9.6 162.133 11.1714 161.96 12.7143C161.931 12.7143 161.672 12.7143 161.413 12.7143ZM162.306 7.05714C163.976 7.05714 165.589 7.17143 167.201 7.02857C168.641 6.88571 169.476 5.8 169.476 4.51429C169.448 3.22858 168.612 2.28571 167.086 2.14286C165.531 2.02857 163.947 2.11428 162.306 2.11428C162.306 3.77143 162.306 5.4 162.306 7.05714Z" fill="#070707"></path><path d="M186.727 12.6C186.727 9.45714 186.727 6.34286 186.727 3.2C186.641 3.17143 186.583 3.11429 186.497 3.08572C185.057 5.17143 183.588 7.22857 182.062 9.42857C180.564 7.25714 179.153 5.22857 177.713 3.17143C177.626 3.2 177.569 3.2 177.482 3.22857C177.482 4.65715 177.482 6.11428 177.482 7.54285C177.482 9.02857 177.482 10.4857 177.482 11.9714C177.482 12.4286 177.482 12.8571 176.705 12.7143C176.705 8.97143 176.705 5.17143 176.705 1.37143C177.425 0.971431 177.655 1.57143 177.972 2.02857C179.153 3.74286 180.334 5.48572 181.514 7.22857C181.658 7.42857 181.802 7.6 182.033 7.91429C182.292 7.6 182.522 7.34286 182.724 7.05714C183.876 5.37143 185.057 3.68571 186.209 2C186.497 1.57143 186.784 1.08571 187.562 1.42857C187.562 4.97143 187.562 8.6 187.533 12.2C187.533 12.4286 187.216 12.6857 187.044 12.9143C186.957 12.7714 186.842 12.6857 186.727 12.6Z" fill="#070707"></path><path d="M242.222 6.94286C242.222 10.2857 239.717 12.9143 236.434 12.9429C233.179 13 230.587 10.4 230.53 7.05715C230.472 3.65715 233.064 1 236.405 1C239.717 1.02857 242.222 3.57143 242.222 6.94286ZM236.318 1.82857C233.554 1.85714 231.509 4.05714 231.509 6.97143C231.509 9.91428 233.698 12.1714 236.491 12.1429C239.227 12.1143 241.329 9.85714 241.329 6.97143C241.301 4.05714 239.141 1.8 236.318 1.82857Z" fill="#070707"></path><path d="M149.346 1.02857C152.658 1.05714 155.135 3.62857 155.106 7C155.106 10.3429 152.543 12.9429 149.288 12.9714C146.005 13 143.471 10.4 143.442 7.02857C143.442 3.6 146.005 1 149.346 1.02857ZM144.393 7.02857C144.421 9.91429 146.524 12.1429 149.26 12.1429C152.053 12.1714 154.213 9.88572 154.184 6.94286C154.155 4 151.967 1.8 149.144 1.82857C146.409 1.88571 144.364 4.08571 144.393 7.02857Z" fill="#070707"></path><path d="M114.528 2.94286C114.528 6.20001 114.528 9.45714 114.528 12.6857C113.636 12.8857 113.722 12.3429 113.722 11.8857C113.722 9.45715 113.722 7.02858 113.722 4.6C113.722 3.54286 113.722 2.51429 113.722 1.42857C114.471 0.94286 114.816 1.51429 115.191 2C117.264 4.6 119.338 7.2 121.44 9.82857C121.728 10.1714 122.016 10.5143 122.506 11.0571C122.506 7.65715 122.506 4.54286 122.506 1.45715C123.37 1.02858 123.427 1.48572 123.427 2.08572C123.427 4.45715 123.427 6.82858 123.427 9.22858C123.427 10.3714 123.427 11.5143 123.427 12.6286C122.592 13 122.362 12.3143 122.045 11.9143C119.799 9.14286 117.581 6.34286 115.364 3.54286C115.191 3.31429 115.018 3.11429 114.816 2.91429C114.73 2.88572 114.644 2.91429 114.528 2.94286Z" fill="#070707"></path><path d="M204.553 12.8C203.085 12.3143 203.373 10.5429 202.365 9.60001C200.205 9.60001 197.958 9.60001 195.77 9.60001C194.877 10.5714 195.021 12.2286 193.351 12.6286C193.523 12.2572 193.667 11.9143 193.84 11.5429C195.309 8.34286 196.778 5.17143 198.304 1.97143C198.477 1.62857 198.794 1.28572 199.139 1.17143C199.283 1.11429 199.744 1.57143 199.859 1.85715C201.529 5.42858 203.2 9 204.841 12.5714C204.784 12.6571 204.669 12.7143 204.553 12.8ZM202.077 8.65715C201.069 6.48572 200.147 4.42858 199.082 2.14286C198.016 4.48572 197.066 6.54286 196.058 8.74286C197.901 8.74286 199.571 8.74286 201.241 8.74286C201.501 8.71429 201.702 8.68572 202.077 8.65715Z" fill="#070707"></path><path d="M137.51 6.68571C137.654 7.51428 137.308 7.54286 136.876 7.54286C135.436 7.54286 133.996 7.54286 132.556 7.54286C132.096 7.54286 131.606 7.54286 131.03 7.54286C131.03 9.28571 131.03 10.9429 131.03 13C130.569 12.6 130.252 12.4571 130.166 12.2286C130.051 11.9429 130.137 11.5714 130.137 11.2286C130.137 7.94286 130.137 4.65715 130.137 1.2C132.902 1.2 135.638 1.2 138.345 1.2C138.374 1.37143 138.403 1.54286 138.431 1.71429C138.143 1.8 137.855 1.97143 137.539 1.97143C135.868 2 134.198 1.97143 132.499 1.97143C132.038 1.97143 131.577 1.97143 131.059 1.97143C131.059 3.6 131.059 5.05715 131.059 6.65715C133.219 6.68572 135.35 6.68571 137.51 6.68571Z" fill="#070707"></path><path d="M212.387 2.08572C208.585 1.88572 208.585 1.88572 208.326 1.34286C211.321 1.34286 214.287 1.34286 217.311 1.34286C216.966 2.02857 216.966 2.02857 215.439 2.02857C214.748 2.02857 214.028 2.02857 213.251 2.02857C213.251 5.68572 213.251 9.14286 213.251 12.6C212.79 12.8 212.415 12.8857 212.358 12.3143C212.329 11.8857 212.358 11.4571 212.358 11.0286C212.358 8.51429 212.358 6 212.358 3.45714C212.387 2.97143 212.387 2.51429 212.387 2.08572Z" fill="#070707"></path><path d="M224.165 12.6857C223.906 12.6857 223.676 12.6857 223.33 12.6857C223.33 11.5714 223.33 10.4857 223.33 9.4C223.33 6.94286 223.33 4.45715 223.33 2C223.33 1.4 223.417 1.05715 224.194 1.34286C224.165 5.08572 224.165 8.85715 224.165 12.6857Z" fill="#070707"></path><path d="M106.004 1.34286C106.954 1.05715 106.925 1.57144 106.925 2.08572C106.925 4.74287 106.925 7.40001 106.925 10.0572C106.925 10.9143 106.925 11.7429 106.925 12.6C106.062 12.9714 106.004 12.4857 106.004 11.8857C106.004 9.57143 106.004 7.22858 106.004 4.91429C106.004 3.74286 106.004 2.57144 106.004 1.34286Z" fill="#070707"></path><path d="M193.618 33.204C193.618 29.1175 193.618 25.311 193.618 21.4204C194.682 21.4204 195.632 21.4204 196.697 21.4204C196.697 27.1303 196.697 32.8401 196.697 38.522C196.582 38.578 196.496 38.6339 196.409 38.6619C194.769 38.9698 193.704 38.382 192.725 37.0105C190.423 33.8757 187.89 30.8529 185.472 27.802C185.184 27.4381 184.896 27.1303 184.378 26.5145C184.378 30.7409 184.378 34.6314 184.378 38.578C183.313 38.578 182.364 38.578 181.327 38.578C181.327 32.8961 181.327 27.1862 181.327 21.2805C182.105 21.2805 182.968 21.1965 183.803 21.3085C184.177 21.3644 184.551 21.8123 184.839 22.1481C187.487 25.4509 190.135 28.7816 192.754 32.0844C192.984 32.4203 193.215 32.7002 193.618 33.204Z" fill="#070707"></path><path d="M248.016 38.9418C242.663 38.9418 238.72 35.1353 238.72 29.9852C238.748 24.8911 242.807 21.0006 248.074 21.0006C253.341 21.0006 257.399 24.9191 257.371 30.0132C257.342 35.1073 253.312 38.9418 248.016 38.9418ZM254.032 30.0692C254.032 26.5705 251.441 23.8835 248.045 23.8555C244.649 23.8275 242.001 26.5425 242.03 30.0412C242.058 33.5119 244.678 36.1709 248.103 36.1429C251.499 36.1149 254.032 33.5399 254.032 30.0692Z" fill="#070707"></path><path d="M210.369 38.9418C205.13 38.9138 201.159 35.0793 201.159 30.0412C201.159 24.9191 205.303 20.9446 210.628 21.0006C215.924 21.0566 219.867 24.9471 219.81 30.0972C219.752 35.1912 215.694 38.9698 210.369 38.9418ZM204.497 29.9852C204.497 33.5119 207.088 36.1149 210.513 36.1149C213.909 36.1149 216.442 33.5399 216.471 30.0692C216.5 26.5985 213.88 23.8835 210.484 23.8275C207.088 23.7995 204.497 26.4585 204.497 29.9852Z" fill="#070707"></path><path d="M277 23.3797C276.309 24.1634 275.705 24.8631 275.187 25.4789C273.834 24.9471 272.625 24.2753 271.33 23.9955C268.078 23.3517 265.343 25.115 264.48 28.2499C263.53 31.6086 265.286 35.0233 268.481 35.891C270.294 36.3948 272.078 36.1709 273.777 35.3312C274.352 35.0513 274.669 34.7154 274.611 34.0437C274.554 33.3159 274.611 32.5602 274.611 31.6646C273.086 31.6646 271.618 31.6646 270.121 31.6646C270.121 30.7129 270.121 29.8732 270.121 29.0336C270.495 29.0056 270.841 28.9776 271.157 28.9776C273.258 28.9776 275.36 28.9776 277.605 28.9776C277.605 31.3287 277.633 33.5958 277.576 35.863C277.576 36.1709 277.259 36.5347 277 36.7306C273.748 39.0538 270.179 39.6416 266.408 38.2701C262.782 36.9546 260.594 33.26 260.94 29.3134C261.285 25.311 264.106 22.0362 267.962 21.2525C271.244 20.6087 274.237 21.1685 277 23.3797Z" fill="#070707"></path><path d="M127.533 24.0794C127.533 25.5909 127.533 26.9903 127.533 28.5018C130.411 28.5018 133.318 28.5018 136.312 28.5018C136.312 29.4814 136.312 30.3211 136.312 31.3287C133.405 31.3287 130.498 31.3287 127.562 31.3287C127.562 32.8961 127.562 34.2956 127.562 35.891C130.872 35.891 134.182 35.891 137.578 35.891C137.578 36.8986 137.578 37.7663 137.578 38.6619C133.203 38.6619 128.857 38.6619 124.425 38.6619C124.425 32.8961 124.425 27.1583 124.425 21.3644C128.771 21.3644 133.059 21.3644 137.463 21.3644C137.463 22.2601 137.463 23.0998 137.463 24.1074C134.124 24.0794 130.843 24.0794 127.533 24.0794Z" fill="#070707"></path><path d="M164.519 38.6059C163.338 38.6059 162.389 38.6059 161.381 38.6059C161.381 32.8401 161.381 27.1303 161.381 21.3364C162.389 21.3364 163.338 21.3364 164.403 21.3364C164.403 23.6596 164.403 25.9827 164.403 28.3898C167.253 28.3898 169.987 28.3898 172.894 28.3898C172.894 26.0947 172.894 23.7435 172.894 21.3364C174.017 21.3364 174.995 21.3364 176.031 21.3364C176.031 27.1023 176.031 32.8121 176.031 38.578C175.024 38.578 174.074 38.578 173.009 38.578C173.009 36.2548 173.009 33.8757 173.009 31.4127C170.16 31.4127 167.397 31.4127 164.519 31.4127C164.519 33.7918 164.519 36.1429 164.519 38.6059Z" fill="#070707"></path><path d="M155.366 34.0716C156.028 34.6874 156.661 35.2752 157.323 35.891C154.502 39.6416 147.854 40.0054 144.256 36.8986C140.399 33.5958 140.053 27.5501 143.536 23.8555C147.278 19.853 154.186 20.3848 157.265 23.8275C156.632 24.5273 155.999 25.255 155.366 25.9827C151.307 23.2957 148.228 23.2957 145.983 25.8428C143.91 28.1939 143.968 32.0284 146.098 34.3236C148.4 36.7866 151.48 36.7027 155.366 34.0716Z" fill="#070707"></path><path d="M111.559 24.1634C109.573 24.1634 107.817 24.1634 106.004 24.1634C106.004 23.2117 106.004 22.3441 106.004 21.3924C110.724 21.3924 115.445 21.3924 120.251 21.3924C120.251 22.2601 120.251 23.1558 120.251 24.2194C118.467 24.2194 116.653 24.2194 114.754 24.2194C114.754 29.0895 114.754 33.8197 114.754 38.6339C113.66 38.6339 112.653 38.6339 111.559 38.6339C111.559 33.8197 111.559 29.0895 111.559 24.1634Z" fill="#070707"></path><path d="M297.004 21.3364C296.054 22.7359 295.248 23.9395 294.442 25.115C293.262 26.8504 292.111 28.6417 290.873 30.3491C290.182 31.3007 289.837 32.2523 289.895 33.4559C289.981 35.1632 289.923 36.8706 289.923 38.6339C288.83 38.6339 287.851 38.6339 286.729 38.6339C286.729 36.7307 286.671 34.8833 286.757 33.036C286.786 32.1964 286.527 31.5246 286.067 30.8529C284.138 28.0259 282.239 25.171 280.339 22.3441C280.166 22.0922 279.994 21.8123 279.677 21.3364C280.886 21.3364 281.922 21.2525 282.929 21.3644C283.303 21.3924 283.678 21.8403 283.937 22.2041C285.405 24.3873 286.815 26.5985 288.369 28.9776C290.096 26.3746 291.737 23.8835 293.406 21.3644C294.557 21.3364 295.651 21.3364 297.004 21.3364Z" fill="#070707"></path><path d="M224.242 21.3644C225.249 21.3644 226.17 21.3644 227.322 21.3644C227.322 23.7715 227.322 26.1786 227.322 28.5857C227.322 30.9648 227.322 33.3159 227.322 35.835C230.43 35.835 233.452 35.835 236.59 35.835C236.59 36.8146 236.59 37.6543 236.59 38.6059C232.503 38.6059 228.415 38.6059 224.242 38.6059C224.242 32.9241 224.242 27.2142 224.242 21.3644Z" fill="#070707"></path><path d="M135.84 56.3357C135.84 57.881 135.84 59.3405 135.84 60.9145C138.283 60.9145 140.698 60.9145 143.084 60.9145C143.371 61.544 143.141 61.7444 142.652 61.7444C140.123 61.7444 137.593 61.7444 134.978 61.7444C134.978 57.881 134.978 54.1036 134.978 50.2688C137.708 50.2688 140.41 50.2688 143.084 50.2688C143.285 51.0701 142.796 51.0129 142.365 51.0129C140.583 51.0129 138.829 51.0129 137.047 51.0129C136.674 51.0129 136.3 51.0129 135.84 51.0129C135.84 52.5582 135.84 54.0177 135.84 55.563C138.025 55.563 140.152 55.563 142.279 55.563C142.509 56.1926 142.221 56.3357 141.761 56.3357C140.382 56.3357 138.973 56.3357 137.593 56.3357C137.019 56.3357 136.472 56.3357 135.84 56.3357Z" fill="#070707"></path><path d="M182.836 61.773C181.342 61.3151 181.658 59.5408 180.623 58.5679C178.554 58.5679 176.311 58.5679 174.069 58.5679C173.495 59.5981 172.891 60.6569 172.259 61.7158C172.201 61.8016 171.914 61.7158 171.597 61.7158C171.856 61.0862 172.086 60.5997 172.316 60.0846C173.725 57.0225 175.133 53.9605 176.57 50.927C176.714 50.6123 177.088 50.2688 177.404 50.1544C177.576 50.0971 177.979 50.5264 178.122 50.8412C179.79 54.3897 181.428 57.9669 183.095 61.544C183.009 61.6013 182.923 61.6871 182.836 61.773ZM174.386 57.6235C176.426 57.6235 178.324 57.6235 180.336 57.6235C179.358 55.4772 178.439 53.4454 177.375 51.1274C176.311 53.4454 175.363 55.4772 174.386 57.6235Z" fill="#070707"></path><path d="M113.621 51.9C112.586 51.528 111.666 51.0987 110.718 50.8984C110.086 50.784 109.367 50.8984 108.763 51.0987C107.901 51.3849 107.326 52.0145 107.297 53.0161C107.269 53.9605 107.757 54.5614 108.562 54.9048C109.252 55.191 110.028 55.3627 110.747 55.5917C111.379 55.792 112.04 55.9351 112.644 56.1926C113.765 56.6505 114.426 57.4804 114.455 58.7109C114.455 60.0273 113.822 61.0003 112.615 61.544C110.977 62.2595 109.338 62.0878 107.757 61.3437C107.125 61.0575 106.55 60.5997 106.004 60.2563C106.263 59.3977 106.608 59.5408 107.096 59.9415C108.217 60.8572 109.511 61.2865 110.948 61.1434C111.465 61.0862 111.983 60.9431 112.443 60.7142C113.19 60.3421 113.535 59.6553 113.535 58.854C113.535 57.9955 113.104 57.3945 112.328 57.0798C111.753 56.8508 111.149 56.7077 110.574 56.5074C109.712 56.2499 108.792 56.0781 107.987 55.6775C105.889 54.6473 105.831 51.9573 107.815 50.6981C109.367 49.7251 112.27 49.9827 113.65 51.156C113.937 51.3277 113.937 51.3277 113.621 51.9Z" fill="#070707"></path><path d="M209.568 60.199C209.999 59.1688 210.373 59.6267 210.747 59.9129C211.896 60.8286 213.19 61.2293 214.627 61.0289C215.259 60.9431 215.949 60.6855 216.438 60.3135C217.559 59.3978 217.358 57.7666 216.093 57.0798C215.518 56.765 214.828 56.6219 214.196 56.4216C213.391 56.164 212.529 55.9923 211.753 55.6775C210.632 55.2196 209.999 54.4183 209.999 53.1592C209.999 51.8714 210.66 51.0415 211.753 50.4405C213.075 49.6965 216.495 49.9254 217.588 51.5566C217.444 51.6997 217.3 51.8714 217.243 51.9286C216.237 51.5566 215.317 51.0987 214.368 50.927C213.707 50.784 212.931 50.927 212.27 51.156C211.465 51.4135 210.948 52.0431 210.89 52.9589C210.833 53.9032 211.293 54.5328 212.098 54.8762C212.788 55.1624 213.535 55.3341 214.282 55.563C214.915 55.7634 215.576 55.9064 216.179 56.164C217.358 56.6219 218.048 57.4804 218.048 58.7682C218.019 60.0846 217.329 61.0289 216.122 61.544C214.627 62.1736 213.104 62.0592 211.666 61.4296C210.948 61.0862 210.287 60.5997 209.568 60.199Z" fill="#070707"></path><path d="M159.151 59.7984C156.766 62.5457 152.598 62.5457 150.384 60.2563C148.142 57.9097 148.142 54.0463 150.413 51.6997C152.77 49.2672 156.909 49.5534 158.95 51.8714C158.806 52.0431 158.691 52.2148 158.462 52.4724C158.059 52.1862 157.685 51.9 157.312 51.6711C155.156 50.2688 152.425 50.6122 150.816 52.5296C149.149 54.5328 149.206 57.7093 150.959 59.6267C152.627 61.4296 155.386 61.6871 157.484 60.199C157.743 59.9987 157.973 59.7125 158.26 59.5981C158.49 59.4836 158.778 59.6553 159.151 59.7984Z" fill="#070707"></path><path d="M121.583 57.3373C121.411 58.9971 121.267 60.3421 121.094 61.7158C121.094 61.7444 120.836 61.7158 120.606 61.7158C120.606 57.9097 120.606 54.1322 120.606 50.2688C122.33 50.2688 124.084 50.1258 125.808 50.2975C127.907 50.5264 129.085 51.9859 129.057 53.8174C128.999 55.6203 127.706 57.0798 125.693 57.3087C124.343 57.4518 122.963 57.3373 121.583 57.3373ZM121.439 56.7077C122.992 56.6219 124.429 56.6505 125.837 56.4216C127.303 56.1926 128.165 55.0765 128.165 53.7601C128.165 52.3865 127.361 51.3277 125.837 51.1274C124.4 50.9557 122.934 51.0987 121.468 51.0987C121.439 52.9589 121.439 54.7045 121.439 56.7077Z" fill="#070707"></path><path d="M227.964 51.0129C227.964 54.3611 227.964 57.5376 227.964 60.7142C227.964 61.2006 228.165 61.8302 227.131 61.6585C227.131 58.1672 227.131 54.6759 227.131 51.156C225.751 50.7267 224.256 51.2991 222.992 50.784C223.02 50.5836 223.049 50.4119 223.107 50.2116C226.01 50.2116 228.884 50.2116 231.845 50.2116C232.103 50.6409 232.103 50.9557 231.414 50.9843C230.321 51.0129 229.229 51.0129 227.964 51.0129Z" fill="#070707"></path><path d="M188.93 61.6299C188.93 57.7952 188.93 54.0177 188.93 50.2402C189.218 50.2402 189.447 50.2402 189.792 50.2402C189.792 53.7888 189.792 57.2801 189.792 60.8C192.121 61.2865 194.42 60.4566 196.576 61.2865C196.605 61.2865 196.547 61.4582 196.518 61.6585C194.046 61.6299 191.546 61.6299 188.93 61.6299Z" fill="#070707"></path><path d="M165.791 61.6299C164.756 61.9733 164.785 61.401 164.785 60.8286C164.785 58.1958 164.785 55.5917 164.785 52.9589C164.785 52.0717 164.785 51.156 164.785 50.3261C165.389 50.0399 165.734 50.0971 165.762 50.7267C165.791 51.3563 165.762 51.9573 165.762 52.5868C165.791 55.563 165.791 58.5678 165.791 61.6299Z" fill="#070707"></path><path d="M202.641 61.6585C202.641 57.7952 202.641 54.0177 202.641 50.2688C203.474 50.0113 203.446 50.5264 203.446 51.0415C203.446 53.1878 203.446 55.3055 203.446 57.4518C203.446 58.6251 203.446 59.827 203.446 61.0003C203.474 61.4868 203.388 61.8588 202.641 61.6585Z" fill="#070707"></path></g><defs><clipPath id="clip0_136_18581"><rect width="297.005" height="62" fill="white"></rect></clipPath></defs></svg> 