<?xml version="1.0" encoding="UTF-8"?> <svg xmlns="http://www.w3.org/2000/svg" width="12" height="12" viewBox="0 0 12 12" fill="none"><g clip-path="url(#clip0_127_16238)"><path d="M6 5.49927V8.49927M11 5.99927C11 8.76069 8.76142 10.9993 6 10.9993C3.23858 10.9993 1 8.76069 1 5.99927C1 3.23784 3.23858 0.999268 6 0.999268C8.76142 0.999268 11 3.23784 11 5.99927Z" stroke="#F4F5F6" stroke-width="0.75" stroke-linecap="round"></path><path d="M6.5 3.99927C6.5 4.27541 6.27614 4.49927 6 4.49927C5.72386 4.49927 5.5 4.27541 5.5 3.99927C5.5 3.72313 5.72386 3.49927 6 3.49927C6.27614 3.49927 6.5 3.72313 6.5 3.99927Z" fill="#F4F5F6"></path></g><defs><clipPath id="clip0_127_16238"><rect width="12" height="12" fill="white" transform="translate(0 -0.000732422)"></rect></clipPath></defs></svg> 