<?xml version="1.0" encoding="UTF-8"?> <svg xmlns="http://www.w3.org/2000/svg" width="48" height="48" viewBox="0 0 48 48" fill="none"><path d="M5.96713 27.0615C4.90273 27.0615 4.19476 25.9678 4.62931 24.9962L9.74136 13.6051C12.1436 7.90719 17.8122 3.92301 24.4037 4.00113C32.9726 4.10366 39.9645 11.242 39.9059 19.8109C39.8815 23.0627 38.8659 26.0801 37.1521 28.58C32.7871 34.7174 32.1621 35.2886 32.1621 39.8783V41.8313C32.1621 42.6418 31.5079 43.2961 30.6974 43.2961H17.5632C16.7527 43.2961 16.0985 42.6418 16.0985 41.8313V39.2386C16.0985 38.4281 15.4442 37.7739 14.6337 37.7739H10.7179C9.90737 37.7739 9.2531 37.1196 9.2531 36.3091V28.5263C9.2531 27.7158 8.59884 27.0615 7.78833 27.0615H5.97202H5.96713Z" fill="url(#paint0_linear_136_18478)"></path><path fill-rule="evenodd" clip-rule="evenodd" d="M14.8816 24.9983C14.447 25.97 15.1551 27.0638 16.2196 27.0638H18.041C18.8516 27.0638 19.5059 27.7182 19.5059 28.5287V36.3123C19.5059 37.1229 20.1602 37.7773 20.9708 37.7773H24.887C25.6976 37.7773 26.3519 38.4316 26.3519 39.2422V41.8351C26.3519 42.6091 26.9486 43.2407 27.7083 43.2961H30.6934C31.504 43.2961 32.1582 42.6418 32.1582 41.8313V39.8783C32.1582 35.5743 32.7078 34.804 36.376 29.6635C36.6194 29.3223 36.8766 28.9619 37.1482 28.58C38.862 26.0801 39.8776 23.0627 39.902 19.8109C39.9488 12.9586 35.4871 7.02111 29.3158 4.86477C25.1078 6.32588 21.714 9.52685 19.9942 13.6061L14.8816 24.9983Z" fill="url(#paint1_linear_136_18478)"></path><defs><linearGradient id="paint0_linear_136_18478" x1="4.49933" y1="23.5318" x2="39.9062" y2="23.5318" gradientUnits="userSpaceOnUse"><stop stop-color="#FB7D80"></stop><stop offset="1" stop-color="#F71C2C"></stop></linearGradient><linearGradient id="paint1_linear_136_18478" x1="14.7516" y1="23.9667" x2="39.9023" y2="23.9667" gradientUnits="userSpaceOnUse"><stop stop-color="#E31B23"></stop><stop offset="1" stop-color="#A21016"></stop></linearGradient></defs></svg> 