<?xml version="1.0" encoding="UTF-8"?> <svg xmlns="http://www.w3.org/2000/svg" width="144" height="36" viewBox="0 0 144 36" fill="none"><g opacity="0.8"><path d="M14.6934 7.84054V23.4666C14.6934 23.9908 14.518 24.1905 13.9919 24.1905C13.2064 24.1739 12.4098 24.1794 11.617 24.185H11.6156C11.2203 24.1878 10.826 24.1905 10.4344 24.1905C9.60768 24.1905 9.55757 24.1156 9.78304 23.3169C10.3591 21.3703 10.9602 19.4487 11.5613 17.5271L11.5616 17.5264L11.5618 17.5257L11.5622 17.5244C12.4639 14.5793 13.3657 11.6343 14.2925 8.68925C14.3072 8.63551 14.3191 8.58082 14.331 8.52555C14.3801 8.29838 14.4314 8.06139 14.6934 7.84054Z" fill="white"></path><path d="M15.9209 29.732V25.7881C15.9209 25.3887 16.2216 25.3887 16.4971 25.3887C18.9272 25.3887 21.3573 25.3887 23.8375 25.5634C22.4775 26.287 21.1105 27.0037 19.7218 27.7317C18.4758 28.385 17.2124 29.0473 15.9209 29.732Z" fill="white"></path><path fill-rule="evenodd" clip-rule="evenodd" d="M17.5247 34.2001C27.4204 34.275 34.7609 26.2623 34.7108 17.1512C34.811 7.86544 27.1198 0.102326 17.7502 0.0024799C8.48069 -0.122329 0.639234 7.54094 0.513971 16.7518C0.363658 26.2124 7.75417 34.1253 17.5247 34.2001ZM15.896 13.6816V23.217C15.896 24.1655 15.896 24.1905 16.8981 24.1905C19.8293 24.1905 22.7855 24.1905 25.7166 24.1656C25.7848 24.1656 25.8544 24.164 25.9249 24.1625C26.1393 24.1578 26.361 24.1529 26.5684 24.1905C27.1196 24.2904 27.32 24.8146 26.9192 25.2139C26.7438 25.3887 26.5183 25.5135 26.2929 25.6383C25.4158 26.1009 24.5404 26.5636 23.6658 27.0258L23.6649 27.0263C21.1422 28.3595 18.6262 29.6892 16.0965 31.0051C14.944 31.6042 14.6935 31.4294 14.6685 30.1314C14.6434 28.8334 14.6434 27.5104 14.6685 26.2124C14.6685 25.6133 14.468 25.3887 13.8417 25.4136C12.3215 25.4633 10.8013 25.4389 9.25649 25.414L9.23204 25.4136C8.12973 25.4136 7.90426 25.0891 8.22994 24.0158C8.85082 22.009 9.46941 20.0022 10.0878 17.9961L10.0887 17.9933C11.516 13.3628 12.9423 8.73592 14.3929 4.12122C14.4187 4.03555 14.4408 3.94106 14.4635 3.84392C14.5732 3.37505 14.6973 2.84463 15.3198 2.94802C15.9494 3.04919 15.904 3.57684 15.8642 4.03899C15.8549 4.14695 15.8459 4.25134 15.8459 4.34587C15.896 7.44114 15.896 10.5614 15.896 13.6816Z" fill="white"></path><path d="M76.1359 5.48643C74.7405 7.04408 73.4749 8.53684 72.1768 9.93224C71.5603 10.6137 71.5603 11.1329 72.1768 11.7819C73.5073 13.1773 74.8054 14.6376 76.1034 16.0979C76.3306 16.3576 76.6876 16.5523 76.7525 17.1039C75.2273 17.1364 73.7021 17.6231 72.5663 15.9357C71.7874 14.7675 70.749 13.7615 69.8079 12.723C69.5483 12.431 69.386 11.9118 68.8993 12.074C68.5099 12.2363 68.6721 12.723 68.6721 13.08C68.6397 14.086 68.6072 15.092 68.6721 16.0979C68.737 16.9741 68.3476 17.2662 67.5363 17.2013C67.3416 17.1688 67.1145 17.2013 66.9198 17.2013C66.1409 17.2662 65.8813 16.9092 65.8813 16.1304C65.9138 12.8853 65.9138 9.64017 65.9138 6.42751C65.9138 4.67515 65.9138 2.95525 65.9138 1.20289C65.9138 0.099551 66.0111 0.0671004 67.3741 0.0671004C68.5748 0.0671004 68.6721 0.131996 68.6721 1.26778C68.6721 3.50691 68.6721 5.71359 68.6721 7.95272C68.6721 8.24478 68.6721 8.53684 68.6721 8.79645C68.7046 9.15341 68.5423 9.60773 68.9317 9.76998C69.3536 9.96469 69.5158 9.44547 69.743 9.21831C70.4569 8.40703 71.1384 7.53086 71.8523 6.71958C73.2153 5.06457 73.7345 4.93476 76.1359 5.48643Z" fill="white"></path><path d="M51.2458 11.2627C51.2458 9.64018 51.2458 8.01763 51.2458 6.39507C51.2458 5.87585 51.116 5.19438 51.9273 5.25928C52.6088 5.29173 53.5823 4.77251 53.777 6.00565C53.9068 6.94674 54.2962 6.58977 54.7181 6.26526C56.146 5.16192 57.7685 4.77251 59.5209 5.29173C61.9872 6.0381 62.8634 7.98518 63.0256 10.2892C63.1554 12.3012 63.0581 14.3456 63.0905 16.3576C63.0905 16.9092 62.8958 17.2013 62.3117 17.1688C61.9547 17.1688 61.5978 17.1364 61.2083 17.1688C60.5269 17.2013 60.2997 16.8768 60.2997 16.2278C60.3322 14.4754 60.3322 12.7555 60.2997 11.0031C60.2997 8.86135 59.2288 7.59576 57.4116 7.46595C55.5618 7.3686 54.1989 8.66665 53.9717 10.776C53.8095 12.4959 53.9393 14.2482 53.9068 16.0006C53.8744 17.1364 53.8419 17.1688 52.6088 17.1688C51.2783 17.1688 51.2458 17.1688 51.2458 15.9682C51.2458 14.4105 51.2783 12.8204 51.2458 11.2627C51.2783 11.2627 51.2783 11.2627 51.2458 11.2627Z" fill="white"></path><path d="M39.8555 8.47194C39.8555 6.0381 39.8555 3.63672 39.8555 1.20289C39.8555 0.0670999 39.9204 0.0670976 41.2833 0.0346465C42.0946 0.0346465 42.6463 0.0670983 42.6138 1.17044C42.5489 6.10301 42.5814 11.0356 42.5814 15.9681C42.5814 17.1688 42.5165 17.2013 41.2184 17.2013C39.8555 17.2013 39.8555 17.2013 39.8555 16.0006C39.8555 13.5019 39.8555 10.9707 39.8555 8.47194Z" fill="white"></path><path d="M126.922 15.4489C125.656 16.8768 124.196 17.5582 122.379 17.4933C119.296 17.396 117.219 15.3516 117.154 12.2687C117.122 10.1594 117.154 8.05006 117.154 5.94074C117.154 5.48643 117.122 4.99967 117.803 5.06457C118.42 5.12947 118.29 5.61624 118.29 6.00565C118.29 8.01762 118.29 10.062 118.29 12.074C118.322 14.735 119.718 16.2602 122.184 16.39C124.91 16.5198 126.792 15.0271 126.987 12.3985C127.117 10.419 127.052 8.43948 127.052 6.45996C127.052 6.13545 127.052 5.81094 127.084 5.48643C127.117 5.19437 127.311 5.09702 127.603 5.09702C127.831 5.09702 127.993 5.19437 128.09 5.38908C128.155 5.55133 128.155 5.71359 128.155 5.87585C128.155 9.44547 128.123 13.0151 128.123 16.5523C128.123 16.8768 128.123 17.2337 127.668 17.2337C127.214 17.2337 127.149 16.9417 127.149 16.5847C127.149 16.2927 127.182 15.9357 126.922 15.4489Z" fill="white"></path><path d="M48.2279 11.1329C48.2279 12.7879 48.1954 14.4429 48.2603 16.0979C48.2928 17.1039 47.7411 17.2013 46.9623 17.1688C46.1834 17.1688 45.5344 17.2337 45.5669 16.0979C45.6318 12.7879 45.5993 9.47791 45.5669 6.1679C45.5669 5.09701 46.1835 5.16191 46.8974 5.16191C47.6438 5.16191 48.2603 5.12947 48.2279 6.20035C48.1954 7.82291 48.2279 9.47791 48.2279 11.1329Z" fill="white"></path><path d="M93.9191 6.84938C95.1523 5.32418 96.7424 4.80495 98.6246 4.99966C99.1113 5.06456 99.5656 5.19437 100.02 5.42153C100.28 5.55134 100.377 5.77849 100.215 6.00565C100.085 6.20035 99.9875 6.45996 99.663 6.33016C99.4358 6.2328 99.2087 6.1679 98.9815 6.103C96.353 5.45397 93.8218 7.33614 93.7569 10.062C93.692 12.1714 93.7569 14.2807 93.7569 16.3576C93.7569 16.747 93.8867 17.2013 93.2377 17.2337C92.6211 17.2337 92.6536 16.8119 92.6536 16.39C92.6536 12.9177 92.6536 9.44546 92.6536 5.94074C92.6536 5.55133 92.5886 5.06457 93.2052 5.06457C93.8218 5.06457 93.692 5.58378 93.7569 5.94074C93.7569 6.26525 93.692 6.55732 93.9191 6.84938Z" fill="white"></path><path d="M48.4875 1.5923C48.455 2.56583 47.8385 3.14996 46.8649 3.11751C45.8589 3.08506 45.3073 2.50094 45.3397 1.49495C45.3722 0.586321 45.9887 -0.030252 46.8974 0.00219911C47.8709 0.00219911 48.5199 0.651218 48.4875 1.5923Z" fill="white"></path><path fill-rule="evenodd" clip-rule="evenodd" d="M87.5557 16.509C87.3465 16.4178 87.1426 16.3288 87.04 16.098C87.0724 15.8059 87.3321 15.7086 87.5592 15.6761C90.2527 13.6317 90.9017 10.3217 89.1169 7.49845C88.7275 6.84943 88.5977 6.46001 89.1818 5.94079C89.2032 5.91941 89.226 5.89746 89.2494 5.8749C89.4751 5.65779 89.7586 5.38491 89.3765 5.03217C88.9546 4.64275 88.695 4.99971 88.5003 5.29177C88.046 6.00569 87.5592 5.9408 86.8777 5.58384C85.1578 4.70765 83.373 4.70766 81.6207 5.55139C79.2842 6.65472 78.1808 9.31571 78.7325 12.3012C79.1868 14.735 81.069 16.4874 83.6651 16.7795C83.9277 16.8066 84.193 16.8212 84.4593 16.8358C85.1471 16.8735 85.8424 16.9116 86.5208 17.1689C88.0784 17.753 88.9222 18.8888 88.9546 20.5438C88.9546 22.1988 88.1758 23.367 86.5532 23.9512C85.1578 24.4379 83.6975 24.5028 82.2697 24.0161C81.1988 23.6267 80.3226 23.0425 79.8683 21.9392C79.8196 21.7769 79.779 21.6227 79.7385 21.4686C79.6979 21.3144 79.6573 21.1603 79.6087 20.9981C79.5113 20.6412 79.2193 20.6087 78.9272 20.6412C78.5378 20.6736 78.5702 20.9657 78.6027 21.2577C78.7325 22.2313 79.0895 23.0425 79.8034 23.724C81.7505 25.5413 84.0545 25.7035 86.4883 25.0869C88.4678 24.5677 89.7659 23.3346 90.058 21.2577C90.3176 19.2133 89.5712 17.6232 87.7215 16.5848C87.667 16.5575 87.6112 16.5332 87.5557 16.509ZM84.2808 15.6438C86.8444 15.6438 88.9213 13.4371 88.9213 10.7436C88.9213 7.88795 87.0716 5.97332 84.2808 5.97332C81.4575 5.97332 79.6727 7.82304 79.6727 10.7761C79.6402 13.5669 81.6522 15.6438 84.2808 15.6438Z" fill="white"></path><path fill-rule="evenodd" clip-rule="evenodd" d="M138.475 4.96707C136.106 4.73992 134.288 5.74591 132.763 7.69298C132.558 7.1908 132.577 6.7689 132.595 6.37081C132.603 6.20296 132.611 6.03933 132.601 5.87571C132.599 5.85433 132.597 5.83284 132.595 5.81132C132.567 5.47351 132.537 5.12933 132.049 5.12933C131.559 5.12933 131.561 5.5059 131.562 5.84853C131.562 5.86855 131.563 5.88846 131.563 5.90816V21.5496C131.563 21.5848 131.562 21.621 131.561 21.6577C131.555 21.9922 131.549 22.3641 132.017 22.3933C132.592 22.4221 132.581 22.0175 132.571 21.654C132.57 21.6074 132.569 21.5614 132.569 21.5171C132.569 20.9114 132.565 20.3056 132.561 19.6999C132.554 18.4884 132.547 17.2769 132.569 16.0654C132.569 15.9781 132.559 15.8869 132.549 15.7937C132.518 15.5059 132.486 15.1992 132.731 14.9296C136.073 17.98 139.61 18.3369 142.109 15.8706C144.381 13.6315 144.543 9.25063 142.401 6.8817C141.363 5.71346 140.032 5.09689 138.475 4.96707ZM132.698 11.1654C132.698 14.2807 134.808 16.4874 137.761 16.4874C140.844 16.4549 142.855 14.4105 142.855 11.2627C142.855 8.05008 140.844 6.00565 137.761 6.00565C134.808 6.00565 132.698 8.14743 132.698 11.1654Z" fill="white"></path><path fill-rule="evenodd" clip-rule="evenodd" d="M108.067 17.4933C111.669 17.4609 114.266 14.8648 114.266 11.2952C114.266 7.56327 111.702 4.90228 108.165 4.86984C104.465 4.83738 101.869 7.49838 101.902 11.2627C101.902 14.9297 104.498 17.5258 108.067 17.4933ZM102.908 11.1652C102.908 14.2805 105.017 16.4223 108.035 16.4223C111.053 16.4223 113.227 14.2481 113.195 11.1977C113.195 8.21219 110.923 5.87572 108.068 5.87572C105.147 5.87572 102.908 8.14729 102.908 11.1652Z" fill="white"></path><path d="M39.8588 34.0679V27.4998H44.1306V28.4972H41.0486V30.2803H43.9093V31.2777H41.0486V33.0705H44.1562V34.0679H39.8588ZM47.3018 34.1545C46.9148 34.1545 46.5684 34.055 46.2627 33.8562C45.9569 33.6574 45.7153 33.3687 45.5379 32.9903C45.3604 32.6119 45.2717 32.1522 45.2717 31.6113C45.2717 31.0639 45.3615 30.6021 45.5411 30.2258C45.7228 29.8474 45.9676 29.562 46.2755 29.3695C46.5834 29.175 46.9265 29.0777 47.305 29.0777C47.5936 29.0777 47.8309 29.1269 48.0169 29.2252C48.203 29.3214 48.3505 29.4379 48.4595 29.5748C48.5686 29.7095 48.653 29.8367 48.7129 29.9564H48.761V27.4998H49.9251V34.0679H48.7834V33.2918H48.7129C48.653 33.4115 48.5664 33.5387 48.4531 33.6734C48.3398 33.806 48.1901 33.9193 48.0041 34.0134C47.8181 34.1074 47.584 34.1545 47.3018 34.1545ZM47.6257 33.202C47.8716 33.202 48.0811 33.1357 48.2543 33.0031C48.4274 32.8684 48.5589 32.6814 48.6487 32.4419C48.7385 32.2024 48.7834 31.9234 48.7834 31.6048C48.7834 31.2863 48.7385 31.0094 48.6487 30.7742C48.5611 30.539 48.4307 30.3562 48.2575 30.2258C48.0864 30.0954 47.8758 30.0302 47.6257 30.0302C47.367 30.0302 47.151 30.0975 46.9779 30.2322C46.8047 30.3669 46.6743 30.5529 46.5866 30.7903C46.4989 31.0276 46.4551 31.2991 46.4551 31.6048C46.4551 31.9127 46.4989 32.1875 46.5866 32.4291C46.6764 32.6685 46.8079 32.8577 46.9811 32.9967C47.1564 33.1335 47.3713 33.202 47.6257 33.202ZM54.4826 31.9961V29.1418H55.6436V34.0679H54.5179V33.1923H54.4666C54.3554 33.4682 54.1726 33.6937 53.9182 33.869C53.6659 34.0444 53.3548 34.132 52.9849 34.132C52.6621 34.132 52.3766 34.0604 52.1286 33.9171C51.8827 33.7718 51.6903 33.5612 51.5513 33.2853C51.4124 33.0074 51.3429 32.6717 51.3429 32.2783V29.1418H52.5038V32.0987C52.5038 32.4109 52.5894 32.6589 52.7604 32.8428C52.9315 33.0266 53.1559 33.1186 53.4339 33.1186C53.6049 33.1186 53.7706 33.0769 53.931 32.9935C54.0913 32.9101 54.2228 32.7861 54.3255 32.6215C54.4302 32.4547 54.4826 32.2463 54.4826 31.9961ZM59.1667 34.1641C58.675 34.1641 58.2527 34.0561 57.8999 33.8402C57.5493 33.6242 57.2788 33.326 57.0886 32.9454C56.9004 32.5627 56.8063 32.1223 56.8063 31.6241C56.8063 31.1238 56.9026 30.6823 57.095 30.2996C57.2874 29.9147 57.5589 29.6154 57.9096 29.4016C58.2623 29.1857 58.6793 29.0777 59.1603 29.0777C59.5601 29.0777 59.914 29.1514 60.2219 29.299C60.5319 29.4444 60.7788 29.6507 60.9627 29.9179C61.1466 30.1831 61.2513 30.4931 61.277 30.848H60.1673C60.1224 30.6107 60.0155 30.4129 59.8466 30.2547C59.6799 30.0943 59.4564 30.0141 59.1764 30.0141C58.939 30.0141 58.7306 30.0783 58.551 30.2066C58.3714 30.3327 58.2313 30.5144 58.1309 30.7518C58.0325 30.9891 57.9833 31.2735 57.9833 31.6048C57.9833 31.9405 58.0325 32.2292 58.1309 32.4708C58.2292 32.7102 58.3671 32.8952 58.5446 33.0256C58.7242 33.1539 58.9348 33.218 59.1764 33.218C59.3474 33.218 59.5003 33.1859 59.635 33.1218C59.7718 33.0555 59.8862 32.9604 59.9781 32.8364C60.0701 32.7124 60.1331 32.5616 60.1673 32.3842H61.277C61.2492 32.7327 61.1466 33.0416 60.9691 33.311C60.7916 33.5783 60.55 33.7878 60.2443 33.9396C59.9386 34.0893 59.5794 34.1641 59.1667 34.1641ZM63.8284 34.1673C63.5163 34.1673 63.2351 34.1117 62.985 34.0005C62.737 33.8872 62.5403 33.7204 62.3949 33.5002C62.2516 33.28 62.18 33.0085 62.18 32.6856C62.18 32.4077 62.2313 32.1778 62.3339 31.9961C62.4366 31.8144 62.5766 31.669 62.7541 31.56C62.9315 31.4509 63.1314 31.3686 63.3538 31.313C63.5783 31.2553 63.8102 31.2136 64.0497 31.1879C64.3383 31.158 64.5725 31.1313 64.7521 31.1078C64.9316 31.0821 65.0621 31.0436 65.1433 30.9923C65.2267 30.9389 65.2684 30.8565 65.2684 30.7454V30.7261C65.2684 30.4845 65.1968 30.2974 65.0535 30.1649C64.9103 30.0323 64.7039 29.966 64.4346 29.966C64.1502 29.966 63.9246 30.028 63.7579 30.1521C63.5932 30.2761 63.4821 30.4225 63.4243 30.5914L62.3403 30.4375C62.4259 30.1382 62.567 29.888 62.7637 29.687C62.9604 29.4839 63.2009 29.3321 63.4853 29.2316C63.7696 29.129 64.0839 29.0777 64.4281 29.0777C64.6655 29.0777 64.9017 29.1055 65.1369 29.1611C65.3721 29.2167 65.587 29.3086 65.7815 29.4369C65.9761 29.563 66.1322 29.7351 66.2497 29.9532C66.3695 30.1713 66.4293 30.4439 66.4293 30.771V34.0679H65.3133V33.3912H65.2748C65.2042 33.528 65.1048 33.6563 64.9765 33.776C64.8504 33.8936 64.6911 33.9888 64.4987 34.0615C64.3084 34.132 64.085 34.1673 63.8284 34.1673ZM64.1299 33.3142C64.3629 33.3142 64.565 33.2682 64.736 33.1763C64.9071 33.0822 65.0385 32.9582 65.1305 32.8043C65.2246 32.6504 65.2716 32.4825 65.2716 32.3008V31.7203C65.2352 31.7502 65.1732 31.778 65.0856 31.8037C65.0001 31.8293 64.9039 31.8518 64.797 31.871C64.69 31.8903 64.5842 31.9074 64.4795 31.9223C64.3747 31.9373 64.2838 31.9501 64.2069 31.9608C64.0337 31.9844 63.8787 32.0228 63.7418 32.0763C63.605 32.1297 63.497 32.2046 63.4179 32.3008C63.3388 32.3949 63.2993 32.5167 63.2993 32.6664C63.2993 32.8802 63.3773 33.0416 63.5334 33.1507C63.6894 33.2597 63.8883 33.3142 64.1299 33.3142ZM70.2371 29.1418V30.0398H67.4053V29.1418H70.2371ZM68.1045 27.9616H69.2654V32.5862C69.2654 32.7423 69.2889 32.862 69.336 32.9454C69.3851 33.0266 69.4493 33.0822 69.5284 33.1122C69.6075 33.1421 69.6952 33.1571 69.7914 33.1571C69.8641 33.1571 69.9303 33.1517 69.9902 33.141C70.0522 33.1303 70.0992 33.1207 70.1313 33.1122L70.3269 34.0198C70.2649 34.0411 70.1762 34.0647 70.0608 34.0903C69.9474 34.116 69.8085 34.1309 69.6438 34.1352C69.3531 34.1438 69.0912 34.0999 68.8581 34.0037C68.6251 33.9054 68.4401 33.7536 68.3033 33.5483C68.1686 33.3431 68.1023 33.0865 68.1045 32.7786V27.9616ZM71.3887 34.0679V29.1418H72.5497V34.0679H71.3887ZM71.9724 28.4427C71.7885 28.4427 71.6303 28.3818 71.4977 28.2599C71.3652 28.1359 71.2989 27.9873 71.2989 27.8141C71.2989 27.6388 71.3652 27.4902 71.4977 27.3683C71.6303 27.2443 71.7885 27.1823 71.9724 27.1823C72.1584 27.1823 72.3166 27.2443 72.447 27.3683C72.5796 27.4902 72.6459 27.6388 72.6459 27.8141C72.6459 27.9873 72.5796 28.1359 72.447 28.2599C72.3166 28.3818 72.1584 28.4427 71.9724 28.4427ZM76.0728 34.1641C75.5918 34.1641 75.1749 34.0582 74.8221 33.8466C74.4693 33.6349 74.1956 33.3388 74.0011 32.9582C73.8087 32.5777 73.7124 32.1329 73.7124 31.6241C73.7124 31.1152 73.8087 30.6695 74.0011 30.2867C74.1956 29.904 74.4693 29.6069 74.8221 29.3952C75.1749 29.1835 75.5918 29.0777 76.0728 29.0777C76.5539 29.0777 76.9708 29.1835 77.3236 29.3952C77.6764 29.6069 77.949 29.904 78.1414 30.2867C78.336 30.6695 78.4332 31.1152 78.4332 31.6241C78.4332 32.1329 78.336 32.5777 78.1414 32.9582C77.949 33.3388 77.6764 33.6349 77.3236 33.8466C76.9708 34.0582 76.5539 34.1641 76.0728 34.1641ZM76.0793 33.234C76.3401 33.234 76.5582 33.1624 76.7335 33.0192C76.9088 32.8738 77.0392 32.6792 77.1248 32.4355C77.2124 32.1917 77.2562 31.9202 77.2562 31.6209C77.2562 31.3194 77.2124 31.0468 77.1248 30.8031C77.0392 30.5572 76.9088 30.3616 76.7335 30.2162C76.5582 30.0708 76.3401 29.9981 76.0793 29.9981C75.812 29.9981 75.5896 30.0708 75.4122 30.2162C75.2369 30.3616 75.1054 30.5572 75.0177 30.8031C74.9322 31.0468 74.8894 31.3194 74.8894 31.6209C74.8894 31.9202 74.9322 32.1917 75.0177 32.4355C75.1054 32.6792 75.2369 32.8738 75.4122 33.0192C75.5896 33.1624 75.812 33.234 76.0793 33.234ZM80.7602 31.1815V34.0679H79.5992V29.1418H80.7089V29.9789H80.7666C80.8799 29.7031 81.0606 29.4839 81.3086 29.3214C81.5587 29.1589 81.8677 29.0777 82.2354 29.0777C82.5754 29.0777 82.8715 29.1504 83.1238 29.2958C83.3782 29.4412 83.5749 29.6518 83.7139 29.9276C83.855 30.2034 83.9245 30.538 83.9223 30.9314V34.0679H82.7614V31.111C82.7614 30.7817 82.6759 30.5241 82.5048 30.3381C82.3359 30.1521 82.1018 30.059 81.8025 30.059C81.5994 30.059 81.4187 30.1039 81.2605 30.1937C81.1044 30.2814 80.9815 30.4086 80.8917 30.5754C80.804 30.7422 80.7602 30.9442 80.7602 31.1815ZM86.7007 34.1673C86.3885 34.1673 86.1074 34.1117 85.8572 34.0005C85.6092 33.8872 85.4125 33.7204 85.2671 33.5002C85.1239 33.28 85.0523 33.0085 85.0523 32.6856C85.0523 32.4077 85.1036 32.1778 85.2062 31.9961C85.3088 31.8144 85.4489 31.669 85.6263 31.56C85.8038 31.4509 86.0037 31.3686 86.226 31.313C86.4505 31.2553 86.6825 31.2136 86.922 31.1879C87.2106 31.158 87.4447 31.1313 87.6243 31.1078C87.8039 31.0821 87.9343 31.0436 88.0156 30.9923C88.099 30.9389 88.1407 30.8565 88.1407 30.7454V30.7261C88.1407 30.4845 88.069 30.2974 87.9258 30.1649C87.7825 30.0323 87.5762 29.966 87.3068 29.966C87.0225 29.966 86.7969 30.028 86.6301 30.1521C86.4655 30.2761 86.3543 30.4225 86.2966 30.5914L85.2126 30.4375C85.2981 30.1382 85.4392 29.888 85.6359 29.687C85.8326 29.4839 86.0732 29.3321 86.3575 29.2316C86.6419 29.129 86.9562 29.0777 87.3004 29.0777C87.5377 29.0777 87.774 29.1055 88.0092 29.1611C88.2443 29.2167 88.4592 29.3086 88.6538 29.4369C88.8483 29.563 89.0044 29.7351 89.122 29.9532C89.2417 30.1713 89.3016 30.4439 89.3016 30.771V34.0679H88.1856V33.3912H88.1471C88.0765 33.528 87.9771 33.6563 87.8488 33.776C87.7227 33.8936 87.5634 33.9888 87.371 34.0615C87.1807 34.132 86.9572 34.1673 86.7007 34.1673ZM87.0021 33.3142C87.2352 33.3142 87.4372 33.2682 87.6083 33.1763C87.7793 33.0822 87.9108 32.9582 88.0027 32.8043C88.0968 32.6504 88.1439 32.4825 88.1439 32.3008V31.7203C88.1075 31.7502 88.0455 31.778 87.9578 31.8037C87.8723 31.8293 87.7761 31.8518 87.6692 31.871C87.5623 31.8903 87.4565 31.9074 87.3517 31.9223C87.247 31.9373 87.1561 31.9501 87.0791 31.9608C86.9059 31.9844 86.7509 32.0228 86.6141 32.0763C86.4773 32.1297 86.3693 32.2046 86.2902 32.3008C86.2111 32.3949 86.1715 32.5167 86.1715 32.6664C86.1715 32.8802 86.2496 33.0416 86.4056 33.1507C86.5617 33.2597 86.7605 33.3142 87.0021 33.3142ZM91.8106 27.4998V34.0679H90.6496V27.4998H91.8106ZM96.5005 34.0679H95.2305L97.5428 27.4998H99.0117L101.327 34.0679H100.057L98.3029 28.8468H98.2516L96.5005 34.0679ZM96.5422 31.4926H100.006V32.4483H96.5422V31.4926ZM103.483 27.4998V34.0679H102.322V27.4998H103.483ZM106.018 27.4998V34.0679H104.857V27.4998H106.018ZM107.392 34.0679V29.1418H108.553V34.0679H107.392ZM107.976 28.4427C107.792 28.4427 107.634 28.3818 107.501 28.2599C107.369 28.1359 107.303 27.9873 107.303 27.8141C107.303 27.6388 107.369 27.4902 107.501 27.3683C107.634 27.2443 107.792 27.1823 107.976 27.1823C108.162 27.1823 108.32 27.2443 108.451 27.3683C108.583 27.4902 108.65 27.6388 108.65 27.8141C108.65 27.9873 108.583 28.1359 108.451 28.2599C108.32 28.3818 108.162 28.4427 107.976 28.4427ZM111.345 34.1673C111.033 34.1673 110.752 34.1117 110.502 34.0005C110.254 33.8872 110.057 33.7204 109.912 33.5002C109.768 33.28 109.697 33.0085 109.697 32.6856C109.697 32.4077 109.748 32.1778 109.851 31.9961C109.953 31.8144 110.093 31.669 110.271 31.56C110.448 31.4509 110.648 31.3686 110.871 31.313C111.095 31.2553 111.327 31.2136 111.567 31.1879C111.855 31.158 112.089 31.1313 112.269 31.1078C112.449 31.0821 112.579 31.0436 112.66 30.9923C112.744 30.9389 112.785 30.8565 112.785 30.7454V30.7261C112.785 30.4845 112.714 30.2974 112.57 30.1649C112.427 30.0323 112.221 29.966 111.951 29.966C111.667 29.966 111.442 30.028 111.275 30.1521C111.11 30.2761 110.999 30.4225 110.941 30.5914L109.857 30.4375C109.943 30.1382 110.084 29.888 110.281 29.687C110.477 29.4839 110.718 29.3321 111.002 29.2316C111.286 29.129 111.601 29.0777 111.945 29.0777C112.182 29.0777 112.419 29.1055 112.654 29.1611C112.889 29.2167 113.104 29.3086 113.298 29.4369C113.493 29.563 113.649 29.7351 113.767 29.9532C113.886 30.1713 113.946 30.4439 113.946 30.771V34.0679H112.83V33.3912H112.792C112.721 33.528 112.622 33.6563 112.493 33.776C112.367 33.8936 112.208 33.9888 112.016 34.0615C111.825 34.132 111.602 34.1673 111.345 34.1673ZM111.647 33.3142C111.88 33.3142 112.082 33.2682 112.253 33.1763C112.424 33.0822 112.555 32.9582 112.647 32.8043C112.741 32.6504 112.788 32.4825 112.788 32.3008V31.7203C112.752 31.7502 112.69 31.778 112.602 31.8037C112.517 31.8293 112.421 31.8518 112.314 31.871C112.207 31.8903 112.101 31.9074 111.996 31.9223C111.892 31.9373 111.801 31.9501 111.724 31.9608C111.551 31.9844 111.396 32.0228 111.259 32.0763C111.122 32.1297 111.014 32.2046 110.935 32.3008C110.856 32.3949 110.816 32.5167 110.816 32.6664C110.816 32.8802 110.894 33.0416 111.05 33.1507C111.206 33.2597 111.405 33.3142 111.647 33.3142ZM116.455 31.1815V34.0679H115.294V29.1418H116.404V29.9789H116.462C116.575 29.7031 116.756 29.4839 117.004 29.3214C117.254 29.1589 117.563 29.0777 117.93 29.0777C118.27 29.0777 118.566 29.1504 118.819 29.2958C119.073 29.4412 119.27 29.6518 119.409 29.9276C119.55 30.2034 119.619 30.538 119.617 30.9314V34.0679H118.456V31.111C118.456 30.7817 118.371 30.5241 118.2 30.3381C118.031 30.1521 117.797 30.059 117.497 30.059C117.294 30.059 117.114 30.1039 116.955 30.1937C116.799 30.2814 116.676 30.4086 116.587 30.5754C116.499 30.7422 116.455 30.9442 116.455 31.1815ZM123.127 34.1641C122.635 34.1641 122.213 34.0561 121.86 33.8402C121.509 33.6242 121.239 33.326 121.049 32.9454C120.861 32.5627 120.766 32.1223 120.766 31.6241C120.766 31.1238 120.863 30.6823 121.055 30.2996C121.248 29.9147 121.519 29.6154 121.87 29.4016C122.222 29.1857 122.639 29.0777 123.12 29.0777C123.52 29.0777 123.874 29.1514 124.182 29.299C124.492 29.4444 124.739 29.6507 124.923 29.9179C125.107 30.1831 125.211 30.4931 125.237 30.848H124.127C124.083 30.6107 123.976 30.4129 123.807 30.2547C123.64 30.0943 123.417 30.0141 123.136 30.0141C122.899 30.0141 122.691 30.0783 122.511 30.2066C122.332 30.3327 122.191 30.5144 122.091 30.7518C121.993 30.9891 121.943 31.2735 121.943 31.6048C121.943 31.9405 121.993 32.2292 122.091 32.4708C122.189 32.7102 122.327 32.8952 122.505 33.0256C122.684 33.1539 122.895 33.218 123.136 33.218C123.308 33.218 123.46 33.1859 123.595 33.1218C123.732 33.0555 123.846 32.9604 123.938 32.8364C124.03 32.7124 124.093 32.5616 124.127 32.3842H125.237C125.209 32.7327 125.107 33.0416 124.929 33.311C124.752 33.5783 124.51 33.7878 124.204 33.9396C123.899 34.0893 123.54 34.1641 123.127 34.1641ZM128.552 34.1641C128.058 34.1641 127.631 34.0615 127.272 33.8562C126.915 33.6488 126.64 33.3559 126.448 32.9775C126.256 32.5969 126.159 32.149 126.159 31.6337C126.159 31.127 126.256 30.6823 126.448 30.2996C126.643 29.9147 126.914 29.6154 127.263 29.4016C127.611 29.1857 128.021 29.0777 128.491 29.0777C128.795 29.0777 129.081 29.1269 129.35 29.2252C129.622 29.3214 129.861 29.4711 130.069 29.6742C130.278 29.8773 130.443 30.136 130.563 30.4503C130.682 30.7625 130.742 31.1345 130.742 31.5664V31.9223H126.705V31.1398H129.629C129.627 30.9175 129.579 30.7197 129.485 30.5465C129.391 30.3712 129.26 30.2333 129.091 30.1328C128.924 30.0323 128.729 29.9821 128.507 29.9821C128.27 29.9821 128.061 30.0398 127.882 30.1553C127.702 30.2686 127.562 30.4182 127.461 30.6042C127.363 30.7881 127.313 30.9902 127.311 31.2104V31.8935C127.311 32.18 127.363 32.4259 127.468 32.6311C127.573 32.8342 127.719 32.9903 127.907 33.0993C128.095 33.2062 128.316 33.2597 128.568 33.2597C128.737 33.2597 128.89 33.2362 129.026 33.1891C129.163 33.14 129.282 33.0683 129.382 32.9743C129.483 32.8802 129.559 32.7637 129.61 32.6247L130.694 32.7466C130.626 33.0331 130.495 33.2832 130.303 33.497C130.113 33.7087 129.869 33.8733 129.572 33.9909C129.274 34.1064 128.935 34.1641 128.552 34.1641Z" fill="white"></path></g></svg> 